<?xml version="1.0" encoding="utf-8"?>
<!-- Generator: Adobe Illustrator 27.4.1, SVG Export Plug-In . SVG Version: 6.00 Build 0)  -->
<svg version="1.1" id="BEST_TEAM_EVER" xmlns="http://www.w3.org/2000/svg" xmlns:xlink="http://www.w3.org/1999/xlink" x="0px"
	 y="0px" viewBox="0 0 1920 1080" style="enable-background:new 0 0 1920 1080;" xml:space="preserve">
<style type="text/css">
	.st0{enable-background:new    ;}
	.st1{fill:#8E3B47;}
	.st2{clip-path:url(#SVGID_00000153704114172461976720000004228802861762904991_);enable-background:new    ;}
	.st3{fill:#923C49;}
	.st4{fill:#8D3A47;}
	.st5{fill:#883844;}
	.st6{fill:#843642;}
	.st7{fill:#7F3440;}
	.st8{fill:#7A323D;}
	.st9{clip-path:url(#SVGID_00000119077833700382999110000013156960437184975022_);enable-background:new    ;}
	.st10{fill:#963E4C;}
	.st11{fill:#963E4B;}
	.st12{fill:#7E343F;}
	.st13{clip-path:url(#SVGID_00000067231609006168350800000011805850514539192452_);enable-background:new    ;}
	.st14{fill:#9B404E;}
	.st15{fill:#A04250;}
	.st16{fill:#A44453;}
	.st17{fill:#A94655;}
	.st18{clip-path:url(#SVGID_00000049217500987640415680000005094582016161805972_);enable-background:new    ;}
	.st19{clip-path:url(#SVGID_00000161611756261333678350000000683381140402381190_);enable-background:new    ;}
	.st20{fill:#C15061;}
	.st21{fill:#F9E8D8;}
	.st22{fill:#EFCAA6;}
	.st23{fill:#1A2F2F;}
	.st24{fill:#795246;}
	.st25{fill:#1D1D1B;}
	.st26{fill:#F59C98;}
	.st27{fill:#AC8252;}
	.st28{fill:none;stroke:#1D1D1B;stroke-linecap:round;stroke-miterlimit:10;}
	.st29{fill:#467971;}
	.st30{fill:#1A2F2F;stroke:#467971;stroke-linecap:round;stroke-miterlimit:10;}
	.st31{fill:none;stroke:#467971;stroke-linecap:round;stroke-linejoin:round;stroke-miterlimit:10;}
	.st32{fill:none;stroke:#D4F3EB;stroke-linecap:square;stroke-linejoin:round;stroke-miterlimit:10;}
	.st33{fill:#D4F3EB;}
	.st34{fill:none;stroke:#467971;stroke-width:0.5;stroke-linecap:round;stroke-miterlimit:10;}
	.st35{fill:none;stroke:#D4F3EB;stroke-linecap:round;stroke-linejoin:round;stroke-miterlimit:10;}
	.st36{fill:#F4D9BF;}
	.st37{fill:none;stroke:#3F5050;stroke-miterlimit:10;}
	.st38{fill:none;stroke:#467971;stroke-width:0.5;stroke-miterlimit:10;}
	.st39{fill:#E3BB94;}
	.st40{fill:#F7CD74;}
	.st41{fill:none;stroke:#AC8252;stroke-linecap:round;stroke-linejoin:round;stroke-miterlimit:10;}
	.st42{fill:#E1B564;}
	.st43{clip-path:url(#SVGID_00000040562523138651995360000017879785395680218814_);enable-background:new    ;}
	.st44{fill:#AE4857;}
	.st45{clip-path:url(#SVGID_00000160173635076741436870000011837972748391939200_);enable-background:new    ;}
	.st46{clip-path:url(#SVGID_00000129888929741754160750000008633082812152732802_);enable-background:new    ;}
	.st47{clip-path:url(#SVGID_00000053509993925132983460000013495066890938574730_);enable-background:new    ;}
	.st48{fill:#BC4E5F;}
	.st49{clip-path:url(#SVGID_00000025413603697307978600000018352877090062324368_);enable-background:new    ;}
	.st50{fill:#848484;}
	.st51{fill:none;stroke:#3A3838;stroke-miterlimit:10;}
	.st52{fill:#3A3838;}
	.st53{fill:#FFFFFF;}
	.st54{fill:none;stroke:#467971;stroke-width:2;stroke-linecap:round;stroke-miterlimit:10;}
	.st55{fill:#903B48;}
	.st56{clip-path:url(#SVGID_00000018915431702603326510000001362664310247560846_);enable-background:new    ;}
	.st57{fill:#943D4A;}
	.st58{clip-path:url(#SVGID_00000127003135563660201940000010703335170516685458_);enable-background:new    ;}
	.st59{clip-path:url(#SVGID_00000139275166778383540570000013231228234150573724_);enable-background:new    ;}
	.st60{fill:#7D333F;}
	.st61{clip-path:url(#SVGID_00000107555894440965313860000013684457015091078540_);enable-background:new    ;}
	.st62{clip-path:url(#SVGID_00000021095803306544700100000008684793643234648215_);enable-background:new    ;}
	.st63{fill:#FFFFFF;stroke:#E3BB94;stroke-miterlimit:10;}
	.st64{fill:none;stroke:#467971;stroke-linecap:round;stroke-miterlimit:10;}
	.st65{fill:#D4A87F;}
	.st66{fill:none;stroke:#795246;stroke-linecap:round;stroke-linejoin:round;stroke-miterlimit:10;}
	.st67{fill:none;stroke:#F7CD74;stroke-linecap:round;stroke-linejoin:round;stroke-dasharray:2.1258,3.1886,3.1886,2.1258;}
	.st68{fill:none;stroke:#F7CD74;stroke-miterlimit:10;}
	.st69{fill:#FFFFFF;stroke:#467971;stroke-width:2;stroke-linecap:round;stroke-miterlimit:10;}
	.st70{fill:none;stroke:#1A2F2F;stroke-linecap:round;stroke-linejoin:round;stroke-miterlimit:10;}
</style>
<g>
	<g>
		<g>
			<g class="st0">
				<g>
					<polygon class="st1" points="539.9,409.3 549.8,410.5 617.8,428.6 607.9,427.4 					"/>
				</g>
				<g class="st0">
					<defs>
						<path id="SVGID_1_" class="st0" d="M615.2,560.4l-9.9-1.2c4.3,0.5,8.5,0.3,12.7-0.8c5.8-1.5,9.4-4.9,10.8-10.2l9.9,1.2
							c-1.4,5.4-5,8.8-10.8,10.2C623.7,560.6,619.5,560.9,615.2,560.4z"/>
					</defs>
					<clipPath id="SVGID_00000067939523048555726540000015067991642239548812_">
						<use xlink:href="#SVGID_1_"  style="overflow:visible;"/>
					</clipPath>
					<g style="clip-path:url(#SVGID_00000067939523048555726540000015067991642239548812_);enable-background:new    ;">
						<path class="st3" d="M628.8,548.1l9.9,1.2c0,0.1-0.1,0.2-0.1,0.4l-9.9-1.2C628.8,548.4,628.8,548.3,628.8,548.1"/>
						<path class="st4" d="M628.7,548.5l9.9,1.2c-0.1,0.5-0.3,1-0.5,1.5l-9.9-1.2C628.4,549.5,628.6,549,628.7,548.5"/>
						<path class="st5" d="M628.2,550l9.9,1.2c-0.2,0.5-0.4,0.9-0.6,1.3l-9.9-1.2C627.9,550.9,628.1,550.4,628.2,550"/>
						<path class="st6" d="M627.6,551.3l9.9,1.2c-0.2,0.4-0.5,0.9-0.8,1.3l-9.9-1.2C627.2,552.2,627.4,551.7,627.6,551.3"/>
						<path class="st7" d="M626.9,552.6l9.9,1.2c-0.3,0.5-0.7,1-1.1,1.4l-9.9-1.2C626.2,553.5,626.6,553.1,626.9,552.6"/>
						<path class="st8" d="M625.8,554l9.9,1.2c-1.9,2.1-4.5,3.6-7.8,4.4c-4.1,1-8.4,1.3-12.7,0.8l-9.9-1.2c4.3,0.5,8.5,0.3,12.7-0.8
							C621.3,557.5,623.9,556.1,625.8,554"/>
					</g>
				</g>
				<g class="st0">
					<defs>
						<path id="SVGID_00000075848880140817221250000007449364118134667674_" class="st0" d="M667.8,207.3l9.9,1.2
							c1.1,0.1,2.2,0.4,3.3,0.6c0.8,0.2,1.7,0.5,2.5,0.8l-9.9-1.2c-0.8-0.3-1.7-0.6-2.5-0.8C670,207.6,668.9,207.4,667.8,207.3z"/>
					</defs>
					<clipPath id="SVGID_00000021091077612882392040000008263458144235551112_">
						<use xlink:href="#SVGID_00000075848880140817221250000007449364118134667674_"  style="overflow:visible;"/>
					</clipPath>
					<g style="clip-path:url(#SVGID_00000021091077612882392040000008263458144235551112_);enable-background:new    ;">
						<path class="st5" d="M667.8,207.3l9.9,1.2c0.4,0,0.7,0.1,1.1,0.2l-9.9-1.2C668.5,207.4,668.2,207.3,667.8,207.3"/>
						<path class="st4" d="M668.9,207.4l9.9,1.2c0.8,0.1,1.5,0.3,2.2,0.5c0,0,0.1,0,0.1,0l-9.9-1.2c0,0-0.1,0-0.1,0
							C670.4,207.7,669.6,207.6,668.9,207.4"/>
						<path class="st3" d="M671.2,208l9.9,1.2c0.6,0.2,1.3,0.4,1.9,0.6l-9.9-1.2C672.5,208.3,671.9,208.1,671.2,208"/>
						<path class="st10" d="M673.2,208.6l9.9,1.2c0.1,0.1,0.3,0.1,0.4,0.2l-9.9-1.2C673.5,208.7,673.3,208.6,673.2,208.6"/>
					</g>
				</g>
				<g>
					<polygon class="st11" points="644.7,487.2 654.6,488.4 638.7,549.3 628.8,548.1 					"/>
				</g>
				<g>
					<polygon class="st12" points="686.3,240.8 696.2,242 549.8,410.5 539.9,409.3 					"/>
				</g>
				<g class="st0">
					<defs>
						<path id="SVGID_00000083803364980459666830000003586851692359876019_" class="st0" d="M673.6,208.8l9.9,1.2
							c2.3,0.9,4.7,2.4,7.1,4.2c3.3,2.6,6,5.6,8,9.2c2,3.6,2.5,7.4,1.5,11.5c-0.5,1.9-1.8,4.2-3.8,7.1l-9.9-1.2
							c2-2.8,3.3-5.2,3.8-7.1c1.1-4.1,0.6-7.9-1.5-11.5c-2-3.6-4.7-6.6-8-9.2C678.3,211.1,675.9,209.7,673.6,208.8z"/>
					</defs>
					<clipPath id="SVGID_00000000915910523748176060000005343611871158224559_">
						<use xlink:href="#SVGID_00000083803364980459666830000003586851692359876019_"  style="overflow:visible;"/>
					</clipPath>
					<g style="clip-path:url(#SVGID_00000000915910523748176060000005343611871158224559_);enable-background:new    ;">
						<path class="st10" d="M673.6,208.8l9.9,1.2c0.6,0.2,1.2,0.5,1.8,0.8l-9.9-1.2C674.8,209.3,674.2,209,673.6,208.8"/>
						<path class="st14" d="M675.4,209.6l9.9,1.2c1,0.5,2,1.1,2.9,1.7l-9.9-1.2C677.4,210.7,676.4,210.1,675.4,209.6"/>
						<path class="st15" d="M678.4,211.3l9.9,1.2c0.8,0.5,1.5,1.1,2.3,1.6c0.5,0.4,1,0.8,1.5,1.3l-9.9-1.2c-0.5-0.4-1-0.8-1.5-1.3
							C679.9,212.4,679.1,211.8,678.4,211.3"/>
						<path class="st16" d="M682.2,214.2l9.9,1.2c1.7,1.5,3.2,3.2,4.6,5l-9.9-1.2C685.4,217.4,683.9,215.8,682.2,214.2"/>
						<path class="st17" d="M686.8,219.2l9.9,1.2c0.7,0.9,1.3,1.9,1.9,2.9c0.4,0.7,0.7,1.3,1,2l-9.9-1.2c-0.3-0.7-0.6-1.4-1-2
							C688.1,221.2,687.4,220.2,686.8,219.2"/>
						<path class="st16" d="M689.6,224.2l9.9,1.2c0.4,1,0.7,2,0.8,3l-9.9-1.2C690.3,226.2,690,225.2,689.6,224.2"/>
						<path class="st15" d="M690.5,227.2l9.9,1.2c0.1,0.6,0.2,1.3,0.2,1.9l-9.9-1.2C690.6,228.5,690.6,227.8,690.5,227.2"/>
						<path class="st14" d="M690.6,229.1l9.9,1.2c0,0.5,0,1.1,0,1.7l-9.9-1.2C690.7,230.2,690.7,229.7,690.6,229.1"/>
						<path class="st10" d="M690.6,230.8l9.9,1.2c0,0.5-0.1,1.1-0.2,1.6l-9.9-1.2C690.5,231.9,690.6,231.3,690.6,230.8"/>
						<path class="st3" d="M690.4,232.4l9.9,1.2c-0.1,0.4-0.2,0.9-0.3,1.3c0,0.1,0,0.1-0.1,0.2l-9.9-1.2c0-0.1,0-0.1,0.1-0.2
							C690.2,233.3,690.3,232.8,690.4,232.4"/>
						<path class="st4" d="M690.1,233.9l9.9,1.2c-0.1,0.3-0.2,0.7-0.4,1l-9.9-1.2C689.8,234.6,690,234.2,690.1,233.9"/>
						<path class="st5" d="M689.7,234.9l9.9,1.2c-0.2,0.5-0.4,1-0.7,1.6l-9.9-1.2C689.3,235.9,689.5,235.4,689.7,234.9"/>
						<path class="st6" d="M689,236.5l9.9,1.2c-0.5,0.9-1,1.8-1.7,2.8l-9.9-1.2C688,238.3,688.5,237.4,689,236.5"/>
						<path class="st7" d="M687.3,239.3l9.9,1.2c-0.3,0.5-0.6,0.9-1,1.4l-9.9-1.2C686.6,240.3,687,239.8,687.3,239.3"/>
					</g>
				</g>
				<g>
					<polygon class="st11" points="673.9,375.3 683.8,376.5 666.8,441.7 656.9,440.5 					"/>
				</g>
				<g class="st0">
					<defs>
						<path id="SVGID_00000016754317295799512170000006788299752392325557_" class="st0" d="M647.8,351.1l9.9,1.2
							c1.9,0.2,3.9,0.6,5.9,1.1c1.8,0.5,3.6,1.1,5.3,1.8c3.9,1.6,7.5,3.8,10.6,6.5c4.4,3.9,5.9,8.8,4.3,14.8l-9.9-1.2
							c1.6-6,0.1-10.9-4.3-14.8c-3.1-2.7-6.6-4.9-10.6-6.5c-1.7-0.7-3.5-1.3-5.3-1.8C651.7,351.7,649.8,351.3,647.8,351.1z"/>
					</defs>
					<clipPath id="SVGID_00000145737822743604687430000009610401541720907455_">
						<use xlink:href="#SVGID_00000016754317295799512170000006788299752392325557_"  style="overflow:visible;"/>
					</clipPath>
					<g style="clip-path:url(#SVGID_00000145737822743604687430000009610401541720907455_);enable-background:new    ;">
						<path class="st5" d="M647.8,351.1l9.9,1.2c0.6,0.1,1.2,0.2,1.8,0.3l-9.9-1.2C649.1,351.3,648.4,351.2,647.8,351.1"/>
						<path class="st4" d="M649.7,351.4l9.9,1.2c1.3,0.2,2.7,0.5,4.1,0.9c0.1,0,0.2,0.1,0.3,0.1l-9.9-1.2c-0.1,0-0.2-0.1-0.3-0.1
							C652.4,351.9,651,351.6,649.7,351.4"/>
						<path class="st3" d="M654,352.3l9.9,1.2c1.4,0.4,2.8,0.9,4.2,1.4l-9.9-1.2C656.9,353.2,655.5,352.7,654,352.3"/>
						<path class="st10" d="M658.2,353.7l9.9,1.2c0.3,0.1,0.6,0.2,0.8,0.3c1,0.4,2,0.9,3,1.4l-9.9-1.2c-1-0.5-2-1-3-1.4
							C658.8,353.9,658.5,353.8,658.2,353.7"/>
						<path class="st14" d="M662,355.4l9.9,1.2c1.3,0.7,2.5,1.4,3.7,2.2l-9.9-1.2C664.6,356.8,663.3,356.1,662,355.4"/>
						<path class="st15" d="M665.8,357.6l9.9,1.2c1.4,0.9,2.6,1.9,3.9,2.9c0,0,0,0,0.1,0.1l-9.9-1.2c0,0,0,0-0.1-0.1
							C668.4,359.5,667.1,358.5,665.8,357.6"/>
						<path class="st16" d="M669.7,360.6l9.9,1.2c0.9,0.8,1.7,1.7,2.4,2.6l-9.9-1.2C671.4,362.3,670.6,361.4,669.7,360.6"/>
						<path class="st17" d="M672.1,363.2l9.9,1.2c0.6,0.9,1.2,1.8,1.6,2.8l-9.9-1.2C673.2,365,672.7,364.1,672.1,363.2"/>
						<path class="st16" d="M673.6,366l9.9,1.2c0.3,0.8,0.6,1.7,0.7,2.6l-9.9-1.2C674.2,367.7,674,366.8,673.6,366"/>
						<path class="st15" d="M674.4,368.6l9.9,1.2c0.1,0.6,0.2,1.2,0.2,1.8l-9.9-1.2C674.5,369.8,674.5,369.2,674.4,368.6"/>
						<path class="st14" d="M674.5,370.4l9.9,1.2c0,0.5,0,1.1,0,1.7l-9.9-1.2C674.5,371.5,674.5,371,674.5,370.4"/>
						<path class="st10" d="M674.5,372.1l9.9,1.2c0,0.6-0.1,1.2-0.2,1.8l-9.9-1.2C674.4,373.3,674.4,372.7,674.5,372.1"/>
						<path class="st3" d="M674.3,373.9l9.9,1.2c-0.1,0.5-0.2,1-0.3,1.5l-9.9-1.2C674.1,374.8,674.2,374.3,674.3,373.9"/>
					</g>
				</g>
				<g>
					<polygon class="st1" points="656.9,440.5 666.8,441.7 689.9,447.9 680.1,446.6 					"/>
				</g>
				<g class="st0">
					<defs>
						<path id="SVGID_00000082347704833092782950000010167928605767280783_" class="st0" d="M679.3,494.9l-9.9-1.2
							c3.8,0.5,7.7-1.1,11.7-4.6c4.5-4,7.5-8.9,9-14.5c1.6-6,1.7-11.8,0.3-17.3c-1.2-4.8-3.9-8.1-8.2-9.9c-0.7-0.3-1.4-0.5-2.2-0.7
							l9.9,1.2c0.8,0.2,1.5,0.4,2.2,0.7c4.3,1.8,7,5,8.2,9.9c1.3,5.6,1.2,11.4-0.3,17.3c-1.5,5.7-4.5,10.5-9,14.5
							C687,493.8,683.1,495.4,679.3,494.9z"/>
					</defs>
					<clipPath id="SVGID_00000068677772735433417490000011288177001833817753_">
						<use xlink:href="#SVGID_00000082347704833092782950000010167928605767280783_"  style="overflow:visible;"/>
					</clipPath>
					<g style="clip-path:url(#SVGID_00000068677772735433417490000011288177001833817753_);enable-background:new    ;">
						<path class="st4" d="M680.1,446.6l9.9,1.2c0,0,0.1,0,0.1,0l-9.9-1.2C680.1,446.7,680.1,446.7,680.1,446.6"/>
						<path class="st3" d="M680.2,446.7l9.9,1.2c0.6,0.2,1.2,0.3,1.7,0.6l-9.9-1.2C681.3,447,680.8,446.8,680.2,446.7"/>
						<path class="st10" d="M681.9,447.2l9.9,1.2c0.1,0,0.2,0.1,0.3,0.1c0.4,0.2,0.8,0.3,1.2,0.5l-9.9-1.2c-0.4-0.2-0.8-0.4-1.2-0.5
							C682.1,447.3,682,447.3,681.9,447.2"/>
						<path class="st14" d="M683.4,447.9l9.9,1.2c0.5,0.2,0.9,0.5,1.4,0.8l-9.9-1.2C684.3,448.4,683.8,448.1,683.4,447.9"/>
						<path class="st15" d="M684.7,448.7l9.9,1.2c0.5,0.3,1,0.7,1.4,1.1l-9.9-1.2C685.7,449.4,685.2,449,684.7,448.7"/>
						<path class="st16" d="M686.1,449.8l9.9,1.2c0.7,0.6,1.3,1.3,1.9,2l-9.9-1.2C687.4,451.1,686.8,450.4,686.1,449.8"/>
						<path class="st17" d="M688,451.8l9.9,1.2c0.7,0.9,1.2,1.9,1.7,3.1l-9.9-1.2C689.2,453.7,688.6,452.7,688,451.8"/>
						<path class="st16" d="M689.6,454.9l9.9,1.2c0.3,0.7,0.5,1.5,0.7,2.4c0.2,0.8,0.4,1.6,0.5,2.4l-9.9-1.2
							c-0.1-0.8-0.3-1.6-0.5-2.4C690.2,456.4,689.9,455.6,689.6,454.9"/>
						<path class="st15" d="M690.9,459.7l9.9,1.2c0.2,1.5,0.4,2.9,0.4,4.4l-9.9-1.2C691.3,462.6,691.1,461.1,690.9,459.7"/>
						<path class="st14" d="M691.3,464.1l9.9,1.2c0,1.3,0,2.5-0.1,3.8l-9.9-1.2C691.3,466.6,691.3,465.4,691.3,464.1"/>
						<path class="st10" d="M691.2,467.9l9.9,1.2c-0.1,1.2-0.3,2.5-0.5,3.7l-9.9-1.2C691,470.4,691.1,469.2,691.2,467.9"/>
						<path class="st3" d="M690.7,471.6l9.9,1.2c-0.2,1-0.4,1.9-0.6,2.9c-0.1,0.2-0.1,0.4-0.2,0.6l-9.9-1.2c0.1-0.2,0.1-0.4,0.2-0.6
							C690.3,473.6,690.5,472.6,690.7,471.6"/>
						<path class="st4" d="M689.9,475.2l9.9,1.2c-0.3,0.9-0.6,1.8-0.9,2.7l-9.9-1.2C689.3,477,689.6,476.1,689.9,475.2"/>
						<path class="st5" d="M689,477.9l9.9,1.2c-0.4,0.9-0.8,1.8-1.2,2.6l-9.9-1.2C688.2,479.7,688.6,478.8,689,477.9"/>
						<path class="st6" d="M687.8,480.6l9.9,1.2c-0.5,0.9-1,1.9-1.6,2.7l-9.9-1.2C686.8,482.4,687.3,481.5,687.8,480.6"/>
						<path class="st7" d="M686.2,483.3l9.9,1.2c-0.7,1.1-1.6,2.2-2.5,3.2l-9.9-1.2C684.6,485.5,685.4,484.4,686.2,483.3"/>
						<path class="st8" d="M683.7,486.5l9.9,1.2c-0.8,0.9-1.7,1.7-2.6,2.6c-4,3.5-7.9,5.1-11.7,4.6l-9.9-1.2
							c3.8,0.5,7.7-1.1,11.7-4.6C682,488.3,682.9,487.4,683.7,486.5"/>
					</g>
				</g>
				<g>
					<path class="st20" d="M673.6,208.8c2.3,0.9,4.7,2.4,7.1,4.2c3.3,2.6,6,5.6,8,9.2c2,3.6,2.5,7.4,1.5,11.5
						c-0.5,1.9-1.8,4.2-3.8,7.1L539.9,409.3l68,18.1l17-65.2c1.6-6,5.2-9.5,11-10.7c5.7-1.2,11.7-0.9,17.9,0.7
						c1.8,0.5,3.6,1.1,5.3,1.8c3.9,1.6,7.5,3.8,10.6,6.5c4.4,3.9,5.9,8.8,4.3,14.8l-17,65.2l23.1,6.2c0.8,0.2,1.5,0.4,2.2,0.7
						c4.3,1.8,7,5,8.2,9.9c1.3,5.6,1.2,11.4-0.3,17.3c-1.5,5.7-4.5,10.5-9,14.5c-4.5,4-8.9,5.4-13.2,4.3l-23.1-6.2l-15.9,60.9
						c-1.4,5.4-5,8.8-10.8,10.2c-5.8,1.5-11.8,1.4-18-0.3c-1.7-0.4-3.3-1-4.8-1.6c-4.1-1.7-7.8-4.1-11-7.1c-4.3-4.2-5.8-9-4.4-14.3
						l15.9-60.9l-113.3-30.2c-1-0.3-1.9-0.6-2.8-0.9c-3.8-1.6-6.6-4-8.4-7.3c-2.2-4.1-2.6-9-1.1-14.7c0.4-1.6,1.1-3.2,2-5
						c1-1.8,2.1-3.3,3.4-4.6l170.2-195.5c4.1-4.3,8.3-6.9,12.7-8c4.4-1,8.6-1,12.6,0.1C671.9,208.1,672.8,208.4,673.6,208.8z"/>
				</g>
			</g>
		</g>
	</g>
	<path class="st21" d="M534.3,440.7c0,0,11.7,5.8,19.2,3.4c16-5,12.3-34.6,10.6-46.4c-1.7-11.8-11.2-15.9-11.2-15.9s-4.1-3.4-16.7-2
		c-12.6,1.4-16.3,10.8-15.9,16.9s0.4,13,1.3,17.9s4.8,19.1,5.2,23.7c0.4,4.6,1.1,11,1.1,11l24.5,3.6c0,0-0.1-3.5,1-8.9"/>
	<path class="st22" d="M552.8,447c0,0-16.2,2-19.2-8.6c0,0,5.3,6.4,19.8,4.5"/>
	<polygon class="st23" points="579.5,486.9 593.1,484.3 595.7,474.2 575.6,468.8 567.9,469.8 	"/>
	<path class="st24" d="M558.4,371.7c16.1,2.3,15.9,28.2,16.4,33.4c0.5,5.2,1.7,4.2,4.6,9.1s0.7,14.2,1,17.1c0.3,2.9,4.2,4.4,7.2,9.9
		s-1.8,11.1,0.2,15.5c0.6,1.3,1.4,2.2,2.2,2.9c1.8,1.4,1.4,4.3-0.8,5.3c-2.6,1.2-5.2,1.6-6.2,1.6c-0.1,0-0.2,0-0.3,0
		c-1.5-0.4-3.1,0.2-3.8,1.6c-1.9,3.8-6.6,5.7-9.5,6.5c-1.5,0.4-3.1-0.3-3.7-1.8l-7-16c-0.4-1-1.3-1.6-2.3-1.8l-1.7-0.3
		c-1.6-0.3-2.7-1.7-2.6-3.2l0.3-5.1c0.1-1.1,0.8-2.1,1.7-2.6c14.1-7,10.9-32,9.3-44.4c-1.4-11.1-6.8-13.1-8.1-13.8
		c-0.2-0.1-3.4-3.3-2.6-5c0.3-0.7-2.1-2.8-1.6-6.3C551.7,370.1,556.4,371.5,558.4,371.7z"/>
	<path class="st24" d="M555.7,385.1c-0.8,7-12.6,9.7-15.7,12.5s-0.2,8.8-6.8,15s2.4,11.7-3.1,25.2c-2.7,6.8-2.9,11.2-2.4,13.9
		c0.5,2.4-1.6,4.5-3.9,4c-10.5-2.1-28.6-14.4-34.1-18.2c-1.2-0.8-1.7-2.4-1.3-3.8c1.5-4.7,7.2-9.4,8.4-11c1.4-2-1.9-8,0.5-12.1
		c2.4-4.1,6.6-3.3,9-5.5c2.4-2.3-0.9-9.7,3.7-16.6c5-7.6,14.5-7.3,17.4-8.9c2.9-1.6,3.9-11.7,20.4-10.2
		C547.9,369.4,557.4,368.8,555.7,385.1z"/>
	<g>
		<path class="st25" d="M549.1,404.8c2.3,2.9,4,6.1,5.5,9.5c0.8,1.9,1.7,3.9,1.9,6.1c0.1,1-1.2,1.6-2,1.7c-1,0.1-1.9-0.1-2.8-0.4
			c-0.1,0,0-0.1,0-0.1c1.3,0.2,4.7,0.4,4-1.8C554.2,414.7,551,409.5,549.1,404.8L549.1,404.8z"/>
	</g>
	<circle class="st26" cx="548.2" cy="430.3" r="2.3"/>
	<g>
		<path class="st25" d="M546,427.4c1.7,2.1,2.7,3.5,5.2,4.4c0,0,0,0.1,0,0.1c-1.3,0.1-2.6-0.2-3.6-1.1
			C546.7,429.8,546.2,428.6,546,427.4C545.9,427.3,546,427.3,546,427.4L546,427.4z"/>
	</g>
	<g>
		<path class="st27" d="M538,406.8c1-3.3,5.9-4.3,8-1.7c0,0,0,0.1,0,0.1C543.3,403.9,540,404.6,538,406.8
			C538,406.9,537.9,406.9,538,406.8L538,406.8z"/>
	</g>
	<g>
		<path class="st27" d="M554.6,404.5c1-3.2,5.9-3.2,7.4-0.3c0.1,0.2-0.6-0.3-0.9-0.4C559,402.6,556.3,402.8,554.6,404.5
			C554.6,404.6,554.5,404.6,554.6,404.5L554.6,404.5z"/>
	</g>
	<circle class="st25" cx="544.4" cy="412.4" r="1.2"/>
	<circle class="st25" cx="559.7" cy="410.9" r="1.2"/>
	<path class="st28" d="M545.8,417.5l-7.1,0.8c-2.3,0.3-4.3-1.4-4.6-3.7l-0.1-1.2c-0.3-2.3,1.4-4.3,3.7-4.6l7.1-0.8
		c2.3-0.3,4.3,1.4,4.6,3.7l0.1,1.2C549.7,415.2,548.1,417.3,545.8,417.5z"/>
	<path class="st28" d="M566.7,415.9l-7.1,0.7c-2.3,0.2-4.3-1.4-4.6-3.7l-0.1-1.2c-0.2-2.3,1.4-4.3,3.7-4.6l7.1-0.7
		c2.3-0.2,4.3,1.4,4.6,3.7l0.1,1.2C570.6,413.6,569,415.7,566.7,415.9z"/>
	<line class="st28" x1="549.2" y1="410" x2="554.8" y2="409.5"/>
	<path class="st21" d="M611.8,511.7c0,0,8.2-5.6,9.9-7.9c1.7-2.3,4.7-8.8,5.3-9.4c0.7-0.5,1.6-1.1,2.5-0.4s0.7,6,0,7.6
		c-0.7,1.6-3.5,6.4-3.3,7.5c0.1,1.1,16.7-0.3,26.3-1.6c0,0,2.3,0.1,1.9,1.6s-0.8,1.5-1.7,1.7s-14.6,3.7-14.8,4.4
		c-0.3,0.7-1.2,1.6,0.4,1.9c1.6,0.3,16.2,0.5,17.8,0.8c1.6,0.3,2,1.5,2,2.3c0,0.8-0.8,2-1.7,1.9c-0.9-0.1-19.4-0.3-19.4-0.3
		c-0.3,0-0.7,0.7-0.1,1c0.3,0.2,18.6,0.2,19.1,0.3c1,0.3,1.2,1.8,0.4,2.5c-0.6,0.5-15.9,1-19.1,1.1c-0.4,0-0.8,0.3-0.9,0.7
		c-0.1,0.4-0.1,0.9,0.2,1.4c0.7,1,11.2,3.8,12.2,4.4c0.8,0.5,0.9,2.2,0.4,2.5c-0.8,0.6-14.4-1.9-17-2c-2.5-0.1-18.9-1.2-18.9-1.2
		L611.8,511.7z"/>
	<g>
		<path class="st27" d="M553.7,377.1c-10.2-0.6-16.2,1.8-18.3,12.4c-0.2,0.7-0.8,2-1.6,2.3c-4.2,1.9-8.8,2.5-12.9,4.2
			c-1.3,0.6-2.7,1.1-3.4,2.3c-1.7,4.4-1.1,9.3-2.3,13.9c-0.8,4.2-5,3.9-7.8,5.7c-3.7,2.4-2.8,7.1-2.3,11c0.1,1.1,0.2,2.5-0.7,3.4
			c-3.4,3.9-8.3,7.4-8.4,13c0,0-0.1,0-0.1,0c-0.1-1.1,0.1-2.1,0.5-3.2c1.1-3,3.3-5.5,5.4-7.8c0.7-0.8,1.5-1.5,2.1-2.4
			c0.8-0.8,0.6-2,0.5-3c-0.7-4-1.6-9.2,2.4-11.8c2.5-1.8,6.8-1.6,7.4-5.2c2.6-15.6-1.5-15.1,15.4-19.7c1.5-0.5,3.2-0.7,4.4-1.7
			c1.3-2.3,1.4-5.1,2.8-7.4C539.7,377.1,547.8,376,553.7,377.1L553.7,377.1z"/>
	</g>
	<g>
		<path class="st27" d="M571.4,411.3c2.6,4,2,9.2,1.8,13.7c-0.1,2.3-0.5,4.1,1.4,5.8c3.2,3.2,7.3,7.4,6.7,12.4
			c-0.3,4.5-3.3,9.2,0.5,12.8c0.3,0.3,0.9,0.8,1.2,1.4c0.3,0.6,0.4,1.3,0.3,1.9c-0.1,1.3-1,2.4-2.1,2.7l0-0.1
			c1.1-0.5,1.8-1.5,1.9-2.7c0.1-1.2-0.6-2.2-1.5-2.9c-4.1-3.6-1.4-8.8-1-13.2c0.4-4.8-3.4-8.5-6.4-11.7c-0.8-0.9-1.5-1.8-1.7-3
			c-0.1-1.2,0.1-2.3,0.1-3.5C572.9,420.4,573.3,415.4,571.4,411.3L571.4,411.3z"/>
	</g>
	<path class="st29" d="M584.3,607c-1.6,5.2-1,22.2-1,22.2c7.5,48.5,5.9,78.5,5.9,78.5L524.7,809l-22.5-13.4l41-89.9l1-15.3
		c-21.8-60.3-22.3-89.3-22.3-89.3l81.6-5.5c15.6,26.7,41,77.2,47.2,89.6c6.2,12.4,3.9,18.2,3.9,18.2l-34.9,103.9l-25.1-1.6
		l22.8-99.4c-6.2-1.6-6.2-7.2-6.2-7.2L573.5,661"/>
	<g>
		<g>
			<path class="st23" d="M587.9,543.1l18.1,53.3l-84.7,6.5c0,0,1.1-31.8,4.4-43.3c3.3-11.6,4.4-14,3.9-16.6
				c-0.5-2.6-5.2-14.1-7.2-21.1"/>
			<path class="st23" d="M588.3,543.1c-24.2,4.8-48.6,6.6-48.6,6.6c-42.3-66.5-43.7-71.4-12.1-100.8l30.9,5c0,0,27.2,39.3,28.4,43.1
				c0,0,1,2.5,1.5,15"/>
			<path class="st23" d="M588.3,543.1c9.5-1.9,19.1-4.3,27.1-7.2l-2.1-28.9l-24.8,5.5"/>
			<path class="st30" d="M549.3,530.8c1.3-6.3,5.4-10.9,5.4-10.9l33.2-7.4"/>
			<line class="st30" x1="533.9" y1="479.8" x2="554.8" y2="519.9"/>
		</g>
		<g>
			
				<ellipse transform="matrix(0.9827 -0.1854 0.1854 0.9827 -81.8521 105.4686)" class="st21" cx="523.1" cy="490.5" rx="12.4" ry="5.1"/>
			
				<ellipse transform="matrix(0.9827 -0.1854 0.1854 0.9827 -84.1668 107.0794)" class="st21" cx="530.6" cy="503.7" rx="12.4" ry="5.1"/>
			
				<ellipse transform="matrix(0.9827 -0.1854 0.1854 0.9827 -86.4174 108.6418)" class="st21" cx="537.8" cy="516.5" rx="12.4" ry="5.1"/>
		</g>
		<line class="st23" x1="522.4" y1="521.8" x2="539.7" y2="549.6"/>
		<path class="st31" d="M530.2,536.5l4.6,6.4c3,4.2,8.1,6.5,13.2,6c10-1,27-2.9,40.1-5.9"/>
		<path class="st32" d="M529.5,450c0,0,23.2,47.1,40.4,56.4c0,0,0.9-20.2-11.7-51.9"/>
		<path class="st33" d="M572.9,514.3l-0.6,0.2c-1.5,0.5-3-0.3-3.5-1.8l-0.8-2.6c-0.5-1.5,0.3-3,1.8-3.5l0.6-0.2
			c1.5-0.5,3,0.3,3.5,1.8l0.8,2.6C575.1,512.3,574.3,513.9,572.9,514.3z"/>
		<line class="st34" x1="570.1" y1="509.5" x2="571.1" y2="512.3"/>
		<line class="st34" x1="571.9" y1="509.2" x2="572.2" y2="510.2"/>
	</g>
	<path class="st35" d="M584.9,615.4c0,0-1.3,12.2,0.7,29.7s3.1,30.7,3.1,30.7"/>
	<g>
		<path class="st33" d="M510.1,490.6c-0.3-2.5,2.5-4.1,4.4-5.2c5.1-2.5,14-4.3,19-0.9c0.5,0.4,0.9,0.9,0.9,1.5
			c-0.4-1.2-1.6-1.7-2.6-2C527.4,482.4,510.4,485,510.1,490.6L510.1,490.6z"/>
	</g>
	<g>
		<path class="st33" d="M517.9,504.2c-0.3-2.5,2.5-4.1,4.4-5.2c5.1-2.5,14-4.3,19-0.9c0.5,0.4,0.9,0.9,0.9,1.5
			c-0.4-1.2-1.6-1.7-2.6-2C535.3,496,518.3,498.6,517.9,504.2L517.9,504.2z"/>
	</g>
	<g>
		<path class="st33" d="M525.1,517.2c-0.3-2.5,2.5-4.1,4.4-5.2c5.1-2.5,14-4.3,19-0.9c0.5,0.4,0.9,0.9,0.9,1.5
			c-0.4-1.2-1.6-1.7-2.6-2C542.5,509.1,525.5,511.6,525.1,517.2L525.1,517.2z"/>
	</g>
	<line class="st31" x1="573.3" y1="475" x2="580.9" y2="486.1"/>
	<g>
		<path class="st36" d="M701.5,465.4c-0.2,0.2-0.4,0.3-0.6,0.4c-0.5,0.3-1.5,0.8-2.1,0.6c-0.9-0.2-1.9-1.2-1.7-1.7s1-2.3,1-2.3
			s0-1-0.8-0.6c-0.8,0.4-3.1,1.3-5,2c-1.6,0.6-2.9,0.5-3.5-0.1c0,0,0-0.1-0.1-0.1c-0.5-0.6-1.2-1.2-2-1.3c-0.2,0-0.3-0.1-0.5-0.2
			c-0.9-0.6-1.9-1.9-1.7-2.3c0.2-0.4,0-1.2,0.6-1.8c0.6-0.6,0.6-1,0.6-1s-4.3-3-2.5-5c1-1.2,3.4-2.9,5.1-4.2
			c0.9-0.7,1.2-1.8,1.1-2.9c0-0.1,0-0.1,0-0.2c0.1-0.7,2.6-5.8,3.5-6.2c0.9-0.5,1.5-0.7,2.1-0.5c0.6,0.2,2,2,1.9,2.5s-0.8,1.6-1.3,2
			c-0.5,0.4,0.7,0.2,1.2,0.7c0.5,0.4,2.7,2.9,2.6,3.3c0,0.5-1,1.8-1,1.8s1.6-0.3,2.2,0.1c0.6,0.4,2,1.7,2.4,2.7c0.4,1-0.2,2-0.5,2.3
			c-0.3,0.4,0.5,0,1.1,0.3c0.7,0.3,1.7,2.2,2,2.7c0.3,0.5,1.4,1,0.7,2.1c-0.6,1-2.9,4.3-3.4,5.1c-0.1,0.1-0.2,0.2-0.3,0.4
			L701.5,465.4z"/>
		<g>
			<path class="st22" d="M695.7,443.3l-5.1,3.1l4.6-3.9C695.6,442,696.3,442.9,695.7,443.3L695.7,443.3z"/>
		</g>
		<g>
			<path class="st22" d="M699.2,448.3l-13.5,8.7l12.9-9.6C699.2,447.1,699.8,448,699.2,448.3L699.2,448.3z"/>
		</g>
		<g>
			<path class="st22" d="M702.6,453.5l-14,7.9l13.5-8.8C702.6,452.3,703.2,453.2,702.6,453.5L702.6,453.5z"/>
		</g>
		<g>
			<path class="st22" d="M697.6,461.5l7.3-5.5l-6.6,6.3C697.8,462.7,697.1,461.9,697.6,461.5L697.6,461.5z"/>
		</g>
	</g>
	<g>
		<g>
			<path class="st37" d="M561.5,806.3"/>
		</g>
	</g>
	<g>
		<path class="st23" d="M509.9,774.7c0,0-9.9,26-13,30.1c-2.2,3-7.7,11.3-10.5,15.6c-1,1.5-0.5,3.5,1.1,4.3l51.1,28.4
			c3.4,1.9,7-0.4,8.2-4c7.8-23-14.5-26.2-22.2-40.2l15.7-20L509.9,774.7z"/>
		<g>
			<g>
				<g>
					<path class="st29" d="M519.1,806.7c1.6,1.5,3.7,1.4,5.6,2.4c0,0,0,0.1,0,0.1c-1.1,0.5-2.3,0.3-3.2-0.3
						C520.4,808.4,519.6,807.7,519.1,806.7C519,806.8,519.1,806.7,519.1,806.7L519.1,806.7z"/>
				</g>
				<g>
					<path class="st29" d="M521,803.9c1.6,1.5,3.7,1.4,5.6,2.4c0,0,0,0.1,0,0.1c-1.1,0.5-2.3,0.3-3.2-0.3
						C522.4,805.6,521.6,804.9,521,803.9L521,803.9L521,803.9z"/>
				</g>
				<g>
					<path class="st29" d="M523.8,800.9c1.6,1.5,3.7,1.4,5.6,2.4c0,0,0,0.1,0,0.1c-1.1,0.5-2.3,0.3-3.2-0.3
						C525.2,802.6,524.3,801.8,523.8,800.9C523.7,800.9,523.8,800.9,523.8,800.9L523.8,800.9z"/>
				</g>
				<g>
					<path class="st29" d="M526.4,797.4c1.6,1.5,3.7,1.4,5.6,2.4c0,0,0,0.1,0,0.1c-1.1,0.5-2.3,0.3-3.2-0.3
						C527.7,799,526.9,798.3,526.4,797.4L526.4,797.4L526.4,797.4z"/>
				</g>
				<g>
					<path class="st29" d="M529.1,794.1c1.6,1.5,3.7,1.4,5.6,2.4c0,0,0,0.1,0,0.1c-1.1,0.5-2.3,0.3-3.2-0.3
						C530.5,795.8,529.7,795,529.1,794.1C529.1,794.1,529.1,794.1,529.1,794.1L529.1,794.1z"/>
				</g>
				<g>
					<path class="st29" d="M531.2,791c1.6,1.5,3.7,1.4,5.6,2.4c0,0,0,0.1,0,0.1c-1.1,0.5-2.3,0.3-3.2-0.3
						C532.6,792.7,531.8,792,531.2,791L531.2,791L531.2,791z"/>
				</g>
			</g>
			<circle class="st38" cx="531.4" cy="791.3" r="0.9"/>
			<circle class="st38" cx="523.9" cy="801" r="0.9"/>
			<circle class="st38" cx="521" cy="804" r="0.9"/>
			<circle class="st38" cx="518.9" cy="806.9" r="0.9"/>
			<circle class="st38" cx="526.2" cy="797.5" r="0.9"/>
			<circle class="st38" cx="529.1" cy="794.2" r="0.9"/>
		</g>
	</g>
	<g>
		<path class="st23" d="M593.9,783.2c0,0-1.3,27.8-2.9,32.7c-1.2,3.5-3.7,13.1-5.1,18.1c-0.5,1.7,0.6,3.4,2.4,3.8l57.4,11
			c3.8,0.7,6.5-2.5,6.6-6.4c0.3-24.3-21.9-20.4-33.6-31.2l8.7-23.9L593.9,783.2z"/>
		<g>
			<g>
				<g>
					<path class="st29" d="M612.6,810.7c2,1,4,0.2,6,0.6c0,0,0,0.1,0,0.1c-0.9,0.8-2.1,1-3.2,0.7
						C614.4,811.9,613.4,811.5,612.6,810.7L612.6,810.7L612.6,810.7z"/>
				</g>
				<g>
					<path class="st29" d="M613.6,807.5c2,1,4,0.2,6,0.6c0,0,0,0.1,0,0.1c-0.9,0.8-2.1,1-3.2,0.7
						C615.4,808.6,614.4,808.2,613.6,807.5L613.6,807.5L613.6,807.5z"/>
				</g>
				<g>
					<path class="st29" d="M615.3,803.7c2,1,4,0.2,6,0.6c0,0,0,0.1,0,0.1c-0.9,0.8-2.1,1-3.2,0.7
						C617.1,804.8,616.1,804.4,615.3,803.7L615.3,803.7L615.3,803.7z"/>
				</g>
				<g>
					<path class="st29" d="M616.6,799.5c2,1,4,0.2,6,0.6c0,0,0,0.1,0,0.1c-0.9,0.8-2.1,1-3.2,0.7
						C618.5,800.7,617.4,800.3,616.6,799.5L616.6,799.5L616.6,799.5z"/>
				</g>
				<g>
					<path class="st29" d="M618.2,795.6c2,1,4,0.2,6,0.6c0,0,0,0.1,0,0.1c-0.9,0.8-2.1,1-3.2,0.7C620.1,796.7,619,796.3,618.2,795.6
						L618.2,795.6L618.2,795.6z"/>
				</g>
				<g>
					<path class="st29" d="M619.3,792c2,1,4,0.2,6,0.6c0,0,0,0.1,0,0.1c-0.9,0.8-2.1,1-3.2,0.7C621.1,793.2,620.1,792.8,619.3,792
						L619.3,792L619.3,792z"/>
				</g>
			</g>
			<circle class="st38" cx="619.5" cy="792.2" r="0.9"/>
			<circle class="st38" cx="615.4" cy="803.8" r="0.9"/>
			<circle class="st38" cx="613.6" cy="807.5" r="0.9"/>
			<circle class="st38" cx="612.5" cy="811" r="0.9"/>
			<circle class="st38" cx="616.6" cy="799.7" r="0.9"/>
			<circle class="st38" cx="618.3" cy="795.7" r="0.9"/>
		</g>
	</g>
</g>
<path class="st36" d="M850.9,412.4l-4.2-26.9c0,0-16.7,2-7-16.5c0,0-8.9-19.2-2.6-31.1c6.2-11.9,27.2-13.4,29.8-13.2
	c2.5,0.3,19.9,2.5,23.1,18.5s8.5,55.5-11.8,59.1c0,0,1.5,3.7,15.2,5.3C893.3,407.6,882.3,428.6,850.9,412.4z"/>
<circle class="st23" cx="864.5" cy="364.3" r="1.8"/>
<circle class="st23" cx="884.6" cy="360.6" r="1.7"/>
<g>
	<path class="st25" d="M873.1,355.8c2.4,3.2,4.4,6.8,6.2,10.4c0.9,2,1.9,4.2,2.4,6.3c0,0,0.1,0.9,0.1,0.6c0.1,1.3-1.8,1.4-2.7,1.4
		c-0.9,0-1.7-0.1-2.5-0.2c-0.1,0-0.1-0.1,0-0.1c1.4-0.1,2.9,0,4.2-0.6c0.2-0.1,0.4-0.2,0.3-0.4c-0.8-3.1-2.5-5.9-3.8-8.8
		C875.9,361.6,874.5,358.7,873.1,355.8C873,355.8,873,355.8,873.1,355.8L873.1,355.8z"/>
</g>
<path class="st39" d="M878.2,402.3c0,0-5.8,1.4-13.8-2.2c0,0,5.5,6.8,16.7,4.5C881.1,404.6,880.2,404.3,878.2,402.3z"/>
<path class="st40" d="M854.6,382.2c8.6,5.2,31.8,17.7,38.4-10.4c0,0,0.3,25.6-11.1,29.5c-10.7,3.7-26.2-1.4-30.8-18.1
	C850.7,382,853.5,381.6,854.6,382.2z"/>
<path class="st40" d="M854.8,382.7c0,0-3.1-36.9-6.7-43.1c0,0,6.2-9.1,12.7-9.6s14.7,11.8,19.5,12.5c4.8,0.7,13.3,0.8,15.9-4.1
	c2.7-4.9,1.3-15-6.9-16.2c0,0-2.3-1-7.7,0.5c0,0-21.3-12.2-34.4,5.5c0,0-22.6,6.4-7.9,40.3c0,0,5.7-3.3,11.6,14.2L854.8,382.7z"/>
<path class="st28" d="M892.7,551c0,0,6.3-3.3,8.9-3.7c0,0,3.5-3.7,3.7-5.9c0,0,1.1-1.1,3.3,0.4c2.2,1.5,2,4.3,0.4,6.7
	c-1.5,2.4-6.3,6.5-4.1,10.2s21.1,15.6,21.9,17.2c0.9,1.5-0.2,3.7-7.6,3.9c-7.4,0.2-16.7,0-16.7,0l-19.5-10.3"/>
<path class="st28" d="M1041.5,547.7c0,0-3.8,2.2-2.5,5.3c1.3,3.1,0.4,5.5,2,5.7c1.5,0.2,2,1.1,3.9,0s5.8-4.5,5.8-4.5"/>
<g>
	<path class="st25" d="M869.2,378c1.2,1.3,2.4,2.4,3.9,3.1c1,0.5,1.9,0.8,2.9,1.3c0,0,0.1,0,0,0.1C873.1,382.8,869.9,381,869.2,378
		C869.1,378,869.1,377.9,869.2,378L869.2,378z"/>
</g>
<g>
	<path class="st25" d="M873.1,355.8c2.4,3.3,4.4,6.8,6.2,10.5c1,2.3,2.2,4.5,2.6,7c-0.3,1.8-4,1.2-5.3,1.1c-0.1,0-0.1-0.1,0-0.1
		c0.8-0.1,5.1,0,4.5-1.3C879,367.1,875.4,361.2,873.1,355.8L873.1,355.8z"/>
</g>
<path class="st23" d="M851.5,834.7l-1,18.9c0,0,25.1,27.1,29.5,27.9c4.4,0.8,7,2.4,11.4-0.8s-11.9-23.7-12.5-27.5
	c-0.6-3.8-1.8-18.5-1.8-18.5H851.5z"/>
<g>
	<path class="st23" d="M974.8,796.9l0.3,5.8c0.1,1.3,1.1,2.3,2.4,2.5c9.8,1,18.4,7,23.4,11.4c1.9,1.6,0.7,4.7-1.8,4.7l-47.7-0.3
		c-3.6,0-6.5-3-6.5-6.6l0.1-18.5c0-1.5,1.3-2.7,2.8-2.6l24.3,1.2C973.6,794.5,974.7,795.6,974.8,796.9z"/>
	<circle class="st41" cx="971.2" cy="797.5" r="1.4"/>
	<circle class="st41" cx="971.3" cy="803.1" r="1.4"/>
	<g>
		<path class="st27" d="M971,797.5c1.4-0.6,2.8-0.6,4.2,0.1C973.8,798.3,972.4,798.2,971,797.5L971,797.5z"/>
	</g>
	<g>
		<path class="st27" d="M971,803.2c1.4-0.6,2.8-0.6,4.2,0.1C973.8,804,972.4,804,971,803.2L971,803.2z"/>
	</g>
</g>
<path class="st23" d="M969.5,556.5l22.4,102.9c0,18.2-13.4,137.9-13.4,137.9l-37.8-1.3l12.4-115.4l-1.3-14l-21.5-59.3
	c0,0-6.8,42-11.1,66.1C915,697.4,880.8,835,880.8,835l-32.6,1c0-26.4,30.1-167.3,30.1-167.3l-6.4-91.7l2.5-7.3
	C874.4,569.6,908.1,548.8,969.5,556.5z"/>
<path class="st23" d="M850.4,412.1c0,0-12.4,8.1-18.4,16c-6,7.9-11.9,16.5-1.5,41.6c10.4,25.1,36.4,91.9,36.4,91.9l8.7,8.5l7-0.4
	l22.9-9.6l63.6-3.4l-18.4-52.3c0,0,47,39.7,80.4,52l17.3-19c0,0-67.8-47-98.8-91.5c0,0-17.9-34.3-56.9-39
	C892.8,406.9,880.9,425.7,850.4,412.1z"/>
<line class="st31" x1="855.5" y1="458.2" x2="892.5" y2="550.6"/>
<line class="st31" x1="935.4" y1="462.1" x2="950.8" y2="503.8"/>
<g>
	<path class="st27" d="M865,840.6c4.3,0.3,8.5,0.2,12.8-0.2C873.8,842.2,869,842.3,865,840.6L865,840.6z"/>
</g>
<circle class="st41" cx="864.9" cy="840.6" r="1.4"/>
<g>
	<path class="st27" d="M865,846.1c4.3,0.3,8.5,0.2,12.8-0.2C873.8,847.7,869,847.8,865,846.1L865,846.1z"/>
</g>
<circle class="st41" cx="864.9" cy="846.2" r="1.4"/>
<g>
	<path class="st27" d="M865,852.1c4.3,0.3,8.5,0.2,12.8-0.2C873.8,853.7,869,853.8,865,852.1L865,852.1z"/>
</g>
<circle class="st41" cx="864.9" cy="852.2" r="1.4"/>
<g>
	<path class="st42" d="M857.1,354c1.5-3.1,6.2-3.4,8.4-1c0,0,0,0.1,0,0.1C862.8,352,859.5,352.1,857.1,354
		C857.1,354.1,857.1,354.1,857.1,354L857.1,354z"/>
</g>
<g>
	<path class="st42" d="M878.3,350.9c1.5-3.1,6.2-3.4,8.4-1c0,0,0,0.1,0,0.1C884,348.9,880.6,349,878.3,350.9
		C878.3,351,878.3,350.9,878.3,350.9L878.3,350.9z"/>
</g>
<g>
	<path class="st39" d="M841,372.1c-0.6,4.7-1.6,7.6,3.8,9.3c0.1,0,0.1,0.1,0,0.1c-4,0-6-2.5-5-6.4C840.1,374,840.5,373,841,372.1
		C841,372,841.1,372,841,372.1L841,372.1z"/>
</g>
<g>
	<path class="st39" d="M846.6,385.4c-0.7-1.8-1.2-3.7-1.2-5.7C846.1,381.5,846.5,383.4,846.6,385.4L846.6,385.4z"/>
</g>
<g>
	<g>
		<g class="st0">
			<g class="st0">
				<defs>
					<path id="SVGID_00000079446613746233482820000014726519543882806917_" class="st0" d="M993.3,551.1l-10.7,2.8
						c-4.6,1.2-9.7,1.7-15.2,1.3c-2.3-0.1-4.8-0.4-7.3-0.9c-14-2.5-24.3-8.4-30.8-17.8c-6.5-9.4-8.4-22.6-5.8-39.4l10.7-2.8
						c-2.6,16.9-0.7,30,5.8,39.4c6.5,9.4,16.8,15.4,30.8,17.8c2.5,0.4,4.9,0.7,7.3,0.9C983.6,552.8,988.7,552.3,993.3,551.1z"/>
				</defs>
				<clipPath id="SVGID_00000119085326035413450710000003676758324076988301_">
					<use xlink:href="#SVGID_00000079446613746233482820000014726519543882806917_"  style="overflow:visible;"/>
				</clipPath>
				<g style="clip-path:url(#SVGID_00000119085326035413450710000003676758324076988301_);enable-background:new    ;">
					<path class="st10" d="M923.6,497.1l10.7-2.8c-0.4,2.5-0.7,4.9-0.9,7.3l-10.7,2.8C922.9,502.1,923.2,499.6,923.6,497.1"/>
					<path class="st14" d="M922.7,504.4l10.7-2.8c-0.2,2.4-0.3,4.7-0.3,7l-10.7,2.8C922.4,509.1,922.5,506.8,922.7,504.4"/>
					<path class="st15" d="M922.4,511.4l10.7-2.8c0,2.1,0.1,4.1,0.3,6l-10.7,2.8C922.6,515.4,922.5,513.4,922.4,511.4"/>
					<path class="st16" d="M922.8,517.4l10.7-2.8c0.2,1.9,0.5,3.8,0.9,5.6l-10.7,2.8C923.3,521.2,923,519.3,922.8,517.4"/>
					<path class="st17" d="M923.7,523l10.7-2.8c0.5,2.1,1.1,4.2,1.8,6.1l-10.7,2.8C924.7,527.1,924.1,525.1,923.7,523"/>
					<path class="st44" d="M925.5,529.1l10.7-2.8c1,2.7,2.3,5.2,3.9,7.5c1.4,2.1,3,3.9,4.8,5.7l-10.7,2.8c-1.8-1.7-3.4-3.6-4.8-5.7
						C927.8,534.3,926.5,531.8,925.5,529.1"/>
					<path class="st17" d="M934.2,542.2l10.7-2.8c1.4,1.4,2.9,2.6,4.6,3.8l-10.7,2.8C937.1,544.9,935.6,543.6,934.2,542.2"/>
					<path class="st16" d="M938.8,546l10.7-2.8c1.3,0.9,2.6,1.7,4,2.5l-10.7,2.8C941.4,547.8,940,546.9,938.8,546"/>
					<path class="st15" d="M942.8,548.5l10.7-2.8c1.3,0.7,2.7,1.4,4.1,2l-10.7,2.8C945.5,549.9,944.1,549.3,942.8,548.5"/>
					<path class="st14" d="M946.9,550.6l10.7-2.8c1.5,0.6,3,1.2,4.5,1.7l-10.7,2.8C949.9,551.7,948.4,551.2,946.9,550.6"/>
					<path class="st10" d="M951.5,552.2l10.7-2.8c1.7,0.5,3.4,1,5.2,1.4l-10.7,2.8C954.9,553.3,953.1,552.8,951.5,552.2"/>
					<path class="st3" d="M956.7,553.7l10.7-2.8c1.1,0.3,2.3,0.5,3.5,0.7c0.9,0.2,1.8,0.3,2.7,0.4l-10.7,2.8
						c-0.9-0.1-1.8-0.3-2.7-0.4C959,554.2,957.8,553.9,956.7,553.7"/>
					<path class="st4" d="M962.9,554.8l10.7-2.8c1.6,0.2,3.1,0.4,4.6,0.5c0.4,0,0.7,0,1.1,0.1l-10.7,2.8c-0.4,0-0.7,0-1.1-0.1
						C965.9,555.2,964.4,555,962.9,554.8"/>
					<path class="st5" d="M968.5,555.3l10.7-2.8c1.8,0.1,3.5,0.1,5.1,0l-10.7,2.8C972,555.4,970.3,555.4,968.5,555.3"/>
					<path class="st6" d="M973.6,555.3l10.7-2.8c1.7-0.1,3.3-0.3,4.9-0.5l-10.7,2.8C977,555.1,975.3,555.2,973.6,555.3"/>
					<path class="st7" d="M978.6,554.8l10.7-2.8c1.4-0.2,2.8-0.5,4.1-0.9l-10.7,2.8C981.3,554.3,980,554.6,978.6,554.8"/>
				</g>
			</g>
			<g>
				<polygon class="st14" points="941,385.6 951.7,382.8 934.3,494.3 923.6,497.1 				"/>
			</g>
			<g class="st0">
				<defs>
					<path id="SVGID_00000142858115328971155820000008262183122861044614_" class="st0" d="M970.8,344.4l10.7-2.8
						c-4.5,1.2-8.6,3.2-12.3,5.9c-9,6.7-14.9,18.5-17.5,35.3l-10.7,2.8c2.6-16.9,8.5-28.6,17.5-35.3
						C962.2,347.6,966.3,345.6,970.8,344.4z"/>
				</defs>
				<clipPath id="SVGID_00000016042316537145093330000007200838572547283354_">
					<use xlink:href="#SVGID_00000142858115328971155820000008262183122861044614_"  style="overflow:visible;"/>
				</clipPath>
				<g style="clip-path:url(#SVGID_00000016042316537145093330000007200838572547283354_);enable-background:new    ;">
					<path class="st8" d="M970.8,344.4l10.7-2.8c-4.5,1.2-8.6,3.2-12.3,5.9c-2.3,1.7-4.4,3.8-6.3,6.2l-10.7,2.8
						c1.9-2.4,4-4.5,6.3-6.2C962.2,347.6,966.3,345.6,970.8,344.4"/>
					<path class="st7" d="M952.2,356.5l10.7-2.8c-1.1,1.4-2.1,2.8-3,4.4l-10.7,2.8C950.1,359.3,951.1,357.8,952.2,356.5"/>
					<path class="st6" d="M949.2,360.9l10.7-2.8c-0.8,1.4-1.6,2.9-2.4,4.5l-10.7,2.8C947.5,363.8,948.3,362.3,949.2,360.9"/>
					<path class="st5" d="M946.8,365.4l10.7-2.8c-0.7,1.6-1.4,3.3-2.1,5.1l-10.7,2.8C945.4,368.7,946.1,367,946.8,365.4"/>
					<path class="st4" d="M944.7,370.5l10.7-2.8c-0.7,1.9-1.3,4-1.9,6.1l-10.7,2.8C943.4,374.4,944,372.4,944.7,370.5"/>
					<path class="st3" d="M942.9,376.6l10.7-2.8c-0.6,2.5-1.2,5.1-1.6,7.8l-10.7,2.8C941.7,381.7,942.2,379.1,942.9,376.6"/>
					<path class="st10" d="M941.2,384.4l10.7-2.8c-0.1,0.4-0.1,0.8-0.2,1.2l-10.7,2.8C941.1,385.2,941.2,384.8,941.2,384.4"/>
				</g>
			</g>
			<g class="st0">
				<defs>
					<path id="SVGID_00000011020001726736537270000012250448475534522788_" class="st0" d="M1011,586.3l-10.7,2.8
						c13.1-3.5,24.2-10.7,33.3-21.5c9.3-11.2,15.6-27.2,18.9-47.9l10.7-2.8c-3.2,20.7-9.5,36.7-18.9,47.9
						C1035.3,575.7,1024.2,582.8,1011,586.3z"/>
				</defs>
				<clipPath id="SVGID_00000080176703494729140840000016896916792524099488_">
					<use xlink:href="#SVGID_00000011020001726736537270000012250448475534522788_"  style="overflow:visible;"/>
				</clipPath>
				<g style="clip-path:url(#SVGID_00000080176703494729140840000016896916792524099488_);enable-background:new    ;">
					<path class="st10" d="M1052.5,519.8l10.7-2.8c-0.1,0.7-0.2,1.3-0.3,2l-10.7,2.8C1052.3,521.1,1052.4,520.5,1052.5,519.8"/>
					<path class="st3" d="M1052.2,521.8l10.7-2.8c-0.7,4.3-1.6,8.5-2.6,12.4l-10.7,2.8C1050.6,530.2,1051.4,526.1,1052.2,521.8"/>
					<path class="st4" d="M1049.6,534.2l10.7-2.8c-0.9,3.4-1.9,6.7-3,9.8l-10.7,2.8C1047.7,540.9,1048.7,537.6,1049.6,534.2"/>
					<path class="st5" d="M1046.6,544l10.7-2.8c-1,2.9-2.1,5.6-3.3,8.2l-10.7,2.8C1044.5,549.6,1045.6,546.8,1046.6,544"/>
					<path class="st6" d="M1043.3,552.2l10.7-2.8c-1.2,2.6-2.5,5-3.8,7.3l-10.7,2.8C1040.8,557.2,1042.1,554.7,1043.3,552.2"/>
					<path class="st7" d="M1039.4,559.5l10.7-2.8c-1.5,2.5-3.2,4.9-4.9,7.1l-10.7,2.8C1036.3,564.4,1037.9,562,1039.4,559.5"/>
					<path class="st8" d="M1034.5,566.6l10.7-2.8c-0.3,0.4-0.6,0.8-0.9,1.1c-9,10.8-20.1,18-33.3,21.5l-10.7,2.8
						c13.1-3.5,24.2-10.7,33.3-21.5C1033.9,567.3,1034.2,566.9,1034.5,566.6"/>
				</g>
			</g>
			<g>
				<polygon class="st14" points="1069.9,408.3 1080.6,405.4 1063.2,517 1052.5,519.8 				"/>
			</g>
			<g class="st0">
				<defs>
					<path id="SVGID_00000006696240824288470070000001253071060945243800_" class="st0" d="M953.4,309.1l10.7-2.8
						c0.4-0.1,0.8-0.2,1.2-0.3c9.6-2.4,19.8-3.2,30.5-2.5c4.5,0.3,9,0.8,13.6,1.7c15.8,2.8,29.7,8.1,41.7,16
						c12,7.9,20.7,18.7,26.2,32.6l-10.7,2.8c-5.4-13.8-14.2-24.7-26.2-32.6c-12-7.9-25.9-13.2-41.7-16c-4.6-0.8-9.2-1.4-13.6-1.7
						c-10.7-0.7-20.9,0.2-30.5,2.5C954.2,308.9,953.8,309,953.4,309.1z"/>
				</defs>
				<clipPath id="SVGID_00000163071262253709448140000000751078973749801637_">
					<use xlink:href="#SVGID_00000006696240824288470070000001253071060945243800_"  style="overflow:visible;"/>
				</clipPath>
				<g style="clip-path:url(#SVGID_00000163071262253709448140000000751078973749801637_);enable-background:new    ;">
					<path class="st7" d="M953.4,309.1l10.7-2.8c0.4-0.1,0.8-0.2,1.2-0.3c2.5-0.6,5-1.1,7.6-1.5l-10.7,2.8c-2.6,0.4-5.1,0.9-7.6,1.5
						C954.2,308.9,953.8,309,953.4,309.1"/>
					<path class="st6" d="M962.2,307.3l10.7-2.8c3.4-0.6,7-0.9,10.5-1.1l-10.7,2.8C969.2,306.4,965.6,306.8,962.2,307.3"/>
					<path class="st5" d="M972.7,306.2l10.7-2.8c3.4-0.2,6.8-0.2,10.3,0l-10.7,2.8C979.6,306,976.1,306,972.7,306.2"/>
					<path class="st4" d="M983,306.2l10.7-2.8c0.7,0,1.4,0.1,2.1,0.1c2.9,0.2,5.7,0.5,8.7,0.9l-10.7,2.8c-2.9-0.4-5.8-0.7-8.7-0.9
						C984.4,306.3,983.7,306.2,983,306.2"/>
					<path class="st3" d="M993.8,307.2l10.7-2.8c1.6,0.2,3.3,0.5,5,0.8c2.2,0.4,4.3,0.8,6.4,1.3l-10.7,2.8c-2.1-0.5-4.2-0.9-6.4-1.3
						C997.1,307.7,995.4,307.4,993.8,307.2"/>
					<path class="st10" d="M1005.2,309.2l10.7-2.8c3.5,0.8,6.9,1.7,10.2,2.8l-10.7,2.8C1012.1,311,1008.7,310,1005.2,309.2"/>
					<path class="st14" d="M1015.4,312l10.7-2.8c3.2,1,6.4,2.2,9.4,3.5l-10.7,2.8C1021.7,314.3,1018.6,313.1,1015.4,312"/>
					<path class="st15" d="M1024.8,315.6l10.7-2.8c3.1,1.3,6.2,2.8,9.1,4.4l-10.7,2.8C1030.9,318.4,1027.9,316.9,1024.8,315.6"/>
					<path class="st16" d="M1033.9,320l10.7-2.8c2.3,1.2,4.5,2.6,6.6,4c0.7,0.5,1.4,0.9,2.1,1.4l-10.7,2.8c-0.7-0.5-1.4-1-2.1-1.4
						C1038.3,322.5,1036.1,321.2,1033.9,320"/>
					<path class="st17" d="M1042.6,325.4l10.7-2.8c2.8,2,5.5,4.2,7.9,6.6l-10.7,2.8C1048.1,329.6,1045.4,327.4,1042.6,325.4"/>
					<path class="st44" d="M1050.5,332l10.7-2.8c7,6.7,12.3,14.9,16.1,24.5l-10.7,2.8C1062.9,346.9,1057.5,338.7,1050.5,332"/>
				</g>
			</g>
			<g>
				<path class="st48" d="M1066.6,356.5c5.4,13.8,6.5,31.1,3.3,51.8l-17.5,111.5c-3.2,20.7-9.5,36.7-18.9,47.9
					c-9.4,11.2-20.9,18.5-34.7,21.9c-9.7,2.4-20,3.2-30.7,2.5c-4.5-0.3-9-0.8-13.7-1.7c-15.8-2.8-29.6-8.1-41.5-16
					c-11.9-7.9-20.6-18.7-26-32.5c-5.4-13.8-6.5-31.1-3.3-51.8l17.4-111.5c3.2-20.7,9.5-36.7,18.9-47.9
					c9.4-11.2,20.9-18.5,34.5-21.9c9.6-2.4,19.8-3.2,30.5-2.5c4.5,0.3,9,0.8,13.6,1.7c15.8,2.8,29.7,8.1,41.7,16
					C1052.5,331.8,1061.2,342.7,1066.6,356.5z M1030.1,401.3c2.6-16.9,0.6-30-6-39.5c-6.6-9.4-17-15.4-31-17.9
					c-2.5-0.4-4.9-0.7-7.2-0.9c-10.8-0.7-19.9,1.7-27.4,7.2c-9,6.7-14.9,18.5-17.5,35.3l-17.4,111.5c-2.6,16.9-0.7,30,5.8,39.4
					c6.5,9.4,16.8,15.4,30.8,17.8c2.5,0.4,4.9,0.7,7.3,0.9c10.8,0.7,20-1.7,27.5-7.2c9.1-6.7,15-18.4,17.7-35.3L1030.1,401.3"/>
			</g>
			<g class="st0">
				<defs>
					<path id="SVGID_00000178905057923499527100000005736344412851250353_" class="st0" d="M1066.6,356.5l10.7-2.8
						c5.4,13.8,6.5,31.1,3.3,51.8l-10.7,2.8C1073.2,387.6,1072.1,370.3,1066.6,356.5z"/>
				</defs>
				<clipPath id="SVGID_00000026853365860606338480000004267273170043077299_">
					<use xlink:href="#SVGID_00000178905057923499527100000005736344412851250353_"  style="overflow:visible;"/>
				</clipPath>
				<g style="clip-path:url(#SVGID_00000026853365860606338480000004267273170043077299_);enable-background:new    ;">
					<path class="st44" d="M1066.6,356.5l10.7-2.8c0.1,0.2,0.1,0.3,0.2,0.5l-10.7,2.8C1066.8,356.9,1066.7,356.7,1066.6,356.5"/>
					<path class="st17" d="M1066.9,357l10.7-2.8c1.2,3.1,2.2,6.4,2.9,9.9l-10.7,2.8C1069,363.5,1068,360.2,1066.9,357"/>
					<path class="st16" d="M1069.8,366.9l10.7-2.8c0.6,2.9,1.1,5.9,1.4,9.1l-10.7,2.8C1070.9,372.9,1070.4,369.8,1069.8,366.9"/>
					<path class="st15" d="M1071.2,376l10.7-2.8c0.3,3.1,0.5,6.3,0.5,9.7l-10.7,2.8C1071.7,382.3,1071.6,379.1,1071.2,376"/>
					<path class="st14" d="M1071.8,385.7l10.7-2.8c0,3.6-0.1,7.3-0.4,11.1l-10.7,2.8C1071.6,393,1071.8,389.3,1071.8,385.7"/>
					<path class="st10" d="M1071.3,396.8l10.7-2.8c-0.3,3.7-0.8,7.5-1.4,11.5l-10.7,2.8C1070.6,404.3,1071,400.5,1071.3,396.8"/>
				</g>
			</g>
		</g>
	</g>
</g>
<path class="st50" d="M944.5,549.1l32.8,6.8c2.9,0.6,5.5-2,4.8-4.9l0-0.1c0,0,0.6,0.4,1.4-0.5c0.1-0.1,0.2-0.2,0.2-0.3
	c0.9-1.3,0.2,3,0,4c-0.2,1,3.9-0.7,3.5-6.2c0,0,2,2.4,1.8,6c-0.1,0.8,1,1.1,1.4,0.4c1-2,1.5-5.1-1.3-9.1c0,0,4.7,0.1,6,7.9
	c0,0,3.3-5.5-3.3-10.8c0,0,3-1,4.7,1c0,0,0.1-3.5-4.7-4c0,0,4.1-3,7.5-9.9c0,0,15.6,2.9,20.7-7.6c0,0,0.8-6.1-20.5-5.6
	c0,0,1.3-2.6,0.3-5.3c0,0,0,1.1-1.3,1.7c0,0,0.9-3-1.8-6.2c0,0,5.2-12.1,2.4-15.6c-2.8-3.6-13,3.3-15.9,14.2c0,0-7.3-1.3-12.7,5.3
	c0,0,1.1-1.8-0.8-5.8c0,0-1,0.9-1.1,2.3c0,0-9.7-5.5-14.4,0.9c0,0-2.3-1.2-3.8-1.1c0,0,1.3,1.3,1.2,2.1c0,0-4.3,0.8-6.1,3.8
	c0,0-2.3,0.7-3.7,1.6c0,0,1.5,1,1.7,1.4c0.2,0.4-4,1.6-5.2,4c0,0,1.8-0.5,4.1,0.3c0,0-2,1-3.4,2.4c0,0,2.4,0,3.5,0.5
	c0,0-6.3,1.7-7.2,6.7l2.6-0.1c0,0-1.6,1.4-2,3.3l2.3,0.1c0,0-2.2,3.9-2.4,5.2l1-0.4c0,0-1.5,1.7-1.5,3.6c0,0,0.9,0.8,3,0.1
	c0,0,3.5-0.4,2.6,2.2c-0.9,2.6-1.1,3.1-1.1,3.1l2.5,0.1l0,0C942.5,547.9,943.3,548.8,944.5,549.1z"/>
<g>
	<circle cx="975.3" cy="512.7" r="1.7"/>
	<path class="st51" d="M976.9,512.7c0,2.2-3.3,2.2-3.3,0C973.6,510.5,976.9,510.5,976.9,512.7L976.9,512.7z"/>
</g>
<g>
	<circle cx="990.2" cy="533.1" r="1.5"/>
	<path class="st51" d="M991.7,533.1c0,2-3,2-3,0C988.8,531.1,991.7,531.1,991.7,533.1L991.7,533.1z"/>
</g>
<g>
	<path class="st52" d="M970.4,528c0.8,2.1,1.8,3.5,3.7,4.6C971.7,533,969.6,530.3,970.4,528L970.4,528z"/>
</g>
<g>
	<path class="st52" d="M958.2,509c1.2,0.2,2.3,0.5,3.2,1.3c0.1,0.1,0.1,0.2,0,0.3c-1.4,0.2-2.8,0.3-4.1,0.9
		c-1.2,0.5-2.3,1.3-3.1,2.3c0,0-0.4-0.8-0.4-0.8c0.8,0.1,2.7,0.3,3.4,0.4c0.4,0.1,0.7,0.1,1.2,0.3c0.4,0.1,0.4,0.8,0,0.9
		c-1,0.4-2.1,0.8-2.9,1.5c0,0-0.2-0.8-0.2-0.8c0.7,0.2,3.6,1,2.4,2c-1,0.5-2.2,1.1-3.1,1.9c0,0-0.3-0.8-0.3-0.8c1,0.2,1.9,0.5,2.9,1
		c0.2,0.1,0.3,0.4,0.2,0.7c-0.1,0.1-0.2,0.2-0.3,0.2c-1.2,0.4-2.6,1-3.3,2c0,0-0.3-0.8-0.3-0.8c0.5,0.1,1.8,0.3,2.3,0.4
		c0.4,0.1,1.3,0.1,1.1,0.8c-1.2,1.5-2.8,3-3.4,4.9c0,0-0.6-0.6-0.6-0.6c1.3-0.2,2.7-0.2,4,0c0.3,0,0.5,0.3,0.4,0.6
		c0,0.2-0.2,0.4-0.4,0.4c-0.5,0.2-1,0.7-1.3,1.1c0,0-0.5-0.8-0.5-0.8c1.5-0.1,3.2-0.2,4.5,0.8c1.7,1.5,2.8,3.8,4.5,5.3
		c0.1,0.1,0.2,0.2,0.3,0.3c0.8,2.1,2,4.5,4.1,5.5c0.4,0.3,0.4,0.9,0.5,1.3c0.2,1.1-0.2,2.3-1.1,3c0,0,0.1-0.7,0.1-0.7
		c0.2,0.1,0.6,0,0.9-0.1c0.2-0.1,0.5-0.1,0.7,0.2c0.2,1.8-1.2,3.3-2.7,4c0,0-0.2-0.5-0.2-0.5c1.6-0.4,3.3-0.9,4.6-1.9
		c-1.3,1.2-2.9,1.8-4.5,2.4c-0.3,0.1-0.5-0.3-0.2-0.5c1.2-0.7,2.2-1.9,2.1-3.3c0,0,0.7,0.4,0.7,0.4c-0.4,0.3-1.1,0.5-1.6,0.3
		c-0.4-0.1-1-0.7-0.5-1.1c0.9-0.7,1-2,0.6-2.9c0,0,0.3,0.3,0.3,0.3c-2.5-1.2-3.7-3.7-4.7-6.1c0,0,0.3,0.3,0.3,0.3
		c-2-1.5-3-3.8-4.8-5.4c-1-0.8-2.5-0.7-3.7-0.6c-0.3,0-0.5-0.2-0.6-0.4c0-0.5,0.5-0.9,0.9-1.2c0.4-0.3,0.6-0.5,1.2-0.6c0,0,0,1,0,1
		c-1.2-0.2-2.5-0.2-3.7,0c-0.3,0.1-0.6-0.3-0.5-0.6c0.7-2,2.2-3.5,3.6-5.1c0,0,0.2,0.8,0.2,0.8c-0.8-0.2-2.1-0.4-2.9-0.6
		c-1.8-0.8,2.7-3,3.5-3.1c0,0-0.1,0.9-0.1,0.9c-0.7-0.4-1.7-0.7-2.6-0.9c-0.3-0.1-0.4-0.3-0.4-0.6c0.9-1.2,2.3-1.7,3.5-2.3
		c0,0-0.2,0.8-0.2,0.8c-0.5-0.5-1.3-0.7-2-0.9c-0.4-0.1-0.5-0.6-0.2-0.8c1-0.9,2-1.3,3.2-1.7c0,0-0.1,0.9-0.1,0.9
		c-0.4-0.2-1.5-0.3-2.1-0.3c-0.7-0.1-1.5-0.2-2.2-0.2c-0.4,0-0.6-0.5-0.4-0.8c1.8-2.3,5-3,7.8-2.8c0,0-0.1,0.3-0.1,0.3
		C960.4,509.8,959.3,509.3,958.2,509L958.2,509z"/>
</g>
<g>
	<path class="st52" d="M1000.4,519.2c5.2-0.9,12.8-1.4,16.7,2.4c-2.7-0.9-5.4-1.6-8.2-2.1C1006.2,519,1003.1,519.2,1000.4,519.2
		L1000.4,519.2z"/>
</g>
<g>
	<path class="st52" d="M997.4,494.8c0.3-1,0.9-2.8-0.5-3.2c0.1,0,0.3-0.1,0.2-0.2c0.1,0,0.4,0.3,0.5,0.4c-5.5,1.9-9.5,6.5-11.8,11.7
		c0.3-5.8,6-10.4,11.3-12c0,0-0.1,0.4-0.1,0.4c-0.1-0.1-0.2-0.2-0.3-0.3c-0.1-0.2,0.1-0.3,0.2-0.3c0.7,0.2,1.1,0.8,1.1,1.5
		C998,493.5,997.8,494.2,997.4,494.8L997.4,494.8L997.4,494.8z"/>
</g>
<path class="st36" d="M961.7,559.5c0,0,8.6-4.9,10.5-7.1c1.9-2.1,5.4-8.4,6.1-8.9s1.7-0.9,2.6-0.2s0.2,6.1-0.6,7.6
	c-0.8,1.5-4,6.1-3.9,7.2c0,1.1,16.7,1.1,26.4,0.5c0,0,2.3,0.3,1.7,1.7c-0.5,1.4-0.9,1.4-1.9,1.6c-1,0.2-14.8,2.6-15.1,3.2
	c-0.3,0.6-1.3,1.5,0.3,1.9c1.6,0.4,16.1,1.8,17.7,2.2c1.6,0.4,1.9,1.6,1.8,2.4s-1,1.9-1.9,1.7c-0.9-0.2-19.3-1.8-19.3-1.8
	c-0.3,0-0.8,0.7-0.2,1c0.3,0.2,18.5,1.7,19,1.9c1,0.4,1,1.9,0.2,2.6c-0.6,0.5-16-0.2-19.2-0.4c-0.4,0-0.8,0.2-1,0.6
	c-0.2,0.4-0.2,0.9,0.1,1.4c0.6,1,10.8,4.7,11.8,5.4c0.8,0.6,0.7,2.3,0.2,2.6c-0.8,0.5-14.2-3-16.8-3.4c-2.5-0.3-18.7-2.7-18.7-2.7
	L961.7,559.5z"/>
<polyline class="st23" points="875.7,570 963.1,580.9 963.1,558.8 886,541 875.7,570 "/>
<path class="st36" d="M1062.7,539.5L1062.7,539.5c-0.2,1.3-1.4,2.2-2.7,2l-2.1-0.3c-1.3-0.2-2.2-1.4-2-2.7l0,0
	c0.2-1.3,1.4-2.2,2.7-2l2.1,0.3C1061.9,537,1062.9,538.2,1062.7,539.5z"/>
<path class="st36" d="M1059,541.7C1059,541.7,1059,541.7,1059,541.7l-8.7-5.9c-1-0.8-2.1-0.8-3,0c-0.8,0.8-0.6,1.4,0,2.3l-0.5-0.4
	c-1-0.8-2.5-0.8-3.4,0.1c-1,1-0.9,2.6,0.2,3.5l0.4,0.3c-1.1-0.8-2.3-1-3.1,0.2c-0.7,1-0.2,1.9,0.8,2.7l11.2,10.5
	c1,0.8,2.4,0.8,3.3-0.1c1-1,0.9-2.7-0.2-3.5l0.1,0c1,0.8,2,0.3,2.8-0.7c0.8-1,0.9-2.3,0.1-3.2c0,0,0-0.1,0-0.1
	c0.9,0.3,1.7-0.1,2.3-0.8v0C1061.4,545,1060.3,542.7,1059,541.7z"/>
<path class="st36" d="M1042.3,545.4c0,0-2.4,0.7-1.7,1.9c0.7,1.2,9,9.4,9.5,9.5c0.5,0.1,3.6-1.3,3.6-1.3L1042.3,545.4z"/>
<g>
	<path class="st39" d="M1043.6,541.3c4.5,2.7,8.6,6,12.2,9.8C1051.3,548.4,1047.3,545.1,1043.6,541.3L1043.6,541.3z"/>
</g>
<g>
	<path class="st39" d="M1042.2,545.2c3.7,2.4,7,5.3,9.7,8.8C1048.2,551.6,1045,548.7,1042.2,545.2L1042.2,545.2z"/>
</g>
<g>
	<path class="st39" d="M1047.1,538c4.5,2.7,8.6,6,12.2,9.8C1054.8,545.1,1050.7,541.8,1047.1,538L1047.1,538z"/>
</g>
<g>
	<path class="st52" d="M984.2,504.7c3-0.6,6.3-0.4,9.1,0.8C990.3,505,987.3,504.9,984.2,504.7L984.2,504.7z"/>
</g>
<g>
	<path class="st52" d="M1000.1,520.8c1,1.9,0.6,4.2-0.3,6C1000,524.8,1000.4,522.9,1000.1,520.8L1000.1,520.8z"/>
</g>
<circle class="st52" cx="977.7" cy="525.8" r="1.6"/>
<g>
	<path class="st42" d="M850.6,328.7c5.8-4.7,13.7-7.5,21.2-5.8c0.6,0.2,2,0.6,2.5,0.8c0.5,0.2,1.9,0.9,2.4,1.1
		c3.7,2,14,11.4,17.5,6.1c0.6-0.9,0.1-2.2-0.6-2.9c-0.8-0.8-2-1.1-3.1-1.1c1.1-0.1,2.4,0,3.3,0.9c0.7,0.7,1.1,1.5,1.1,2.4
		c-0.2,2.4-3,3.3-5,2.8c-5.3-0.9-9.2-4.8-13.7-7.4C868.1,321.2,857.9,323.7,850.6,328.7L850.6,328.7z"/>
</g>
<path class="st53" d="M1283.2,464.9c0,0,10.1,11.8,11.6,20.8l36.5-6.6L1283.2,464.9z"/>
<path class="st54" d="M1294.2,468.3c0,0,6.7,7.8,6.7,14.6"/>
<path class="st54" d="M1301.9,466.1c0,0,6.7,7.8,6.7,14.6"/>
<path class="st54" d="M1308.8,464.1c0,0,6.7,7.8,6.7,14.6"/>
<g>
	<g>
		<g class="st0">
			<g>
				<polygon class="st55" points="1277,412.8 1286.9,414.1 1351.7,434.2 1341.8,433 				"/>
			</g>
			<g class="st0">
				<defs>
					<path id="SVGID_00000039102238897726359690000015694607225864254606_" class="st0" d="M1345.6,561.2l-9.9-1.2
						c3.6,0.4,7.3,0.3,10.8-0.5c5.7-1.2,9.3-4.3,10.8-9.4l9.9,1.2c-1.5,5.1-5.1,8.2-10.8,9.4
						C1352.9,561.5,1349.3,561.6,1345.6,561.2z"/>
				</defs>
				<clipPath id="SVGID_00000106143509569704732380000011331089173695370407_">
					<use xlink:href="#SVGID_00000039102238897726359690000015694607225864254606_"  style="overflow:visible;"/>
				</clipPath>
				<g style="clip-path:url(#SVGID_00000106143509569704732380000011331089173695370407_);enable-background:new    ;">
					<path class="st4" d="M1357.4,550.1l9.9,1.2c-0.1,0.4-0.3,0.8-0.4,1.2l-9.9-1.2C1357.1,550.9,1357.3,550.5,1357.4,550.1"/>
					<path class="st5" d="M1357,551.3l9.9,1.2c-0.2,0.5-0.4,0.9-0.6,1.3l-9.9-1.2C1356.6,552.2,1356.8,551.8,1357,551.3"/>
					<path class="st6" d="M1356.4,552.6l9.9,1.2c-0.2,0.4-0.5,0.9-0.7,1.3l-9.9-1.2C1355.9,553.5,1356.1,553.1,1356.4,552.6"/>
					<path class="st7" d="M1355.6,553.9l9.9,1.2c-0.3,0.5-0.7,0.9-1,1.3l-9.9-1.2C1355,554.8,1355.3,554.4,1355.6,553.9"/>
					<path class="st8" d="M1354.6,555.2l9.9,1.2c-1.9,2.1-4.6,3.6-8,4.3c-3.6,0.8-7.2,0.9-10.8,0.5l-9.9-1.2
						c3.6,0.4,7.3,0.3,10.8-0.5C1350,558.8,1352.7,557.4,1354.6,555.2"/>
				</g>
			</g>
			<g>
				<polygon class="st57" points="1375,492 1384.9,493.3 1367.3,551.3 1357.4,550.1 				"/>
			</g>
			<g class="st0">
				<defs>
					<path id="SVGID_00000153665623246758426730000000784463591536048051_" class="st0" d="M1406.8,223.2l9.9,1.2
						c1.4,0.2,2.8,0.5,4.1,0.9c0.5,0.2,1,0.4,1.6,0.6l-9.9-1.2c-0.5-0.2-1.1-0.4-1.6-0.6C1409.6,223.6,1408.2,223.3,1406.8,223.2z"
						/>
				</defs>
				<clipPath id="SVGID_00000049936725224943744620000004646712549805068724_">
					<use xlink:href="#SVGID_00000153665623246758426730000000784463591536048051_"  style="overflow:visible;"/>
				</clipPath>
				<g style="clip-path:url(#SVGID_00000049936725224943744620000004646712549805068724_);enable-background:new    ;">
					<path class="st5" d="M1406.8,223.2l9.9,1.2c0.3,0,0.7,0.1,1,0.1l-9.9-1.2C1407.5,223.3,1407.2,223.2,1406.8,223.2"/>
					<path class="st4" d="M1407.9,223.3l9.9,1.2c0.8,0.1,1.5,0.3,2.3,0.5l-9.9-1.2C1409.4,223.6,1408.7,223.5,1407.9,223.3"/>
					<path class="st3" d="M1410.2,223.8l9.9,1.2c0.3,0.1,0.5,0.1,0.8,0.2c0.4,0.1,0.8,0.3,1.2,0.4l-9.9-1.2
						c-0.4-0.2-0.8-0.3-1.2-0.4C1410.7,224,1410.4,223.9,1410.2,223.8"/>
					<path class="st10" d="M1412.1,224.5l9.9,1.2c0.1,0.1,0.3,0.1,0.4,0.2l-9.9-1.2C1412.4,224.6,1412.3,224.5,1412.1,224.5"/>
				</g>
			</g>
			<g>
				<polygon class="st57" points="1407.3,385.4 1417.2,386.6 1398.4,448.7 1388.5,447.5 				"/>
			</g>
			<g class="st0">
				<defs>
					<path id="SVGID_00000041989713424030082160000000105650642705797817_" class="st0" d="M1381.6,360.8l9.9,1.2
						c2.4,0.3,4.8,0.8,7.2,1.6c1.2,0.4,2.4,0.8,3.6,1.3c4.4,1.8,8.2,4.2,11.4,7.3c4.1,3.9,5.3,8.7,3.6,14.4l-9.9-1.2
						c1.7-5.7,0.5-10.5-3.6-14.4c-3.3-3.1-7.1-5.5-11.4-7.3c-1.1-0.5-2.3-0.9-3.6-1.3C1386.3,361.7,1383.9,361.1,1381.6,360.8z"/>
				</defs>
				<clipPath id="SVGID_00000165232222493341722750000006115421017380447640_">
					<use xlink:href="#SVGID_00000041989713424030082160000000105650642705797817_"  style="overflow:visible;"/>
				</clipPath>
				<g style="clip-path:url(#SVGID_00000165232222493341722750000006115421017380447640_);enable-background:new    ;">
					<path class="st5" d="M1381.6,360.8l9.9,1.2c0.6,0.1,1.1,0.2,1.7,0.2l-9.9-1.2C1382.7,361,1382.1,360.9,1381.6,360.8"/>
					<path class="st4" d="M1383.2,361.1l9.9,1.2c1.3,0.2,2.7,0.5,4.1,0.9l-9.9-1.2C1385.9,361.6,1384.6,361.3,1383.2,361.1"/>
					<path class="st3" d="M1387.3,362l9.9,1.2c0.5,0.1,1,0.3,1.5,0.4c0.9,0.3,1.8,0.6,2.7,0.9l-9.9-1.2c-0.9-0.3-1.8-0.7-2.7-0.9
						C1388.3,362.3,1387.8,362.1,1387.3,362"/>
					<path class="st10" d="M1391.5,363.4l9.9,1.2c0.3,0.1,0.6,0.2,0.8,0.3c1,0.4,2,0.9,3,1.4l-9.9-1.2c-1-0.5-2-0.9-3-1.4
						C1392,363.6,1391.8,363.5,1391.5,363.4"/>
					<path class="st14" d="M1395.3,365.1l9.9,1.2c1.3,0.6,2.5,1.4,3.6,2.1l-9.9-1.2C1397.8,366.4,1396.6,365.7,1395.3,365.1"/>
					<path class="st15" d="M1399,367.2l9.9,1.2c1.3,0.9,2.6,1.9,3.8,2.9l-9.9-1.2C1401.6,369.1,1400.3,368.1,1399,367.2"/>
					<path class="st16" d="M1402.8,370.1l9.9,1.2c0.3,0.3,0.6,0.6,1,0.9c0.7,0.7,1.4,1.4,1.9,2.2l-9.9-1.2c-0.6-0.8-1.2-1.5-1.9-2.2
						C1403.4,370.7,1403.1,370.4,1402.8,370.1"/>
					<path class="st17" d="M1405.7,373.2l9.9,1.2c0.6,0.9,1.2,1.8,1.5,2.8l-9.9-1.2C1406.9,375,1406.3,374.1,1405.7,373.2"/>
					<path class="st16" d="M1407.2,376l9.9,1.2c0.3,0.8,0.6,1.6,0.7,2.5l-9.9-1.2C1407.8,377.6,1407.6,376.8,1407.2,376"/>
					<path class="st15" d="M1407.9,378.5l9.9,1.2c0.1,0.5,0.1,1.1,0.2,1.7l-9.9-1.2C1408.1,379.6,1408,379,1407.9,378.5"/>
					<path class="st14" d="M1408.1,380.2l9.9,1.2c0,0.5,0,1,0,1.6l-9.9-1.2C1408.1,381.2,1408.1,380.7,1408.1,380.2"/>
					<path class="st10" d="M1408.1,381.7l9.9,1.2c0,0.5-0.1,1.1-0.2,1.6l-9.9-1.2C1407.9,382.8,1408,382.3,1408.1,381.7"/>
					<path class="st3" d="M1407.8,383.3l9.9,1.2c-0.1,0.6-0.2,1.2-0.4,1.8l-9.9-1.2C1407.6,384.5,1407.7,383.9,1407.8,383.3"/>
					<path class="st4" d="M1407.4,385.1l9.9,1.2c0,0.1-0.1,0.2-0.1,0.3l-9.9-1.2C1407.4,385.3,1407.4,385.2,1407.4,385.1"/>
				</g>
			</g>
			<g>
				<polygon class="st60" points="1424.3,256.3 1434.2,257.5 1286.9,414.1 1277,412.8 				"/>
			</g>
			<g class="st0">
				<defs>
					<path id="SVGID_00000054963680318631399430000007320047457612789153_" class="st0" d="M1412.5,224.6l9.9,1.2
						c2.4,1,4.9,2.6,7.4,4.7c3.1,2.6,5.5,5.7,7.3,9.2c1.8,3.5,2.1,7.2,1,11.1c-0.5,1.8-1.9,4-4,6.7l-9.9-1.2c2.1-2.6,3.4-4.8,4-6.7
						c1.2-3.9,0.9-7.6-1-11.1c-1.8-3.5-4.3-6.6-7.3-9.2C1417.4,227.2,1415,225.6,1412.5,224.6z"/>
				</defs>
				<clipPath id="SVGID_00000151503120589886573070000013532086922587251129_">
					<use xlink:href="#SVGID_00000054963680318631399430000007320047457612789153_"  style="overflow:visible;"/>
				</clipPath>
				<g style="clip-path:url(#SVGID_00000151503120589886573070000013532086922587251129_);enable-background:new    ;">
					<path class="st10" d="M1412.5,224.6l9.9,1.2c0.5,0.2,1.1,0.5,1.6,0.8l-9.9-1.2C1413.6,225.1,1413.1,224.9,1412.5,224.6"/>
					<path class="st14" d="M1414.2,225.4l9.9,1.2c0.9,0.4,1.7,0.9,2.6,1.5l-9.9-1.2C1415.9,226.3,1415,225.8,1414.2,225.4"/>
					<path class="st15" d="M1416.8,226.9l9.9,1.2c1.1,0.7,2.1,1.5,3.2,2.4c0.2,0.1,0.3,0.3,0.5,0.4l-9.9-1.2
						c-0.1-0.1-0.3-0.3-0.5-0.4C1418.9,228.4,1417.8,227.6,1416.8,226.9"/>
					<path class="st16" d="M1420.4,229.7l9.9,1.2c1.7,1.5,3.2,3.1,4.5,4.9l-9.9-1.2C1423.6,232.9,1422.1,231.2,1420.4,229.7"/>
					<path class="st17" d="M1424.9,234.6l9.9,1.2c0.9,1.2,1.7,2.5,2.4,3.9c0.2,0.5,0.5,0.9,0.6,1.4l-9.9-1.2
						c-0.2-0.5-0.4-0.9-0.6-1.4C1426.6,237.1,1425.8,235.9,1424.9,234.6"/>
					<path class="st16" d="M1428,239.9l9.9,1.2c0.4,1,0.7,2,0.8,3l-9.9-1.2C1428.6,241.9,1428.3,240.9,1428,239.9"/>
					<path class="st15" d="M1428.8,242.9l9.9,1.2c0.1,0.6,0.2,1.2,0.2,1.8l-9.9-1.2C1428.9,244.1,1428.9,243.5,1428.8,242.9"/>
					<path class="st14" d="M1429,244.7l9.9,1.2c0,0.5,0,1,0,1.6l-9.9-1.2C1429,245.7,1429,245.2,1429,244.7"/>
					<path class="st10" d="M1428.9,246.3l9.9,1.2c0,0.5-0.1,1-0.2,1.5l-9.9-1.2C1428.8,247.3,1428.9,246.8,1428.9,246.3"/>
					<path class="st3" d="M1428.7,247.8l9.9,1.2c-0.1,0.5-0.2,1.1-0.4,1.6l-9.9-1.2C1428.5,248.8,1428.6,248.3,1428.7,247.8"/>
					<path class="st4" d="M1428.4,249.4l9.9,1.2c0,0.1,0,0.2-0.1,0.3c-0.1,0.2-0.2,0.5-0.3,0.7l-9.9-1.2c0.1-0.3,0.2-0.5,0.3-0.7
						C1428.3,249.5,1428.3,249.5,1428.4,249.4"/>
					<path class="st5" d="M1428,250.4l9.9,1.2c-0.2,0.4-0.4,0.8-0.6,1.3l-9.9-1.2C1427.7,251.2,1427.9,250.8,1428,250.4"/>
					<path class="st6" d="M1427.4,251.6l9.9,1.2c-0.4,0.7-0.8,1.4-1.3,2.2l-9.9-1.2C1426.7,253,1427.1,252.3,1427.4,251.6"/>
					<path class="st7" d="M1426.1,253.8l9.9,1.2c-0.5,0.8-1.1,1.6-1.8,2.5l-9.9-1.2C1425,255.4,1425.6,254.6,1426.1,253.8"/>
				</g>
			</g>
			<g>
				<polygon class="st55" points="1388.5,447.5 1398.4,448.7 1420.4,455.6 1410.5,454.4 				"/>
			</g>
			<g>
				<path class="st20" d="M1412.5,224.6c2.4,1,4.9,2.6,7.4,4.7c3.1,2.6,5.5,5.7,7.3,9.2c1.8,3.5,2.1,7.2,1,11.1
					c-0.5,1.8-1.9,4-4,6.7L1277,412.8l64.8,20.1l18.8-62.1c1.7-5.7,5.4-9,11-9.9c5.6-0.9,11.3-0.4,17.2,1.4c1.2,0.4,2.4,0.8,3.6,1.3
					c4.4,1.8,8.2,4.2,11.4,7.3c4.1,3.9,5.3,8.7,3.6,14.4l-18.8,62.1l22,6.9c0.5,0.2,1,0.3,1.5,0.5c4.4,1.8,7.1,5.2,8.1,10.1
					c1.1,5.4,0.8,11-1,16.7c-1.6,5.4-4.7,9.9-9.2,13.6c-4.5,3.7-8.8,4.9-12.9,3.6l-22-6.8l-17.6,58c-1.5,5.1-5.1,8.2-10.8,9.4
					c-5.7,1.2-11.4,0.9-17.3-1c-1.1-0.3-2.2-0.7-3.2-1.1c-4.5-1.8-8.4-4.5-11.7-7.9c-4-4.2-5.3-8.9-3.7-14l17.6-58L1220.4,444
					c-0.7-0.2-1.3-0.4-1.9-0.7c-4-1.6-6.8-4.2-8.6-7.7c-2-4.1-2.2-8.8-0.5-14.2c0.5-1.5,1.2-3.1,2.2-4.7c1-1.7,2.1-3.1,3.5-4.3
					l171.3-181.6c4.1-4,8.3-6.4,12.5-7.2c4.3-0.8,8.3-0.6,12.1,0.6C1411.5,224.2,1412,224.4,1412.5,224.6z"/>
			</g>
			<g class="st0">
				<defs>
					<path id="SVGID_00000151529209054250610770000002268462275716681904_" class="st0" d="M1408.8,500.5l-9.9-1.2
						c3.5,0.4,7.2-0.9,11-4c4.5-3.7,7.6-8.2,9.2-13.6c1.7-5.7,2-11.3,1-16.7c-1-4.9-3.7-8.3-8.1-10.1c-0.5-0.2-1-0.4-1.5-0.5
						l9.9,1.2c0.5,0.2,1,0.3,1.5,0.5c4.4,1.8,7.1,5.2,8.1,10.1c1.1,5.4,0.8,11-1,16.7c-1.6,5.4-4.7,9.9-9.2,13.6
						C1416,499.6,1412.3,500.9,1408.8,500.5z"/>
				</defs>
				<clipPath id="SVGID_00000064355209175299756400000017156640690890013315_">
					<use xlink:href="#SVGID_00000151529209054250610770000002268462275716681904_"  style="overflow:visible;"/>
				</clipPath>
				<g style="clip-path:url(#SVGID_00000064355209175299756400000017156640690890013315_);enable-background:new    ;">
					<path class="st3" d="M1410.5,454.4l9.9,1.2c0.4,0.1,0.8,0.3,1.1,0.4l-9.9-1.2C1411.3,454.6,1410.9,454.5,1410.5,454.4"/>
					<path class="st10" d="M1411.7,454.8l9.9,1.2c0.1,0,0.2,0.1,0.3,0.1c0.4,0.2,0.8,0.3,1.2,0.5l-9.9-1.2c-0.4-0.2-0.8-0.4-1.2-0.5
						C1411.9,454.8,1411.8,454.8,1411.7,454.8"/>
					<path class="st14" d="M1413.2,455.4l9.9,1.2c0.5,0.2,0.9,0.5,1.4,0.8l-9.9-1.2C1414.1,455.9,1413.6,455.7,1413.2,455.4"/>
					<path class="st15" d="M1414.5,456.2l9.9,1.2c0.5,0.3,0.9,0.7,1.4,1l-9.9-1.2C1415.5,456.9,1415,456.5,1414.5,456.2"/>
					<path class="st16" d="M1415.9,457.3l9.9,1.2c0.7,0.6,1.3,1.2,1.8,2l-9.9-1.2C1417.2,458.5,1416.6,457.8,1415.9,457.3"/>
					<path class="st17" d="M1417.7,459.2l9.9,1.2c0.6,0.9,1.2,1.8,1.6,2.9l-9.9-1.2C1418.8,461.1,1418.3,460.1,1417.7,459.2"/>
					<path class="st16" d="M1419.3,462.1l9.9,1.2c0.4,0.9,0.6,1.8,0.8,2.8c0.1,0.4,0.1,0.7,0.2,1.1l-9.9-1.2
						c-0.1-0.4-0.1-0.7-0.2-1.1C1419.9,463.9,1419.6,463,1419.3,462.1"/>
					<path class="st15" d="M1420.3,466l9.9,1.2c0.2,1.4,0.4,2.8,0.4,4.3l-9.9-1.2C1420.7,468.9,1420.5,467.5,1420.3,466"/>
					<path class="st14" d="M1420.7,470.3l9.9,1.2c0,1.2,0,2.4-0.1,3.6l-9.9-1.2C1420.7,472.7,1420.7,471.5,1420.7,470.3"/>
					<path class="st10" d="M1420.6,473.9l9.9,1.2c-0.1,1.2-0.2,2.3-0.5,3.5l-9.9-1.2C1420.4,476.2,1420.5,475.1,1420.6,473.9"/>
					<path class="st3" d="M1420.2,477.4l9.9,1.2c-0.2,1.2-0.5,2.4-0.8,3.6l-9.9-1.2C1419.7,479.8,1419.9,478.6,1420.2,477.4"/>
					<path class="st4" d="M1419.3,481l9.9,1.2c-0.1,0.2-0.1,0.4-0.2,0.7c-0.2,0.7-0.5,1.5-0.8,2.2l-9.9-1.2c0.3-0.7,0.5-1.4,0.8-2.2
						C1419.2,481.4,1419.3,481.2,1419.3,481"/>
					<path class="st5" d="M1418.4,483.8l9.9,1.2c-0.3,0.9-0.7,1.7-1.2,2.6l-9.9-1.2C1417.6,485.6,1418,484.7,1418.4,483.8"/>
					<path class="st6" d="M1417.2,486.4l9.9,1.2c-0.5,0.9-1,1.8-1.6,2.6l-9.9-1.2C1416.2,488.2,1416.7,487.3,1417.2,486.4"/>
					<path class="st7" d="M1415.7,489l9.9,1.2c-0.7,1.1-1.5,2.1-2.4,3.1l-9.9-1.2C1414.1,491.1,1414.9,490.1,1415.7,489"/>
					<path class="st8" d="M1413.3,492.1l9.9,1.2c-1,1.1-2.1,2.2-3.4,3.2c-3.8,3.1-7.5,4.5-11,4l-9.9-1.2c3.5,0.4,7.2-0.9,11-4
						C1411.1,494.3,1412.3,493.2,1413.3,492.1"/>
				</g>
			</g>
		</g>
	</g>
</g>
<path class="st63" d="M1236.9,805.2c0,0-8.5,10.8-8.7,19.4l58.8,30.5c0,0,5.3-7.8,2.9-10.8s-20.9-23.1-20.9-23.1L1236.9,805.2z"/>
<polygon class="st63" points="1227.8,824.5 1226.5,827.2 1285.7,857.5 1287,855.2 "/>
<path class="st63" d="M1275.8,829.7l-9.7,4c-1.6,0.7-3.5-0.1-4.1-1.7v0c-0.7-1.6,0.1-3.5,1.7-4.1l9.7-4c1.6-0.7,3.5,0.1,4.1,1.7l0,0
	C1278.2,827.2,1277.4,829.1,1275.8,829.7z"/>
<path class="st63" d="M1281.8,837l-9.7,4c-1.6,0.7-3.5-0.1-4.1-1.7l0,0c-0.7-1.6,0.1-3.5,1.7-4.1l9.7-4c1.6-0.7,3.5,0.1,4.1,1.7l0,0
	C1284.2,834.5,1283.4,836.3,1281.8,837z"/>
<path class="st63" d="M1333.7,804.5c0,0-3,13.4,0.5,21.3l66.2,2.4c0,0,1.5-9.3-2-11c-3.5-1.7-28.8-11.9-28.8-11.9L1333.7,804.5z"/>
<polygon class="st63" points="1333.7,825.8 1333.7,828.8 1400.2,830.8 1400.3,828.1 "/>
<path class="st63" d="M1379.3,810l-7.1,7.8c-1.2,1.3-3.2,1.4-4.5,0.2l0,0c-1.3-1.2-1.4-3.2-0.2-4.5l7.1-7.8c1.2-1.3,3.2-1.4,4.5-0.2
	l0,0C1380.4,806.7,1380.5,808.7,1379.3,810z"/>
<path class="st63" d="M1387.9,814l-7.1,7.8c-1.2,1.3-3.2,1.4-4.5,0.2l0,0c-1.3-1.2-1.4-3.2-0.2-4.5l7.1-7.8c1.2-1.3,3.2-1.4,4.5-0.2
	l0,0C1388.9,810.7,1389,812.7,1387.9,814z"/>
<path class="st23" d="M1310.7,661.3c3.2,18.7,5.9,36.1,5.4,42.7c-0.4,5.5-45.9,118.5-45.9,118.5l-37.6-18.5l35.3-96.9l-0.5-19.6
	l-31.8-84.7l0.5-6.3l84-13.1c20.4,24.5,63.8,102.6,63.8,102.6c2.5,19.7-13,119.8-13,119.8l-39.6-0.7c0,0,14.4-104.4,14-105.8
	c-0.3-1.4-4.9-1.6-6.1-3.2c-1.2-1.6-1.1-3.4-1.5-5.7c-0.4-2.2-26.5-28.4-26.5-28.4L1310.7,661.3z"/>
<line class="st64" x1="1300.9" y1="605.1" x2="1310.8" y2="662.6"/>
<path class="st27" d="M1209,479c0,0-19.8-4-10.6-56.8s15.7-81.3,39.6-73.6c0,0,14.8-19.8,35.1,20.7c20.3,40.4,15.1,90.7,12,95.6"/>
<g>
	<path class="st24" d="M1228.9,360.9c-1.3,4.2-3.1,8.5-3,13C1224.4,369.5,1226.3,364.5,1228.9,360.9L1228.9,360.9z"/>
</g>
<g>
	<path class="st24" d="M1257.3,357.2c5.8,1.2,8.6,7.8,9,13.2c-0.3-0.7-0.5-1.3-0.7-2C1263.9,364.1,1261.7,359.3,1257.3,357.2
		L1257.3,357.2z"/>
</g>
<g>
	<path class="st24" d="M1229.1,374.8c1.1,1.7,1.5,3.6,1.2,5.6C1229.3,378.7,1228.9,376.8,1229.1,374.8L1229.1,374.8z"/>
</g>
<g>
	<path class="st24" d="M1260.5,366.4c1.1,1.7,1.5,3.6,1.2,5.6C1260.6,370.3,1260.2,368.4,1260.5,366.4L1260.5,366.4z"/>
</g>
<g>
	<path class="st24" d="M1256,367.6c1.1,1.7,1.5,3.6,1.2,5.6C1256.1,371.4,1255.7,369.6,1256,367.6L1256,367.6z"/>
</g>
<g>
	<path class="st24" d="M1251.5,368.7c1.1,1.7,1.5,3.6,1.2,5.6C1251.7,372.6,1251.2,370.7,1251.5,368.7L1251.5,368.7z"/>
</g>
<g>
	<path class="st24" d="M1247,369.9c1.1,1.7,1.5,3.6,1.2,5.6C1247.2,373.8,1246.8,371.9,1247,369.9L1247,369.9z"/>
</g>
<g>
	<path class="st24" d="M1242.5,371c1.1,1.7,1.5,3.6,1.2,5.6C1242.7,374.9,1242.3,373,1242.5,371L1242.5,371z"/>
</g>
<g>
	<path class="st24" d="M1238.1,372.2c1.1,1.7,1.5,3.6,1.2,5.6C1238.2,376.1,1237.8,374.2,1238.1,372.2L1238.1,372.2z"/>
</g>
<g>
	<path class="st24" d="M1233.6,373.3c1.1,1.7,1.5,3.6,1.2,5.6C1233.7,377.2,1233.3,375.3,1233.6,373.3L1233.6,373.3z"/>
</g>
<path class="st22" d="M1265.5,372.1l-34.8,9.3l1.3,16.4c0,0-2-2.3-3.2-0.5c-1.2,1.8-1.3,2.2-1,4.3s0.4,4.2,2.3,5.1
	c1.9,0.9,3.5,1,3.5,1s3,17-1.2,22.7c-4.2,5.7-3.5,4.9-3.5,4.9l30.7,2l-0.2-10.3c6.4-1,10.1-8,11.8-13.5
	C1273.4,405.8,1269.4,380.2,1265.5,372.1z"/>
<path class="st65" d="M1238.5,417.7c0,0,4.7,10.1,20.9,9.1l0.1,5.7C1259.4,432.5,1240.8,432.7,1238.5,417.7z"/>
<ellipse transform="matrix(0.9617 -0.2741 0.2741 0.9617 -64.9456 360.7578)" class="st26" cx="1258.6" cy="412.8" rx="2.9" ry="2.3"/>
<g>
	<path class="st25" d="M1253.9,411.9c2.8,1.1,5.6,1.8,7.3-1.2c0.2-0.3,0.4-0.7,0.7-1.1c0,0.4-0.1,0.9-0.2,1.3
		C1260.6,414.7,1256.2,414.4,1253.9,411.9L1253.9,411.9z"/>
</g>
<circle class="st25" cx="1244.5" cy="393.1" r="1.1"/>
<circle class="st25" cx="1263.1" cy="387.7" r="1.1"/>
<g>
	<circle class="st66" cx="1244.5" cy="393.1" r="6.8"/>
	<g>
		<path class="st67" d="M1251.3,392.5c0.3,3.7-2.4,7-6.2,7.3c-3.7,0.3-7-2.4-7.3-6.2c-0.3-3.7,2.4-7,6.2-7.3
			C1247.7,386,1251,388.7,1251.3,392.5z"/>
	</g>
</g>
<g>
	<circle class="st66" cx="1263.2" cy="387.7" r="6.8"/>
	<g>
		<path class="st67" d="M1269.9,387.2c0.3,3.7-2.4,7-6.2,7.3c-3.7,0.3-7-2.4-7.3-6.2c-0.3-3.7,2.4-7,6.2-7.3
			C1266.3,380.7,1269.6,383.4,1269.9,387.2z"/>
	</g>
</g>
<g>
	<path d="M1250.3,381.6c3.6,5,6.5,10.7,8.7,16.2c0.6,1.8-2.3,1.8-3.4,1.7c-0.4,0-0.8-0.1-1.1-0.1c0,0,0-0.1,0-0.1
		c1.1-0.1,2.3-0.1,3.3-0.5c0.3-0.1,0.7-0.4,0.6-0.7C1256,393.4,1252.6,386.5,1250.3,381.6C1250.2,381.7,1250.3,381.6,1250.3,381.6
		L1250.3,381.6z"/>
</g>
<path class="st68" d="M1250.7,390.3c0,0,1.3-5.7,5.7-1.7"/>
<path class="st28" d="M1237.4,394.4l-8,1.2c0,0-1.9-1-2.9,2.3"/>
<path class="st27" d="M1309.3,450.8"/>
<g>
	<path class="st24" d="M1276.5,398.8c4.8,16.5,9.3,42.7,0.7,58.3C1284.5,440.8,1280,415.9,1276.5,398.8L1276.5,398.8z"/>
</g>
<g>
	<path class="st24" d="M1219.2,362.4c-7.3,24.2-12.3,49.1-14.2,74.3c0,0-0.1,2.6-0.1,2.6s-0.3,5.2-0.3,5.2
		C1204.5,416.6,1209.9,388.7,1219.2,362.4L1219.2,362.4z"/>
</g>
<g>
	<path class="st22" d="M1323.7,491.1c0,0,7.6-6.3,9.2-8.7c1.5-2.4,3.9-9.2,4.5-9.8c0.6-0.6,1.5-1.2,2.5-0.6s1.2,5.9,0.7,7.6
		c-0.5,1.7-2.9,6.7-2.7,7.7c0.2,1.1,16.6-1.7,26.1-3.9c0,0,2.3-0.1,2,1.4c-0.3,1.5-0.7,1.5-1.6,1.9s-14.2,5-14.4,5.7
		c-0.2,0.7-1.1,1.7,0.6,1.8s16.2-0.9,17.8-0.7s2.1,1.3,2.2,2.1c0.1,0.8-0.6,2.1-1.6,2c-0.9-0.1-19.3,1.4-19.3,1.4
		c-0.3,0-0.7,0.8,0,1c0.4,0.1,18.6-1.4,19-1.3c1,0.3,1.4,1.7,0.6,2.5c-0.5,0.5-15.8,2.4-19,2.8c-0.4,0-0.8,0.3-0.9,0.7
		c-0.1,0.4,0,0.9,0.4,1.4c0.8,0.9,11.5,2.8,12.5,3.3c0.9,0.4,1.1,2.1,0.6,2.5c-0.7,0.6-14.5-0.6-17.1-0.5s-18.9,0.4-18.9,0.4
		L1323.7,491.1z"/>
</g>
<g>
	<path class="st65" d="M1231.7,399.7c-0.4-0.4-0.9-1.2-1.5-1.2c-0.9,0.4-1.2,1.1-1,2c0.1,0.8,0.1,1.7,0.3,2.5
		c0.4,0.7,0.5,1.7,1.4,1.9c-1,0.2-1.5-0.9-2-1.7c-0.4-1.3-0.7-2.8-0.3-4.1c0.3-0.6,0.8-0.9,1.5-1.1
		C1231,397.9,1231.4,399,1231.7,399.7L1231.7,399.7z"/>
</g>
<g>
	<path class="st65" d="M1231.7,401.7c-0.2,0.3-0.3,0.3-0.3,0.6c-0.1,0.4-0.2,1.2-0.5,0.4C1230.8,402.2,1231.1,401.5,1231.7,401.7
		L1231.7,401.7z"/>
</g>
<path class="st68" d="M1349.6,500c0,0-2.1,1.7-0.2,4.7"/>
<path class="st53" d="M1228.4,435.2c0,0-20.8,18.2-21.7,31.4c-0.9,13.2,25.8,53.1,27.7,58.3s4.3,9.4,3.7,15.6s-4.5,49.8-3.2,54.1
	c1.4,4.4,68.3-4.8,89.1-11.3c0,0-18.1-28.2-23.4-55.5l26.9-15.6l-3.7-24.6l-26.2,8.1c0,0-1.1-16.6-11.4-28.5s-22.6-24.3-25.8-30.5
	L1228.4,435.2z"/>
<path class="st69" d="M1220.5,443c0,0,17.1,5.4,46.1,2.9"/>
<path class="st69" d="M1213.9,452c0,0,21.7,5,59.4,1.8"/>
<path class="st69" d="M1209.3,460.7c0,0,25.5,4.7,70.6,0.8"/>
<path class="st69" d="M1222.8,505.9c0,0,13.8,1.3,35.5-4.9"/>
<path class="st69" d="M1217.2,496c0,0,13.8,2.1,36.2-3"/>
<path class="st69" d="M1212.9,487.4c0,0,13.7,2.7,36.2-1.3"/>
<path class="st69" d="M1210.2,478.7c0,0,13.1,2.9,34.4-0.9"/>
<path class="st69" d="M1207.2,467.7c0,0,12.1,4.3,32.6,3"/>
<path class="st69" d="M1262.3,507c-19.8,8.6-33.2,8.8-33.2,8.8"/>
<path class="st69" d="M1239.3,529c0,0,11.1-5.6,23.7-20.9"/>
<path class="st69" d="M1249.9,539c0,0,8.4-10.7,14.5-32"/>
<path class="st69" d="M1261.6,537.1c0,0,6.3-11.2,8.5-31.6"/>
<path class="st69" d="M1278.2,502.9c0.6,20.1-4.2,31.7-4.2,31.7"/>
<path class="st69" d="M1282.6,532.5c0,0,4.7-11.9,4.1-32.4"/>
<path class="st69" d="M1291.5,530.1c0,0,4.7-11.9,4.1-32.5"/>
<path class="st69" d="M1302.6,526.5c0,0,4.3-12,2.9-32.4"/>
<path class="st69" d="M1312.2,520.5c0,0,4-11,2.1-29.3"/>
<path class="st69" d="M1322.1,515.9c0,0,3-10.5-0.5-26.8"/>
<path class="st69" d="M1257.1,496.6c0,0,32.6-0.8,40-4.5"/>
<path class="st69" d="M1252.7,488.5c0,0,34-0.9,41.7-4.6"/>
<path class="st69" d="M1248.2,480.3c0,0,34.8-1,42.7-4.7"/>
<path class="st69" d="M1243.4,472.5c0,0,34.3-1.2,42.1-4.5"/>
<path class="st69" d="M1237.5,533.4c0,0,3,0.4,5.7,0.6"/>
<path class="st69" d="M1237.8,543.6c0,0,39.9,1.8,65.3-5.7"/>
<path class="st69" d="M1236.9,551.8c0,0,42,1.6,68.9-6"/>
<path class="st69" d="M1236.3,559.5c0,0,44.3,1.4,72.7-6.3"/>
<path class="st69" d="M1235.9,568.1c0,0,46.6,0.9,76.5-6.6"/>
<path class="st69" d="M1235.1,576c0,0,49.5,0.7,81.3-7"/>
<path class="st69" d="M1235.2,584.1c0,0,51.7,0.5,84.9-7.4"/>
<path class="st69" d="M1234.9,591.1c0,0,53.1,0.3,87.3-7.6"/>
<polyline class="st70" points="1238,465.7 1262.8,507.4 1297.5,496.2 "/>
<path class="st70" d="M1233.4,522.9c0,0,13.2,16.2,17,17.4c0,0,40.4-8.4,50.2-12.4"/>
<path class="st70" d="M1286.4,467.4c0,0,8,9.7,9.7,18.1"/>
<g>
	<path class="st22" d="M1414.5,461c-0.2,0.2-0.3,0.4-0.5,0.5c-0.5,0.4-1.4,0.9-2,0.8c-0.9-0.2-2-1.1-1.9-1.6s0.8-2.4,0.8-2.4
		s-0.1-1-0.9-0.6c-0.8,0.4-3,1.5-4.8,2.4c-1.6,0.8-2.9,0.8-3.5,0.2c0,0,0-0.1-0.1-0.1c-0.6-0.6-1.3-1.1-2.1-1.1
		c-0.2,0-0.3,0-0.5-0.1c-0.9-0.5-2.1-1.7-1.9-2.2c0.2-0.5-0.1-1.2,0.4-1.8c0.5-0.6,0.5-1,0.5-1s-4.5-2.6-2.9-4.7
		c0.9-1.2,3.1-3.2,4.7-4.6c0.9-0.7,1.1-1.9,0.9-3c0-0.1,0-0.1,0-0.2c0.1-0.7,2.1-6,2.9-6.5c0.9-0.5,1.5-0.8,2.1-0.7
		c0.6,0.2,2.2,1.8,2.1,2.3c-0.1,0.5-0.6,1.7-1.1,2.1c-0.5,0.5,0.8,0.2,1.3,0.6c0.5,0.4,2.9,2.6,2.9,3.1c0,0.5-0.9,1.9-0.9,1.9
		s1.5-0.4,2.2-0.1c0.6,0.3,2.1,1.6,2.6,2.5c0.5,0.9,0,2-0.3,2.4c-0.2,0.4,0.5,0,1.1,0.2s1.9,2.1,2.2,2.6c0.3,0.5,1.5,0.9,0.9,2
		c-0.5,1-2.5,4.5-3,5.4c-0.1,0.1-0.2,0.3-0.3,0.4L1414.5,461z"/>
</g>
<g>
	<path class="st65" d="M1407,439.2l-4.9,3.5l4.2-4.3C1406.8,438,1407.6,438.8,1407,439.2L1407,439.2z"/>
</g>
<g>
	<path class="st65" d="M1411,444l-12.7,9.9l12-10.6C1410.8,442.8,1411.5,443.6,1411,444L1411,444z"/>
</g>
<g>
	<path class="st65" d="M1414.8,448.9l-13.2,9.1l12.7-9.9C1414.7,447.7,1415.3,448.5,1414.8,448.9L1414.8,448.9z"/>
</g>
<g>
	<path class="st65" d="M1410.5,457.2l6.8-6.1l-6.1,6.8C1410.8,458.5,1410,457.7,1410.5,457.2L1410.5,457.2z"/>
</g>
</svg>
