<?xml version="1.0" encoding="utf-8"?>
<!-- Generator: Adobe Illustrator 27.4.1, SVG Export Plug-In . SVG Version: 6.00 Build 0)  -->
<svg version="1.1" id="Cadre_x5F_blanc" xmlns="http://www.w3.org/2000/svg" xmlns:xlink="http://www.w3.org/1999/xlink" x="0px"
	 y="0px" viewBox="0 0 750 500" style="enable-background:new 0 0 750 500;" xml:space="preserve">
<style type="text/css">
	.st0{display:none;fill:url(#SVGID_1_);}
	.st1{display:none;}
	.st2{display:inline;}
	.st3{fill:#6FADA8;}
	.st4{fill:#6A9B96;}
	.st5{fill:#87C1B9;}
	.st6{fill:#508C85;}
	.st7{fill:#467971;}
	.st8{fill:#FEF9E4;}
	.st9{fill:url(#SVGID_00000075867755159905435530000007624428279444276656_);}
	.st10{opacity:0.5;}
	.st11{clip-path:url(#SVGID_00000121241820122915912700000010246657491719339425_);}
	.st12{display:none;opacity:0.7;}
	.st13{clip-path:url(#SVGID_00000052077743619266548730000016816815859408281500_);}
	.st14{fill:#2E4C48;}
	.st15{display:none;opacity:0.8;}
	.st16{clip-path:url(#SVGID_00000025441152247223633680000007771869550162260353_);}
	.st17{fill:#1A2F2F;}
	.st18{opacity:0.4;fill:#FFDF98;enable-background:new    ;}
	.st19{opacity:0.5;fill:#FFDF98;enable-background:new    ;}
	.st20{clip-path:url(#SVGID_00000029025419927191225070000001681668699551556252_);}
	.st21{clip-path:url(#SVGID_00000139265384351684641400000000704199725643720832_);}
	.st22{opacity:0.2;fill:url(#SVGID_00000012448050339913911260000007172722326078494860_);enable-background:new    ;}
	.st23{opacity:0.2;fill:#FFFFFF;enable-background:new    ;}
</style>
<linearGradient id="SVGID_1_" gradientUnits="userSpaceOnUse" x1="375" y1="499.4646" x2="375" y2="-0.5354" gradientTransform="matrix(1 0 0 -1 0 499.4646)">
	<stop  offset="0" style="stop-color:#D4F3EB"/>
	<stop  offset="6.933849e-02" style="stop-color:#DAF5E5"/>
	<stop  offset="0.3725" style="stop-color:#EDFAD2"/>
	<stop  offset="0.6786" style="stop-color:#F9FDC6"/>
	<stop  offset="0.9902" style="stop-color:#FDFEC2"/>
</linearGradient>
<rect y="0" class="st0" width="750" height="500"/>
<g>
	<g>
		<g class="st1">
			<g class="st2">
				<g>
					<path class="st3" d="M750,135l-10.5-3c0,0-22-18-26-19s-32.5-11.5-35-12.5s-31-19-34.5-19.5s-46.5-26-48.5-25.5
						s-24.5,22.5-28,24S534,109,531.5,111s-27,33-29,35S474,163,472,163.5S443.5,174,441.5,176s-34,34-34,34L381,221l-36-7.5
						l-29.5-7.5L293,187.5l-15.5-7.5c0,0-19.5-25-21-26s-15.5-7-17.5-8.5S217.5,125,217.5,125s-24.5,19.5-26,19.5s-25.5,12-28,13
						S141,177,139,177.5s-25.5,8-27,8s-31.5,3-33,4s-18,10-19.5,10.5s-20,3.5-21.5,4s-16,1-18.5,2.5c-1.6,0.9-12,6.4-19.5,10.3V500
						h750V135z"/>
					<path class="st4" d="M163.5,157.5c-2.5,1-22.5,19.5-24.5,20s-25.5,8-27,8s-31.5,3-33,4s-18,10-19.5,10.5s-20,3.5-21.5,4
						s-16,1-18.5,2.5c-1.6,0.9-12,6.4-19.5,10.3v99.7h363.5l-14-21c0,0-26.5-23-29.5-24s-16.5-12-16.5-12l-27,16.5l22.5-22.5
						c0,0-8-13.5-11-14s-10-12-12.5-13S263,214,263,214l-36.5,15.5L263,207c0,0-5-3.5-8-4.5s-11.5-9.5-11.5-9.5l-11-18.5l-24.5,15
						l24.5-24.5c0,0-6.5-9.5-8.5-12s-6.5-28-6.5-28s-24.5,19.5-26,19.5S166,156.5,163.5,157.5z"/>
					<path class="st5" d="M255.5,157.5l16,22.2l21.5,7.8l-15.5-7.5c0,0-19.5-25-21-26s-15.5-7-17.5-8.5S217.5,125,217.5,125l22,27
						L255.5,157.5z"/>
					<path class="st4" d="M399,250c0,0-11,15-12,16.5s-71.5,50-71.5,50h198l16.5-38l-73,19l74.5-26L528,253c0,0,2-29,3-32
						s13.8-20,13.8-20l-50.8,6l50.5-11.5c0,0-2-9-1-11.5s9.5-16,12-19s8-14,8.5-16.5s2.5-17.5,2.5-17.5L528,143l40-19
						c0,0,0.5-11.5,3-14s14-20,15.5-23s9-31.5,9-31.5c-2,0.5-24.5,22.5-28,24S534,109,531.5,111s-27,33-29,35S474,163,472,163.5
						S443.5,174,441.5,176s-34,34-34,34l-20,30.5L399,250z"/>
					<path class="st5" d="M662.5,96.5l10,11.5l41.5,9.5l21.5,23H750V135l-10.5-3c0,0-22-18-26-19s-32.5-11.5-35-12.5
						s-31-19-34.5-19.5c-3.4-0.5-44.7-25-48.3-25.5h-0.2l35,26L662.5,96.5z"/>
				</g>
				<g>
					<g>
						<path class="st6" d="M750,251.1c-15,5.2-36.1,12.6-38,13.9c-3,2-23,17.5-26.5,19s-26.5,7.5-30,7.5s-30,3.5-34,3.5
							s-40-12.5-44-12.5s-17-2-21.5-1.5s-25,4-28,4.5s-28.5,10-31.5,12.5s-23.5-2.5-26-3s-27.5-8-32.5-8s-10.5,4-13.5,4.5
							s-14.5,0-18-1.5s-10-7-14.5-6.5s-18.5,3-20.5,2.5s-21,0.5-23.5,0.5s-13,6.5-16.5,6.5s-13-3.5-18.5-4s-21-4.5-26-4.5
							s-25.5,4.5-32,5.5s-19,2-23,3.5s-11,5-15.5,4.5s-18-5.5-22-6.5s-41.5-6.5-47.5-7s-11.5-5.5-13.5-7s-16-5.5-20-6
							s-22.5-10-27-10s-29,1-32,0s-7.5-5-10-6s-17-7-23-5.5c-3.7,0.9-14,0.7-21.5,0.4V500h750V251.1z"/>
						<polygon class="st6" points="189.4,297.3 198.4,261.4 207.4,297.3 						"/>
						<polygon class="st6" points="238.5,292.2 247.5,256.3 256.5,292.2 						"/>
						<polygon class="st6" points="226.3,297.3 235.3,261.4 244.3,297.3 						"/>
						<polygon class="st6" points="143,294 152.1,258.1 161.1,294 						"/>
						<polygon class="st6" points="152.1,290.1 161.1,254.2 170.1,290.1 						"/>
						<polygon class="st6" points="182.8,298.2 189.4,272.1 195.9,298.2 						"/>
						<polygon class="st6" points="214.6,300.3 221.1,274.2 227.7,300.3 						"/>
						<polygon class="st6" points="253.3,298.2 259.9,272.1 266.4,298.2 						"/>
						<polygon class="st6" points="331.8,294 340.8,258.1 349.8,294 						"/>
						<polygon class="st6" points="355,293.2 364,257.3 373,293.2 						"/>
						<polygon class="st6" points="320.3,297.3 329.3,261.4 338.3,297.3 						"/>
						<polygon class="st6" points="275,288.1 284,252.2 293,288.1 						"/>
						<polygon class="st6" points="286,292.2 295,256.3 304,292.2 						"/>
						<polygon class="st6" points="343.2,296.3 349.8,270.2 356.3,296.3 						"/>
						<polygon class="st6" points="309,296.3 315.5,270.2 322,296.3 						"/>
						<polygon class="st6" points="382,294.2 388.5,268.1 395.1,294.2 						"/>
						<polygon class="st6" points="373,287.3 379.6,261.2 386.1,287.3 						"/>
						<polygon class="st6" points="468.1,298.6 477.1,262.7 486.1,298.6 						"/>
						<polygon class="st6" points="491.3,297.8 500.3,261.9 509.3,297.8 						"/>
						<polygon class="st6" points="548,283.7 557,247.8 566,283.7 						"/>
						<polygon class="st6" points="524.9,289.2 533.9,253.3 542.9,289.2 						"/>
						<polygon class="st6" points="560.7,290.1 569.7,254.2 578.7,290.1 						"/>
						<polygon class="st6" points="697.7,278.8 706.7,242.9 715.7,278.8 						"/>
						<polygon class="st6" points="731.9,260.9 740.9,224.9 749.9,260.9 						"/>
						<polygon class="st6" points="602.7,295.7 611.7,259.8 620.7,295.7 						"/>
						<polygon class="st6" points="456.7,297.8 465.7,261.9 474.7,297.8 						"/>
						<polygon class="st6" points="411.3,292.7 420.3,256.8 429.3,292.7 						"/>
						<polygon class="st6" points="422.3,296.8 431.3,260.9 440.3,296.8 						"/>
						<polygon class="st6" points="486.1,300.9 492.7,274.8 499.2,300.9 						"/>
						<polygon class="st6" points="438.7,290.8 445.3,264.7 451.8,290.8 						"/>
						<polygon class="st6" points="445.3,300.9 451.8,274.8 458.4,300.9 						"/>
						<polygon class="st6" points="454.6,293.7 461.1,267.6 467.7,293.7 						"/>
						<polygon class="st6" points="400.6,293.7 407.2,267.6 413.7,293.7 						"/>
						<polygon class="st6" points="686.4,293.6 695.5,257.7 704.5,293.6 						"/>
						<polygon class="st6" points="675,292.8 684,256.9 693,292.8 						"/>
						<polygon class="st6" points="629.7,297.1 638.7,261.2 647.7,297.1 						"/>
						<polygon class="st6" points="640.7,301.2 649.7,265.3 658.7,301.2 						"/>
						<polygon class="st6" points="657.1,295.2 663.6,269.1 670.2,295.2 						"/>
						<polygon class="st6" points="663.6,305.3 670.2,279.2 676.7,305.3 						"/>
						<polygon class="st6" points="710.5,272.8 717,246.7 723.6,272.8 						"/>
						<polygon class="st6" points="725.4,260.9 731.9,234.8 738.5,260.9 						"/>
						<polygon class="st6" points="672.9,288.7 679.5,262.6 686,288.7 						"/>
						<polygon class="st6" points="619,298.1 625.5,272 632,298.1 						"/>
						<polygon class="st6" points="518.3,298.8 524.9,272.7 531.4,298.8 						"/>
						<polygon class="st6" points="578.7,297.3 585.2,271.2 591.8,297.3 						"/>
						<polygon class="st6" points="585.2,303.2 591.8,277.1 598.3,303.2 						"/>
						<polygon class="st6" points="591.8,291.9 598.3,265.8 604.8,291.9 						"/>
						<polygon class="st6" points="509.3,291.9 515.9,265.8 522.4,291.9 						"/>
						<polygon class="st6" points="538.3,285.2 544.9,259.1 551.4,285.2 						"/>
						<polygon class="st6" points="167.2,289.9 173.8,263.8 180.3,289.9 						"/>
						<polygon class="st6" points="72,268 81,232 90,268 						"/>
						<polygon class="st6" points="100,281.8 109,245.8 118,281.8 						"/>
						<polygon class="st6" points="91,270.2 100,234.3 109,270.2 						"/>
						<polygon class="st6" points="7.7,263.8 16.7,227.9 25.7,263.8 						"/>
						<polygon class="st6" points="28.8,257.1 37.8,221.2 46.8,257.1 						"/>
						<polygon class="st6" points="16.7,257.1 25.7,221.2 34.7,257.1 						"/>
						<polygon class="st6" points="62,265.3 68.6,239.2 75.1,265.3 						"/>
						<polygon class="st6" points="84.5,269.1 91,243 97.5,269.1 						"/>
						<polygon class="st6" points="118,282.2 124.5,256.1 131.1,282.2 						"/>
						<polygon class="st6" points="42.1,263.1 48.7,236.9 55.2,263.1 						"/>
					</g>
				</g>
				<path class="st7" d="M0,287.8c0,0,52.1,8.1,59.4,8.7s32,0.1,34.6,0c2.7-0.1,23.3,10.5,23.3,10.5s54.7,7.8,57.4,7.6
					c2.7-0.2,30.9-4.5,30.9-4.5s31.3,3.9,33.7,1.1c2.5-2.9,50.7-1.2,53.7,1.3s46.1,1.3,52,2.2c5.8,0.9,64.4-9.2,67.7-7.8
					c3.3,1.4,39,7,42.1,7.5s61.8-1,64.7,0.1c3,1.1,63.1-13.3,69.2-15.1c6.1-1.8,37.9,3,44.3,2s49.6,1.9,53.9-0.4
					c4.3-2.3,63.1-16.8,63.1-16.8V500H0V287.8z"/>
			</g>
			<g class="st2">
				<g>
					<path class="st8" d="M535.8,138.9c-2.2-2.5-4.4-5.4-7.4-6.2c-2.2-0.8-4.7,1-6.4,0.6c-2.1-0.4-3.5-2.5-5.6-3.3
						c-3.9-1.2-7.7-1.5-12-1.8c-4.7,0.1-8.1-0.2-11.6-1.9c-4.3-2-6.5-4.5-11.2-4.8c-4.3-0.3-8.1,2.3-11.9,2.8
						c-4.7,0.5-8.1-1.5-12.3,1.2c-3.8,2.7-5.8,8.2-10,10.5c-3.8,1.8-9,0.2-11.4,4.5L535.8,138.9z"/>
				</g>
				<g>
					<path class="st8" d="M47.1,168.6c3.4-3.9,6.8-8.4,11.5-9.7c3.3-1.2,7.2,1.5,9.9,0.9c3.3-0.6,5.4-3.8,8.7-5.1
						c6-1.8,12-2.4,18.6-2.9c7.3,0.2,12.6-0.4,18-2.9c6.7-3.1,10.1-7,17.4-7.5c6.6-0.5,12.5,3.6,18.4,4.4c7.3,0.8,12.6-2.3,19.2,1.8
						c5.9,4.1,9,12.8,15.5,16.3c5.9,2.8,13.9,0.3,17.7,7.1L47.1,168.6z"/>
				</g>
				<g>
					<path class="st8" d="M324.2,79.2c-9.2-6.9-15.2-5-24.5-5.9c-11.3-1.6-18.5-7.8-29-12.7c-11.2-5.6-25.3-3.3-35.8-7.6
						c-11.9-4.3-22.3-14.6-35.7-12.2c-16.1,2.9-18.4,17.5-30,24.6c-9.5,5.8-25.4,3.4-31,13.9L324.2,79.2z"/>
				</g>
				<g>
					<path class="st8" d="M741.3,85.6c-2.5-12-11.6-12.2-20.7-11.9c-13.6,0.2-15-10.6-26.2-17.2c-12.9-6.6-22-4-34.1,1.3
						c-11.5,4.8-23.1,15.8-34.5,16.1c-10.8,0.3-22.1-2.9-31.3,2.6c-2.3,1.6-4.7,5-7.5,6c-2.9,1.1-4.5-0.1-6.8,0.4
						c-4.6,1-8.6,3.2-12.6,4.8L741.3,85.6z"/>
				</g>
				<g>
					<path class="st8" d="M72.8,96.2c1.3-6.1,5.9-6.3,10.6-6.1c7,0.1,7.7-5.4,13.4-8.8c6.6-3.4,11.3-2,17.5,0.7
						c5.9,2.5,11.8,8.1,17.7,8.2c5.5,0.1,11.3-1.5,16,1.3c1.2,0.8,2.4,2.6,3.9,3.1s2.3-0.1,3.5,0.2c2.3,0.5,4.4,1.6,6.5,2.4
						L72.8,96.2z"/>
				</g>
			</g>
		</g>
		<g>
			<g>
				
					<linearGradient id="SVGID_00000153666692135667436700000005748649987915276221_" gradientUnits="userSpaceOnUse" x1="375" y1="-0.5354" x2="375" y2="176.3646" gradientTransform="matrix(1 0 0 -1 0 499.4646)">
					<stop  offset="0" style="stop-color:#D4F3EB"/>
					<stop  offset="0.307" style="stop-color:#D8F4E7"/>
					<stop  offset="0.6204" style="stop-color:#E4F7DB"/>
					<stop  offset="0.9359" style="stop-color:#F9FDC6"/>
					<stop  offset="0.9902" style="stop-color:#FDFEC2"/>
				</linearGradient>
				<rect y="323.1" style="fill:url(#SVGID_00000153666692135667436700000005748649987915276221_);" width="750" height="176.9"/>
				<g class="st10">
					<g>
						<defs>
							<rect id="SVGID_00000060746861508819689700000007776859945831593627_" y="323.1" width="750" height="176.9"/>
						</defs>
						<clipPath id="SVGID_00000158720330459657764010000012126812574363103635_">
							<use xlink:href="#SVGID_00000060746861508819689700000007776859945831593627_"  style="overflow:visible;"/>
						</clipPath>
						<g style="clip-path:url(#SVGID_00000158720330459657764010000012126812574363103635_);">
							<g>
								<g>
									<path class="st3" d="M750,511l-10.5,3c0,0-22,18-26,19s-32.5,11.5-35,12.5s-31,19-34.5,19.5s-46.5,26-48.5,25.5
										s-24.5-22.5-28-24S534,537,531.5,535s-27-33-29-35S474,483,472,482.5S443.5,472,441.5,470s-34-34-34-34L381,425l-36,7.5
										l-29.5,7.5L293,458.5l-15.5,7.5c0,0-19.5,25-21,26s-15.5,7-17.5,8.5S217.5,521,217.5,521s-24.5-19.5-26-19.5
										s-25.5-12-28-13S141,469,139,468.5s-25.5-8-27-8s-31.5-3-33-4s-18-10-19.5-10.5s-20-3.5-21.5-4s-16-1-18.5-2.5
										c-1.6-0.9-12-6.4-19.5-10.3V146h750V511z"/>
									<path class="st4" d="M163.5,488.5c-2.5-1-22.5-19.5-24.5-20s-25.5-8-27-8s-31.5-3-33-4s-18-10-19.5-10.5s-20-3.5-21.5-4
										s-16-1-18.5-2.5c-1.6-0.9-12-6.4-19.5-10.3v-99.7h363.5l-14,21c0,0-26.5,23-29.5,24s-16.5,12-16.5,12l-27-16.5l22.5,22.5
										c0,0-8,13.5-11,14s-10,12-12.5,13S263,432,263,432l-36.5-15.5L263,439c0,0-5,3.5-8,4.5s-11.5,9.5-11.5,9.5l-11,18.5
										l-24.5-15l24.5,24.5c0,0-6.5,9.5-8.5,12s-6.5,28-6.5,28s-24.5-19.5-26-19.5S166,489.5,163.5,488.5z"/>
									<path class="st5" d="M255.5,488.5l16-22.2l21.5-7.8l-15.5,7.5c0,0-19.5,25-21,26s-15.5,7-17.5,8.5S217.5,521,217.5,521
										l22-27L255.5,488.5z"/>
									<path class="st4" d="M399,396c0,0-11-15-12-16.5s-71.5-50-71.5-50h198l16.5,38l-73-19l74.5,26L528,393c0,0,2,29,3,32
										s13.8,20,13.8,20l-50.8-6l50.5,11.5c0,0-2,9-1,11.5s9.5,16,12,19s8,14,8.5,16.5s2.5,17.5,2.5,17.5L528,503l40,19
										c0,0,0.5,11.5,3,14s14,20,15.5,23s9,31.5,9,31.5c-2-0.5-24.5-22.5-28-24S534,537,531.5,535s-27-33-29-35S474,483,472,482.5
										S443.5,472,441.5,470s-34-34-34-34l-20-30.5L399,396z"/>
									<path class="st5" d="M662.5,549.5l10-11.5l41.5-9.5l21.5-23H750v5.5l-10.5,3c0,0-22,18-26,19s-32.5,11.5-35,12.5
										s-31,19-34.5,19.5c-3.4,0.5-44.7,25-48.3,25.5h-0.2l35-26L662.5,549.5z"/>
								</g>
								<g class="st1">
									<g class="st2">
										<path class="st6" d="M750,394.9c-15-5.2-36.1-12.6-38-13.9c-3-2-23-17.5-26.5-19s-26.5-7.5-30-7.5s-30-3.5-34-3.5
											s-40,12.5-44,12.5s-17,2-21.5,1.5s-25-4-28-4.5s-28.5-10-31.5-12.5s-23.5,2.5-26,3s-27.5,8-32.5,8s-10.5-4-13.5-4.5
											s-14.5,0-18,1.5s-10,7-14.5,6.5s-18.5-3-20.5-2.5s-21-0.5-23.5-0.5s-13-6.5-16.5-6.5s-13,3.5-18.5,4s-21,4.5-26,4.5
											s-25.5-4.5-32-5.5s-19-2-23-3.5s-11-5-15.5-4.5s-18,5.5-22,6.5s-41.5,6.5-47.5,7s-11.5,5.5-13.5,7s-16,5.5-20,6
											s-22.5,10-27,10s-29-1-32,0s-7.5,5-10,6s-17,7-23,5.5c-3.7-0.9-14-0.7-21.5-0.4V146h750V394.9z"/>
										<polygon class="st6" points="189.4,348.7 198.4,384.6 207.4,348.7 										"/>
										<polygon class="st6" points="238.5,353.8 247.5,389.7 256.5,353.8 										"/>
										<polygon class="st6" points="226.3,348.7 235.3,384.6 244.3,348.7 										"/>
										<polygon class="st6" points="143,352 152.1,387.9 161.1,352 										"/>
										<polygon class="st6" points="152.1,355.9 161.1,391.8 170.1,355.9 										"/>
										<polygon class="st6" points="182.8,347.8 189.4,373.9 195.9,347.8 										"/>
										<polygon class="st6" points="214.6,345.7 221.1,371.8 227.7,345.7 										"/>
										<polygon class="st6" points="253.3,347.8 259.9,373.9 266.4,347.8 										"/>
										<polygon class="st6" points="331.8,352 340.8,387.9 349.8,352 										"/>
										<polygon class="st6" points="355,352.8 364,388.7 373,352.8 										"/>
										<polygon class="st6" points="320.3,348.7 329.3,384.6 338.3,348.7 										"/>
										<polygon class="st6" points="275,357.9 284,393.8 293,357.9 										"/>
										<polygon class="st6" points="286,353.8 295,389.7 304,353.8 										"/>
										<polygon class="st6" points="343.2,349.7 349.8,375.8 356.3,349.7 										"/>
										<polygon class="st6" points="309,349.7 315.5,375.8 322,349.7 										"/>
										<polygon class="st6" points="382,351.8 388.5,377.9 395.1,351.8 										"/>
										<polygon class="st6" points="373,358.7 379.6,384.8 386.1,358.7 										"/>
										<polygon class="st6" points="468.1,347.4 477.1,383.3 486.1,347.4 										"/>
										<polygon class="st6" points="491.3,348.2 500.3,384.1 509.3,348.2 										"/>
										<polygon class="st6" points="548,362.3 557,398.2 566,362.3 										"/>
										<polygon class="st6" points="524.9,356.8 533.9,392.8 542.9,356.8 										"/>
										<polygon class="st6" points="560.7,355.9 569.7,391.8 578.7,355.9 										"/>
										<polygon class="st6" points="697.7,367.2 706.7,403.1 715.7,367.2 										"/>
										<polygon class="st6" points="731.9,385.2 740.9,421.1 749.9,385.2 										"/>
										<polygon class="st6" points="602.7,350.3 611.7,386.2 620.7,350.3 										"/>
										<polygon class="st6" points="456.7,348.2 465.7,384.1 474.7,348.2 										"/>
										<polygon class="st6" points="411.3,353.3 420.3,389.2 429.3,353.3 										"/>
										<polygon class="st6" points="422.3,349.2 431.3,385.2 440.3,349.2 										"/>
										<polygon class="st6" points="486.1,345.2 492.7,371.3 499.2,345.2 										"/>
										<polygon class="st6" points="438.7,355.2 445.3,381.3 451.8,355.2 										"/>
										<polygon class="st6" points="445.3,345.2 451.8,371.3 458.4,345.2 										"/>
										<polygon class="st6" points="454.6,352.3 461.1,378.4 467.7,352.3 										"/>
										<polygon class="st6" points="400.6,352.3 407.2,378.4 413.7,352.3 										"/>
										<polygon class="st6" points="686.4,352.4 695.5,388.3 704.5,352.4 										"/>
										<polygon class="st6" points="675,353.2 684,389.1 693,353.2 										"/>
										<polygon class="st6" points="629.7,348.9 638.7,384.8 647.7,348.9 										"/>
										<polygon class="st6" points="640.7,344.8 649.7,380.8 658.7,344.8 										"/>
										<polygon class="st6" points="657.1,350.8 663.6,376.9 670.2,350.8 										"/>
										<polygon class="st6" points="663.6,340.8 670.2,366.9 676.7,340.8 										"/>
										<polygon class="st6" points="710.5,373.2 717,399.3 723.6,373.2 										"/>
										<polygon class="st6" points="725.4,385.2 731.9,411.3 738.5,385.2 										"/>
										<polygon class="st6" points="672.9,357.3 679.5,383.4 686,357.3 										"/>
										<polygon class="st6" points="619,347.9 625.5,374 632,347.9 										"/>
										<polygon class="st6" points="518.3,347.3 524.9,373.4 531.4,347.3 										"/>
										<polygon class="st6" points="578.7,348.7 585.2,374.8 591.8,348.7 										"/>
										<polygon class="st6" points="585.2,342.9 591.8,369 598.3,342.9 										"/>
										<polygon class="st6" points="591.8,354.1 598.3,380.2 604.8,354.1 										"/>
										<polygon class="st6" points="509.3,354.1 515.9,380.2 522.4,354.1 										"/>
										<polygon class="st6" points="538.3,360.8 544.9,386.9 551.4,360.8 										"/>
										<polygon class="st6" points="167.2,356.1 173.8,382.2 180.3,356.1 										"/>
										<polygon class="st6" points="72,378.1 81,414 90,378.1 										"/>
										<polygon class="st6" points="100,364.3 109,400.2 118,364.3 										"/>
										<polygon class="st6" points="91,375.8 100,411.8 109,375.8 										"/>
										<polygon class="st6" points="7.7,382.2 16.7,418.1 25.7,382.2 										"/>
										<polygon class="st6" points="28.8,388.9 37.8,424.8 46.8,388.9 										"/>
										<polygon class="st6" points="16.7,388.9 25.7,424.8 34.7,388.9 										"/>
										<polygon class="st6" points="62,380.8 68.6,406.9 75.1,380.8 										"/>
										<polygon class="st6" points="84.5,376.9 91,403 97.5,376.9 										"/>
										<polygon class="st6" points="118,363.8 124.5,389.9 131.1,363.8 										"/>
										<polygon class="st6" points="42.1,383 48.7,409.1 55.2,383 										"/>
									</g>
								</g>
								<path class="st7" d="M0,358.2c0,0,52.1-8.1,59.4-8.7s32-0.1,34.6,0c2.7,0.1,23.3-10.5,23.3-10.5s54.7-7.8,57.4-7.6
									c2.7,0.2,30.9,4.5,30.9,4.5s31.3-3.9,33.7-1.1c2.5,2.9,50.7,1.2,53.7-1.3s46.1-1.3,52-2.2c5.8-0.9,64.4,9.2,67.7,7.8
									c3.3-1.4,39-7,42.1-7.5s61.8,1,64.7-0.1c3-1.1,63.1,13.3,69.2,15.1c6.1,1.8,37.9-3,44.3-2s49.6-1.9,53.9,0.4
									c4.3,2.3,63.1,16.8,63.1,16.8V146H0V358.2z"/>
							</g>
							<g>
								<g>
									<path class="st8" d="M535.8,507.1c-2.2,2.5-4.4,5.4-7.4,6.2c-2.2,0.8-4.7-1-6.4-0.6c-2.1,0.4-3.5,2.5-5.6,3.3
										c-3.9,1.2-7.7,1.5-12,1.8c-4.7-0.1-8.1,0.2-11.6,1.9c-4.3,2-6.5,4.5-11.2,4.8c-4.3,0.3-8.1-2.3-11.9-2.8
										c-4.7-0.5-8.1,1.5-12.3-1.2c-3.8-2.7-5.8-8.2-10-10.5c-3.8-1.8-9-0.2-11.4-4.5L535.8,507.1z"/>
								</g>
								<g>
									<path class="st8" d="M17.7,463.6c3.4,3.9,6.8,8.4,11.5,9.7c3.3,1.2,7.2-1.5,9.9-0.9c3.3,0.6,5.4,3.8,8.7,5.1
										c6,1.8,12,2.4,18.6,2.9c7.3-0.2,12.6,0.4,18,2.9c6.7,3.1,10.1,7,17.4,7.5c6.6,0.5,12.5-3.6,18.4-4.4
										c7.3-0.8,12.6,2.3,19.2-1.8c5.9-4.1,9-12.8,15.5-16.3c5.9-2.8,13.9-0.3,17.7-7.1L17.7,463.6z"/>
								</g>
								<g>
									<path class="st8" d="M324.2,566.8c-9.2,6.9-15.2,5-24.5,5.9c-11.3,1.6-18.5,7.8-29,12.7c-11.2,5.6-25.3,3.3-35.8,7.6
										c-11.9,4.3-22.3,14.6-35.7,12.2c-16.1-2.9-18.4-17.5-30-24.6c-9.5-5.8-25.4-3.4-31-13.9L324.2,566.8z"/>
								</g>
								<g>
									<path class="st8" d="M741.1,554.9c-3,14.1-13.6,14.4-24.3,14c-16-0.2-17.7,12.5-30.8,20.2c-15.1,7.7-25.9,4.7-40.1-1.6
										c-13.5-5.6-27.2-18.6-40.5-18.9c-12.7-0.3-25.9,3.4-36.8-3c-2.7-1.9-5.5-5.9-8.9-7.1s-5.3,0.1-8-0.4
										c-5.4-1.2-10.1-3.7-14.8-5.6L741.1,554.9z"/>
								</g>
								<g>
									<path class="st8" d="M72.8,549.9c1.3,6.1,5.9,6.3,10.6,6.1c7-0.1,7.7,5.4,13.4,8.8c6.6,3.4,11.3,2,17.5-0.7
										c5.9-2.5,11.8-8.1,17.7-8.2c5.5-0.1,11.3,1.5,16-1.3c1.2-0.8,2.4-2.6,3.9-3.1s2.3,0.1,3.5-0.2c2.3-0.5,4.4-1.6,6.5-2.4
										L72.8,549.9z"/>
								</g>
							</g>
						</g>
					</g>
				</g>
				<g class="st12">
					<g class="st2">
						<defs>
							<rect id="SVGID_00000147209109804915693780000007336601618151925661_" y="323.1" width="750" height="176.9"/>
						</defs>
						<clipPath id="SVGID_00000066479390448256072160000014656567767191888811_">
							<use xlink:href="#SVGID_00000147209109804915693780000007336601618151925661_"  style="overflow:visible;"/>
						</clipPath>
						<g style="clip-path:url(#SVGID_00000066479390448256072160000014656567767191888811_);">
							<path class="st14" d="M548,347c0,0,10.8,13.2,21.8,16.7s29.8,11.9,33.2,16.1s28.8,0.6,36.2,0s27.2,9.8,31.7,10.8
								s26.9,10.4,34.5,9.3s45.8,3.2,45.8,3.2V347H548z"/>
							<path class="st14" d="M728.3,394.8c2.5-1,4-1.2,4-1.2c-8,9.4-9,19.5-9,19.5c3.1-0.7,5.2,0,5.2,0c-3.1,1.7-5.5,4.9-5.5,4.9
								c2.5-0.8,3.8-1.2,3.8-1.2c-6.2,7.2-9.9,25.7-9.9,25.7c1.9-0.8,4.8-1.2,4.8-1.2c-5.1,9.7-6.3,16.9-6.3,16.9
								c1-0.4,2.4-0.1,2.4-0.1c-2,2.3-3.3,4.5-3.3,4.5l2.1-1c-3.8,2.7-5.4,13.3-5.4,13.3c1.1-0.8,2.6-0.6,2.6-0.6
								c-3.7,4-6.2,14-6.2,14s-2.5-10-6.2-14c0,0,1.5-0.2,2.6,0.6c0,0-1.6-10.7-5.4-13.3l2.1,1c0,0-1.3-2.3-3.3-4.5
								c0,0,1.4-0.3,2.4,0.1c0,0-1.2-7.3-6.3-16.9c0,0,2.9,0.4,4.8,1.2c0,0-3.7-18.5-9.9-25.7c0,0,1.3,0.4,3.8,1.2
								c0,0-2.4-3.2-5.5-4.9c0,0,2.1-0.7,5.2,0c0,0-1-10.1-9-19.5c0,0,1.5,0.1,4,1.2c0,0-2.4-5.2-6.2-10h26.8h26.8
								C730.7,389.5,728.3,394.8,728.3,394.8z"/>
							<path class="st14" d="M708.9,395.9c2-0.8,3.2-0.9,3.2-0.9c-6.3,7.5-7.2,15.5-7.2,15.5c2.5-0.5,4.1,0,4.1,0
								c-2.5,1.3-4.3,3.9-4.3,3.9c2-0.7,3-1,3-1c-4.9,5.7-7.8,20.4-7.8,20.4c1.5-0.6,3.8-1,3.8-1c-4.1,7.7-5,13.5-5,13.5
								c0.8-0.3,1.9-0.1,1.9-0.1c-1.6,1.8-2.6,3.6-2.6,3.6l1.7-0.8c-3,2.1-4.3,10.6-4.3,10.6c0.9-0.6,2.1-0.5,2.1-0.5
								c-2.9,3.2-4.9,11.1-4.9,11.1s-2-8-4.9-11.1c0,0,1.2-0.1,2.1,0.5c0,0-1.2-8.5-4.3-10.6l1.7,0.8c0,0-1-1.8-2.6-3.6
								c0,0,1.1-0.3,1.9,0.1c0,0-0.9-5.8-5-13.5c0,0,2.3,0.3,3.8,1c0,0-2.9-14.7-7.8-20.4c0,0,1.1,0.3,3,1c0,0-1.9-2.6-4.3-3.9
								c0,0,1.6-0.5,4.1,0c0,0-0.8-8-7.2-15.5c0,0,1.2,0.1,3.2,0.9c0,0-1.9-4.2-4.9-7.9h21.3H714
								C710.7,391.7,708.9,395.9,708.9,395.9z"/>
							<path class="st14" d="M751.3,399.9c2-0.8,3.2-0.9,3.2-0.9c-6.3,7.5-7.2,15.5-7.2,15.5c2.5-0.5,4.1,0,4.1,0
								c-2.5,1.3-4.3,3.9-4.3,3.9c2-0.7,3-1,3-1c-4.9,5.7-7.8,20.4-7.8,20.4c1.5-0.6,3.8-1,3.8-1c-4.1,7.7-5,13.5-5,13.5
								c0.8-0.3,1.9-0.1,1.9-0.1c-1.6,1.8-2.6,3.6-2.6,3.6l1.7-0.8c-3,2.1-4.3,10.6-4.3,10.6c0.9-0.6,2.1-0.5,2.1-0.5
								c-2.9,3.2-4.9,11.1-4.9,11.1s-2-8-4.9-11.1c0,0,1.2-0.1,2.1,0.5c0,0-1.2-8.5-4.3-10.6l1.7,0.8c0,0-1-1.8-2.6-3.6
								c0,0,1.1-0.3,1.9,0.1c0,0-0.9-5.8-5-13.5c0,0,2.3,0.3,3.8,1c0,0-2.9-14.7-7.8-20.4c0,0,1.1,0.3,3,1c0,0-1.9-2.6-4.3-3.9
								c0,0,1.6-0.5,4.1,0c0,0-0.8-8-7.2-15.5c0,0,1.2,0.1,3.2,0.9c0,0-1.9-4.2-4.9-7.9h21.3h21.3
								C753.2,395.7,751.3,399.9,751.3,399.9z"/>
							<path class="st14" d="M660,389.1c2.8-1.2,4.5-1.3,4.5-1.3c-9,10.6-10.2,22-10.2,22c3.5-0.8,5.8,0,5.8,0
								c-3.5,1.9-6.2,5.5-6.2,5.5c2.8-0.9,4.3-1.4,4.3-1.4c-7,8.1-11.1,29-11.1,29c2.2-0.9,5.4-1.4,5.4-1.4
								c-5.8,10.9-7.1,19.1-7.1,19.1c1.1-0.4,2.7-0.1,2.7-0.1c-2.2,2.6-3.7,5.1-3.7,5.1l2.4-1.1c-4.3,3-6.1,15-6.1,15
								c1.2-0.9,2.9-0.7,2.9-0.7c-4.2,4.5-7,15.8-7,15.8s-2.8-11.3-7-15.8c0,0,1.7-0.2,2.9,0.7c0,0-1.8-12-6.1-15l2.4,1.1
								c0,0-1.5-2.6-3.7-5.1c0,0,1.6-0.4,2.7,0.1c0,0-1.3-8.2-7.1-19.1c0,0,3.2,0.5,5.4,1.4c0,0-4.1-20.9-11.1-29
								c0,0,1.5,0.4,4.3,1.4c0,0-2.7-3.6-6.2-5.5c0,0,2.3-0.8,5.8,0c0,0-1.2-11.4-10.2-22c0,0,1.7,0.2,4.5,1.3c0,0-2.7-5.9-7-11.3
								h30.3H667C662.7,383.2,660,389.1,660,389.1z"/>
							<path class="st14" d="M693,391.9c3.3-1.3,5.2-1.5,5.2-1.5c-10.4,12.3-11.8,25.5-11.8,25.5c4-0.9,6.7,0,6.7,0
								c-4,2.2-7.1,6.4-7.1,6.4c3.2-1.1,5-1.6,5-1.6c-8.1,9.3-12.9,33.6-12.9,33.6c2.5-1,6.3-1.6,6.3-1.6
								c-6.7,12.6-8.3,22.1-8.3,22.1c1.3-0.5,3.1-0.1,3.1-0.1c-2.5,3-4.3,5.9-4.3,5.9l2.7-1.3c-5,3.5-7,17.4-7,17.4
								c1.4-1.1,3.4-0.8,3.4-0.8c-4.8,5.2-8.1,18.3-8.1,18.3s-3.3-13.1-8.1-18.3c0,0,1.9-0.2,3.4,0.8c0,0-2-13.9-7-17.4l2.7,1.3
								c0,0-1.7-3-4.3-5.9c0,0,1.9-0.4,3.1,0.1c0,0-1.6-9.5-8.3-22.1c0,0,3.8,0.6,6.3,1.6c0,0-4.8-24.2-12.9-33.6c0,0,1.8,0.5,5,1.6
								c0,0-3.1-4.2-7.1-6.4c0,0,2.7-0.9,6.7,0c0,0-1.3-13.2-11.8-25.5c0,0,1.9,0.2,5.2,1.5c0,0-3.1-6.8-8.1-13.1h35.1h35.1
								C696.1,385,693,391.9,693,391.9z"/>
						</g>
					</g>
				</g>
				<g class="st15">
					<g class="st2">
						<defs>
							<rect id="SVGID_00000023273866313989428340000009961765877641847982_" y="323.1" width="750" height="176.9"/>
						</defs>
						<clipPath id="SVGID_00000102546315973624922770000009304868217201450138_">
							<use xlink:href="#SVGID_00000023273866313989428340000009961765877641847982_"  style="overflow:visible;"/>
						</clipPath>
						<g style="clip-path:url(#SVGID_00000102546315973624922770000009304868217201450138_);">
							<g>
								<path class="st17" d="M-19.3,401.3H299c0,0-19.7,12.9-32.9,17.4c-13.1,4.5-42.3,8.2-46.6,9.6c-4.4,1.5-34.8,17.1-42.2,20.8
									c-7.4,3.7-60.8,0-65.3,0s-31.1,7.4-41.2,8.9s-43.9-1.5-48.1,0s-42.1,19.3-42.1,19.3L-19.3,401.3L-19.3,401.3z"/>
								<path class="st17" d="M57.6,462.8c4.7-1.9,7.4-2.2,7.4-2.2C50.1,478.2,48.2,497,48.2,497c5.8-1.3,9.6,0,9.6,0
									c-5.8,3.1-10.2,9.1-10.2,9.1c4.6-1.5,7.1-2.2,7.1-2.2c-11.6,13.4-18.4,47.9-18.4,47.9c3.6-1.5,8.9-2.3,8.9-2.3
									c-9.6,18.1-11.8,31.6-11.8,31.6c1.8-0.7,4.5-0.1,4.5-0.1c-3.6,4.2-6.1,8.5-6.1,8.5l3.9-1.9c-7.2,5-10.1,24.9-10.1,24.9
									c2.1-1.5,4.8-1.2,4.8-1.2c-6.9,7.4-11.6,26.2-11.6,26.2s-4.7-18.7-11.6-26.2c0,0,2.8-0.3,4.8,1.2c0,0-2.9-19.9-10.1-24.9
									l3.9,1.9c0,0-2.4-4.2-6.1-8.5c0,0,2.7-0.6,4.5,0.1c0,0-2.2-13.6-11.8-31.6c0,0,5.4,0.8,8.9,2.3c0,0-6.8-34.6-18.4-47.9
									c0,0,2.5,0.7,7.1,2.2c0,0-4.4-6-10.2-9.1c0,0,3.9-1.3,9.6,0c0,0-1.9-18.8-16.8-36.5c0,0,2.8,0.3,7.4,2.2
									c0,0-4.4-9.8-11.6-18.6H19h50.1C62,453,57.6,462.8,57.6,462.8z"/>
								<path class="st17" d="M86.5,448.6c3.5-1.5,5.6-1.7,5.6-1.7c-11.3,13.4-12.7,27.6-12.7,27.6c4.4-1,7.3,0,7.3,0
									c-4.4,2.4-7.7,6.9-7.7,6.9c3.5-1.2,5.4-1.7,5.4-1.7c-8.8,10.1-14,36.3-14,36.3c2.7-1.1,6.8-1.7,6.8-1.7c-7.3,13.7-9,24-9,24
									c1.4-0.6,3.4-0.1,3.4-0.1c-2.8,3.2-4.6,6.4-4.6,6.4l3-1.4c-5.4,3.8-7.6,18.9-7.6,18.9c1.6-1.1,3.7-0.9,3.7-0.9
									c-5.2,5.6-8.8,19.8-8.8,19.8s-3.5-14.2-8.8-19.8c0,0,2.1-0.3,3.7,0.9c0,0-2.2-15.1-7.6-18.9l3,1.4c0,0-1.9-3.2-4.6-6.4
									c0,0,2-0.5,3.4,0.1c0,0-1.7-10.3-9-24c0,0,4.1,0.6,6.8,1.7c0,0-5.2-26.2-14-36.3c0,0,1.9,0.5,5.4,1.7c0,0-3.3-4.5-7.7-6.9
									c0,0,2.9-1,7.3,0c0,0-1.5-14.3-12.7-27.6c0,0,2.1,0.2,5.6,1.7c0,0-3.3-7.4-8.8-14.1h38h38C89.8,441.2,86.5,448.6,86.5,448.6
									z"/>
								<path class="st17" d="M162.4,447.4c4-1.7,6.4-1.9,6.4-1.9c-12.8,15.1-14.4,31.3-14.4,31.3c5-1.1,8.3,0,8.3,0
									c-5,2.7-8.8,7.9-8.8,7.9c4-1.3,6.1-1.9,6.1-1.9c-10,11.5-15.8,41.2-15.8,41.2c3.1-1.3,7.7-1.9,7.7-1.9
									c-8.2,15.5-10.2,27.2-10.2,27.2c1.5-0.6,3.9-0.1,3.9-0.1c-3.1,3.6-5.2,7.3-5.2,7.3l3.4-1.6c-6.2,4.3-8.6,21.4-8.6,21.4
									c1.8-1.3,4.1-1,4.1-1c-5.9,6.4-9.9,22.5-9.9,22.5s-4-16.1-9.9-22.5c0,0,2.4-0.3,4.1,1c0,0-2.5-17.1-8.6-21.4l3.4,1.6
									c0,0-2.1-3.6-5.2-7.3c0,0,2.3-0.5,3.9,0.1c0,0-1.9-11.7-10.2-27.2c0,0,4.6,0.7,7.7,1.9c0,0-5.9-29.7-15.8-41.2
									c0,0,2.2,0.6,6.1,1.9c0,0-3.8-5.2-8.8-7.9c0,0,3.3-1.1,8.3,0c0,0-1.7-16.2-14.4-31.3c0,0,2.4,0.2,6.4,1.9
									c0,0-3.8-8.4-9.9-16h43.1h43.1C166.2,439,162.4,447.4,162.4,447.4z"/>
								<path class="st17" d="M211.4,500c-0.9-3.5-4-4-7-4.3c0-3.4-0.3-8.6-1.6-9.5c-2-1.4-5.6-1.8-5.8-4.2
									c-0.2-2.1-10.5-5.2-14.4-10.4c-0.1-6.9,0.6-26.9,0.8-30.7c0.2-4,3.2-6.9,3.2-6.9H176c0,0,1.8,1.7,2.7,4.5s1.3,15.6,1.5,18.6
									c0,0.4,0.1,1.5,0.1,3c-2.3,1.9-7.9,6.3-8.9,6.6c-1.2,0.4-8,1.6-8.8,4c-0.2,0.5-0.4,1.7-0.5,3.1l-7.5,4v1.6l7.3-3.4
									c-0.2,2.3-0.4,4.9-0.5,7c-1.2,0.4-2.5,0.8-3.6,0.9c-2,0.2-3.8-0.8-5.8-0.8s-5,0.8-5.4,3c-0.6,2.6,2.4,3,0.8,5.2
									c-0.6,1-1.8,0-2.4,1.8c-0.2,1,0,2.2,0.6,3c1.6,2.2,4.2,1,6.2,1.8c2.6,1,4.8,3.8,7.6,0.4v0.2c3,0.8,7.4-0.2,10.6-0.6
									c4.6-0.6,11-4.2,4.6-8.4c4.3-7.7-5.4-7.8-10.5-7.1c0.5-3.8,1.1-9.3,1.1-10.1c0-1.2,5.2-2.8,7-3.2c1.4-0.3,6.1-3.5,8.1-4.9
									c0.1,10.7,0.2,29.6-0.1,30.3c-0.4,1.1-4.2,2.9-4.2,6.4c0,1.6,0,4.8,0,7.8c-5-1.8-12.9-1.1-11.6,5.3c-5,0.8-5.8,0.6-7,5.2
									c-0.6,2-1.6,2.2-0.6,4.6c0.4,1.6,1.8,3.8,2.8,4.8c2.4,3.2,6.2,3,8.4,5.6c1.4,1.6,0.6,2.8,3.4,3.4c1.8,0.4,3.7-0.4,4.7-1.9
									c2,1,4.2-0.2,6.2,0.1c2,0.4,2.2,2.2,4.4,0.6c1.4-1,1.4-3,0.8-4.6c4,0.2,6.4,1,10.6-0.6c2.6-1.2,3.2-1.6,2.6-4.2
									c-0.2-0.8-1-1.6-1.2-2.6c-0.2-0.8,0.6-1.4,0.4-2.4c-0.8-2.2-3.4-2.8-4.6-4.6c-1.6-2.4,0-1.8-0.4-4.6
									c-0.8-4.1-6.6-7.1-9.2-3.2c-0.5-2.4-1.1-4.9-1.7-5.3c-1-0.6-3.9-1.9-5.6-2.5c0-0.9,0.1-1.6,0.3-1.8c0.7-1.5,3.9-2.1,3.9-4.2
									c0-1.8,0.2-13.7,0.1-20.8c0.8,0.8,2.1,1.8,3.9,2.9c4.2,2.5,9.2,4.1,9.2,6.1c0,1.2,0.1,4.8,0.1,7.6c-0.2,0.2-0.4,0.4-0.9,0.5
									c-2.8,0.6-2.8,0.2-5.4-0.4c-5.4-1.4-3.4,2.8-3.2,6.2c0.2,1.6-1.4,1.4,0.2,3c0.8,1,1.8,0.8,2.8,0.8c0.8,0,1.7-0.2,2.5-0.4
									c0.9,1.4,2,2.7,3.5,3.2c1.2,0.4,2.4-0.2,3.4,0c0.8,0.4,1.6,1.6,2.8,2c3,1.2,3.8-0.8,6.2-2
									C209.9,503.4,212.2,503.8,211.4,500z M178.6,509.9c-0.1-1.9-0.1-4-0.1-5.9c1.4,0.4,3.7,1.1,4.4,1.8c0.4,0.4,0.7,1.6,0.9,2.9
									c-1.7-0.4-3.7,0.1-4.7,1.5C178.9,510.2,178.8,510.1,178.6,509.9z M202.6,495.4c-1-0.2-1.9-0.4-2.6-0.9
									c-0.5-0.4-0.9-1.2-1.2-1.8c0-2,0-4.2,0-5.5c-0.1-2.5,3.1-0.3,3.7,1.4C202.8,489.7,202.7,493,202.6,495.4z"/>
								<path class="st17" d="M244.2,465.5c-1.8-0.5-1.6,6-3.3,5.5c-2.1,2-7.5-4.8-10.1-4.8c-1.2,0-4.8-0.5-5-2.4
									c0-2.2,3.6-1.7,5-2.1c3.1-0.9,3.1-4.3,5.6-5.1c-0.1-2.3-0.3-5-1-5.4c-1-0.5-11.4-4-15.7-5.4c0,2.5,0,4.6,0.1,5.3
									c0.3,2.1,3.8,3.1,3.8,5.4c0,2-0.4,12.4-0.6,17.2l7.6,6.6l-1,1.3l-6.8-4.7c-0.1,2.6-0.3,7.5-0.4,11.3
									c2.8-0.1,5.9-1.5,8.4-1.3c1.9,0,4.3,0.3,5.8,1.5c0.5,0.5,3.4,3.6,3.6,4.5c0.7,2.2-2.4,2.9-2.1,5c0.5,2.8,3.4,1.4,1.4,4.6
									c-2.4,4-7.7,2.1-11.4,3.6c-3.3,1.4-5.3,4.5-9.1,4.1l-0.3-0.2c-4.3,1.2-5.2-2.9-8.6-4.3c-4-1.4-7.4-2.1-8.9-6.4
									c-0.3-1.5-1.7-3.4-2.1-5c-0.3-2.4,1.4-2.4,3.6-2.9c1.4-0.3,3.6-0.3,4.6-1c1.9-1.2,0.9-2.6,2.6-4.1c3.8-3.3,6.8,0.2,9.9,1.5
									c0.3-8.5,1.1-28.2,1.1-29.9c0-1.1-1.7-2.6-3.1-4c0,2.5-0.2,5.2-0.8,5.3c-1.2,0.3-9.9,2.4-9.9,4c0,0.9,0,4.1,0,6.5
									c1.7-0.7,3.4-1.1,6-0.2c4.5,1.7,7.2,5.8,1.4,6.6c-2.1,1.8-5.3,0.2-7.6,0.1c-2.8-0.2-7.7,2.8-10,0c-1-1.4-0.3-4,0.9-4.6
									c1.2-0.7,3.6,0,5-0.3c0.7-0.1,1.3-0.3,1.8-0.5c0.1-2.9,0.4-7.3,0.6-8.4c0.3-1.7,10.1-4.1,10.3-6c0.1-1.2,0.3-3.6,0.4-5.2
									c0-0.1,0-0.3,0-0.4s0-0.4,0.1-0.6c0-0.4,0-0.6,0-0.6c0.2-3.8-0.1-14.3-0.1-16.5c0-2.6-4.5-5.7-4.5-5.7h14.3
									c0,0-5.8,3.8-5.9,5c0,0.7-0.1,6.2-0.1,11.1c4.7,1.4,17.2,5.3,18,7.1c0.5,1.2,0.5,3.6,0.4,5.8c0.4,0,0.8,0.1,1.3,0.2
									c2.1,0.7,3.1,2.2,4.8,3.4c1.7,1,4,1.5,5,3.8C251,468.2,246.4,466,244.2,465.5z"/>
							</g>
						</g>
					</g>
				</g>
			</g>
			<g>
				<polygon class="st18" points="0,323.1 668.3,323.1 0,333.7 				"/>
				<polygon class="st18" points="0,355.7 449.5,355.7 0,374.8 				"/>
			</g>
			<g>
				<polygon class="st19" points="750,450.3 141.3,450.3 704.7,500 750,500 				"/>
				<polygon class="st19" points="750,401.9 278.2,401.9 750,411.5 				"/>
			</g>
		</g>
		<g class="st1">
			<g class="st2">
				<defs>
					<rect id="SVGID_00000105423194289055982420000011290376295502677889_" y="0" width="750" height="500"/>
				</defs>
				<clipPath id="SVGID_00000168800468191641336330000006011205693240407197_">
					<use xlink:href="#SVGID_00000105423194289055982420000011290376295502677889_"  style="overflow:visible;"/>
				</clipPath>
				<g style="clip-path:url(#SVGID_00000168800468191641336330000006011205693240407197_);">
					<g>
						<path class="st17" d="M-19.3,401.9H299c0,0-19.7-12.9-32.9-17.4c-13.1-4.5-42.3-8.2-46.6-9.6c-4.4-1.5-34.8-17.1-42.2-20.8
							c-7.4-3.7-60.8,0-65.3,0s-31.1-7.4-41.2-8.9s-43.9,1.5-48.1,0s-42.1-19.3-42.1-19.3L-19.3,401.9L-19.3,401.9z"/>
						<path class="st17" d="M57.6,340.5c4.7,1.9,7.4,2.2,7.4,2.2c-14.9-17.6-16.8-36.5-16.8-36.5c5.8,1.3,9.6,0,9.6,0
							c-5.8-3.1-10.2-9.1-10.2-9.1c4.6,1.5,7.1,2.2,7.1,2.2c-11.6-13.4-18.4-47.9-18.4-47.9c3.6,1.5,8.9,2.3,8.9,2.3
							C35.7,235.6,33.5,222,33.5,222c1.8,0.7,4.5,0.1,4.5,0.1c-3.6-4.2-6.1-8.5-6.1-8.5l3.9,1.9c-7.2-5-10.1-24.9-10.1-24.9
							c2.1,1.5,4.8,1.2,4.8,1.2c-6.9-7.4-11.6-26.2-11.6-26.2s-4.7,18.7-11.6,26.2c0,0,2.8,0.3,4.8-1.2c0,0-2.9,19.9-10.1,24.9
							l3.9-1.9c0,0-2.4,4.2-6.1,8.5c0,0,2.7,0.6,4.5-0.1c0,0-2.2,13.6-11.8,31.6c0,0,5.4-0.8,8.9-2.3c0,0-6.8,34.6-18.4,47.9
							c0,0,2.5-0.7,7.1-2.2c0,0-4.4,6-10.2,9.1c0,0,3.9,1.3,9.6,0c0,0-1.9,18.8-16.8,36.5c0,0,2.8-0.3,7.4-2.2
							c0,0-4.4,9.8-11.6,18.6H19h50.1C62,350.3,57.6,340.5,57.6,340.5z"/>
						<path class="st17" d="M86.5,354.6c3.5,1.5,5.6,1.7,5.6,1.7c-11.3-13.4-12.7-27.6-12.7-27.6c4.4,1,7.3,0,7.3,0
							c-4.4-2.4-7.7-6.9-7.7-6.9c3.5,1.2,5.4,1.7,5.4,1.7c-8.8-10.1-14-36.3-14-36.3c2.7,1.1,6.8,1.7,6.8,1.7c-7.3-13.7-9-24-9-24
							c1.4,0.6,3.4,0.1,3.4,0.1c-2.8-3.2-4.6-6.4-4.6-6.4l3,1.4c-5.4-3.8-7.6-18.9-7.6-18.9c1.6,1.1,3.7,0.9,3.7,0.9
							c-5.2-5.6-8.8-19.8-8.8-19.8s-3.5,14.2-8.8,19.8c0,0,2.1,0.3,3.7-0.9c0,0-2.2,15.1-7.6,18.9l3-1.4c0,0-1.9,3.2-4.6,6.4
							c0,0,2,0.5,3.4-0.1c0,0-1.7,10.3-9,24c0,0,4.1-0.6,6.8-1.7c0,0-5.2,26.2-14,36.3c0,0,1.9-0.5,5.4-1.7c0,0-3.3,4.5-7.7,6.9
							c0,0,2.9,1,7.3,0c0,0-1.5,14.3-12.7,27.6c0,0,2.1-0.2,5.6-1.7c0,0-3.3,7.4-8.8,14.1h38h38C89.8,362,86.5,354.6,86.5,354.6z"/>
						<path class="st17" d="M162.4,355.8c4,1.7,6.4,1.9,6.4,1.9c-12.8-15.1-14.4-31.3-14.4-31.3c5,1.1,8.3,0,8.3,0
							c-5-2.7-8.8-7.9-8.8-7.9c4,1.3,6.1,1.9,6.1,1.9c-10-11.5-15.8-41.2-15.8-41.2c3.1,1.3,7.7,1.9,7.7,1.9
							c-8.2-15.5-10.2-27.2-10.2-27.2c1.5,0.6,3.9,0.1,3.9,0.1c-3.1-3.6-5.2-7.3-5.2-7.3l3.4,1.6c-6.2-4.3-8.6-21.4-8.6-21.4
							c1.8,1.3,4.1,1,4.1,1c-5.9-6.4-9.9-22.5-9.9-22.5s-4,16.1-9.9,22.5c0,0,2.4,0.3,4.1-1c0,0-2.5,17.1-8.6,21.4l3.4-1.6
							c0,0-2.1,3.6-5.2,7.3c0,0,2.3,0.5,3.9-0.1c0,0-1.9,11.7-10.2,27.2c0,0,4.6-0.7,7.7-1.9c0,0-5.9,29.7-15.8,41.2
							c0,0,2.2-0.6,6.1-1.9c0,0-3.8,5.2-8.8,7.9c0,0,3.3,1.1,8.3,0c0,0-1.7,16.2-14.4,31.3c0,0,2.4-0.2,6.4-1.9c0,0-3.8,8.4-9.9,16
							h43.1h43.1C166.2,364.2,162.4,355.8,162.4,355.8z"/>
						<path class="st17" d="M207.9,298.9c-2.4-1.2-3.2-3.2-6.2-2c-1.2,0.4-2,1.6-2.8,2c-1,0.2-2.2-0.4-3.4,0
							c-1.5,0.5-2.6,1.8-3.5,3.2c-0.8-0.2-1.7-0.4-2.5-0.4c-1,0-2-0.2-2.8,0.8c-1.6,1.6,0,1.4-0.2,3c-0.2,3.4-2.2,7.6,3.2,6.2
							c2.6-0.6,2.6-1,5.4-0.4c0.5,0.1,0.7,0.4,0.9,0.5c-0.1,2.8-0.1,6.5-0.1,7.6c0,2-5,3.6-9.2,6.1c-1.9,1.1-3.1,2.1-3.9,2.9
							c0.1-7.1-0.1-19-0.1-20.8c0-2.1-3.2-2.7-3.9-4.2c-0.1-0.3-0.2-0.9-0.3-1.8c1.6-0.7,4.6-1.9,5.6-2.5c0.7-0.4,1.3-2.8,1.7-5.3
							c2.7,3.9,8.5,0.9,9.2-3.2c0.4-2.8-1.2-2.2,0.4-4.6c1.2-1.8,3.8-2.4,4.6-4.6c0.2-1-0.6-1.6-0.4-2.4c0.2-1,1-1.8,1.2-2.6
							c0.6-2.6,0-3-2.6-4.2c-4.2-1.6-6.6-0.8-10.6-0.6c0.6-1.6,0.6-3.6-0.8-4.6c-2.2-1.6-2.4,0.2-4.4,0.6c-2,0.3-4.3-0.9-6.2,0.1
							c-1-1.5-3-2.3-4.7-1.9c-2.8,0.6-2,1.8-3.4,3.4c-2.2,2.6-6,2.4-8.4,5.6c-1,1-2.4,3.2-2.8,4.8c-1,2.4,0,2.6,0.6,4.6
							c1.2,4.6,2,4.4,7,5.2c-1.3,6.4,6.6,7.2,11.6,5.3c0,3,0,6.2,0,7.8c0,3.4,3.8,5.3,4.2,6.4c0.3,0.8,0.3,19.6,0.1,30.3
							c-2-1.4-6.7-4.6-8.1-4.9c-1.8-0.4-7-2-7-3.2c0-0.8-0.7-6.2-1.1-10.1c5.1,0.7,14.9,0.6,10.5-7.1c6.4-4.2,0-7.8-4.6-8.4
							c-3.2-0.4-7.6-1.4-10.6-0.6v0.2c-2.8-3.4-5-0.6-7.6,0.4c-2,0.8-4.6-0.4-6.2,1.8c-0.6,0.8-0.8,2-0.6,3c0.6,1.8,1.8,0.8,2.4,1.8
							c1.6,2.2-1.4,2.6-0.8,5.2c0.4,2.2,3.4,3,5.4,3s3.8-1,5.8-0.8c1.1,0.1,2.3,0.5,3.6,0.9c0.1,2.1,0.3,4.7,0.5,7l-7.3-3.4v1.6
							l7.5,4c0.2,1.4,0.3,2.6,0.5,3.1c0.8,2.4,7.6,3.6,8.8,4c0.9,0.3,6.5,4.7,8.9,6.6c0,1.5-0.1,2.6-0.1,3c-0.2,3-0.6,15.8-1.5,18.6
							c-0.9,2.8-2.7,4.5-2.7,4.5h10.6c0,0-3-2.9-3.2-6.9c-0.2-3.9-1-23.9-0.8-30.7c3.9-5.2,14.2-8.3,14.4-10.4
							c0.2-2.4,3.8-2.8,5.8-4.2c1.3-0.9,1.6-6.1,1.6-9.5c2.9-0.3,6.1-0.8,7-4.3C212.2,299.5,209.9,299.9,207.9,298.9z M179.1,292.9
							c1,1.4,3,1.9,4.7,1.5c-0.2,1.4-0.5,2.6-0.9,2.9c-0.7,0.7-3,1.5-4.4,1.8c0-1.8,0-4,0.1-5.9
							C178.8,293.2,178.9,293.1,179.1,292.9z M202.5,314.6c-0.6,1.7-3.8,3.9-3.7,1.4c0.1-1.2,0.1-3.5,0-5.5c0.4-0.7,0.7-1.4,1.2-1.8
							c0.7-0.5,1.6-0.7,2.6-0.9C202.7,310.2,202.8,313.5,202.5,314.6z"/>
						<path class="st17" d="M244.2,337.8c-1.8,0.5-1.6-6-3.3-5.5c-2.1-2-7.5,4.8-10.1,4.8c-1.2,0-4.8,0.5-5,2.4c0,2.2,3.6,1.7,5,2.1
							c3.1,0.9,3.1,4.3,5.6,5.1c-0.1,2.3-0.3,5-1,5.4c-1,0.5-11.4,4-15.7,5.4c0-2.5,0-4.6,0.1-5.3c0.3-2.1,3.8-3.1,3.8-5.4
							c0-2-0.4-12.4-0.6-17.2l7.6-6.6l-1-1.3l-6.8,4.7c-0.1-2.6-0.3-7.5-0.4-11.3c2.8,0.1,5.9,1.5,8.4,1.3c1.9,0,4.3-0.3,5.8-1.5
							c0.5-0.5,3.4-3.6,3.6-4.5c0.7-2.2-2.4-2.9-2.1-5c0.5-2.8,3.4-1.4,1.4-4.6c-2.4-4-7.7-2.1-11.4-3.6c-3.3-1.4-5.3-4.5-9.1-4.1
							l-0.3,0.2c-4.3-1.2-5.2,2.9-8.6,4.3c-4,1.4-7.4,2.1-8.9,6.4c-0.3,1.5-1.7,3.4-2.1,5c-0.3,2.4,1.4,2.4,3.6,2.9
							c1.4,0.3,3.6,0.3,4.6,1c1.9,1.2,0.9,2.6,2.6,4.1c3.8,3.3,6.8-0.2,9.9-1.5c0.3,8.5,1.1,28.2,1.1,29.9c0,1.1-1.7,2.6-3.1,4
							c0-2.5-0.2-5.2-0.8-5.3c-1.2-0.3-9.9-2.4-9.9-4c0-0.9,0-4.1,0-6.5c1.7,0.7,3.4,1.1,6,0.2c4.5-1.7,7.2-5.8,1.4-6.6
							c-2.1-1.8-5.3-0.2-7.6-0.1c-2.8,0.2-7.7-2.8-10,0c-1,1.4-0.3,4,0.9,4.6c1.2,0.7,3.6,0,5,0.3c0.7,0.1,1.3,0.3,1.8,0.5
							c0.1,2.9,0.4,7.3,0.6,8.4c0.3,1.7,10.1,4.1,10.3,6c0.1,1.2,0.3,3.6,0.4,5.2c0,0.1,0,0.3,0,0.4s0,0.4,0.1,0.6
							c0,0.4,0,0.6,0,0.6c0.2,3.8-0.1,14.3-0.1,16.5c0,2.6-4.5,5.7-4.5,5.7h14.3c0,0-5.8-3.8-5.9-5c0-0.7-0.1-6.2-0.1-11.1
							c4.7-1.4,17.2-5.3,18-7.1c0.5-1.2,0.5-3.6,0.4-5.8c0.4,0,0.8-0.1,1.3-0.2c2.1-0.7,3.1-2.2,4.8-3.4c1.7-1,4-1.5,5-3.8
							C251,335,246.4,337.3,244.2,337.8z"/>
					</g>
				</g>
			</g>
		</g>
		<g class="st1">
			<g class="st2">
				<defs>
					<rect id="SVGID_00000132083139771909890200000005844833762316009905_" y="0" width="750" height="500"/>
				</defs>
				<clipPath id="SVGID_00000011028389624405449450000007197760132200029090_">
					<use xlink:href="#SVGID_00000132083139771909890200000005844833762316009905_"  style="overflow:visible;"/>
				</clipPath>
				<g style="clip-path:url(#SVGID_00000011028389624405449450000007197760132200029090_);">
					<g>
						<path class="st14" d="M548,347c0,0,10.8-13.2,21.8-16.7s29.8-11.9,33.2-16.1s28.8-0.6,36.2,0s27.2-9.8,31.7-10.8
							s26.9-10.4,34.5-9.3s45.8-3.2,45.8-3.2V347H548z"/>
						<path class="st14" d="M728.3,299.2c2.5,1,4,1.2,4,1.2c-8-9.4-9-19.5-9-19.5c3.1,0.7,5.2,0,5.2,0c-3.1-1.7-5.5-4.9-5.5-4.9
							c2.5,0.8,3.8,1.2,3.8,1.2c-6.2-7.2-9.9-25.7-9.9-25.7c1.9,0.8,4.8,1.2,4.8,1.2c-5.1-9.7-6.3-16.9-6.3-16.9
							c1,0.4,2.4,0.1,2.4,0.1c-2-2.3-3.3-4.5-3.3-4.5l2.1,1c-3.8-2.7-5.4-13.3-5.4-13.3c1.1,0.8,2.6,0.6,2.6,0.6
							c-3.7-4-6.2-14-6.2-14s-2.5,10-6.2,14c0,0,1.5,0.2,2.6-0.6c0,0-1.6,10.7-5.4,13.3l2.1-1c0,0-1.3,2.3-3.3,4.5
							c0,0,1.4,0.3,2.4-0.1c0,0-1.2,7.3-6.3,16.9c0,0,2.9-0.4,4.8-1.2c0,0-3.7,18.5-9.9,25.7c0,0,1.3-0.4,3.8-1.2
							c0,0-2.4,3.2-5.5,4.9c0,0,2.1,0.7,5.2,0c0,0-1,10.1-9,19.5c0,0,1.5-0.1,4-1.2c0,0-2.4,5.2-6.2,10h26.8h26.8
							C730.7,304.5,728.3,299.2,728.3,299.2z"/>
						<path class="st14" d="M708.9,298.1c2,0.8,3.2,0.9,3.2,0.9c-6.3-7.5-7.2-15.5-7.2-15.5c2.5,0.5,4.1,0,4.1,0
							c-2.5-1.3-4.3-3.9-4.3-3.9c2,0.7,3,1,3,1c-4.9-5.7-7.8-20.4-7.8-20.4c1.5,0.6,3.8,1,3.8,1c-4.1-7.7-5-13.5-5-13.5
							c0.8,0.3,1.9,0.1,1.9,0.1c-1.6-1.8-2.6-3.6-2.6-3.6l1.7,0.8c-3-2.1-4.3-10.6-4.3-10.6c0.9,0.6,2.1,0.5,2.1,0.5
							c-2.9-3.2-4.9-11.1-4.9-11.1s-2,8-4.9,11.1c0,0,1.2,0.1,2.1-0.5c0,0-1.2,8.5-4.3,10.6l1.7-0.8c0,0-1,1.8-2.6,3.6
							c0,0,1.1,0.3,1.9-0.1c0,0-0.9,5.8-5,13.5c0,0,2.3-0.3,3.8-1c0,0-2.9,14.7-7.8,20.4c0,0,1.1-0.3,3-1c0,0-1.9,2.6-4.3,3.9
							c0,0,1.6,0.5,4.1,0c0,0-0.8,8-7.2,15.5c0,0,1.2-0.1,3.2-0.9c0,0-1.9,4.2-4.9,7.9h21.3H714
							C710.7,302.3,708.9,298.1,708.9,298.1z"/>
						<path class="st14" d="M751.3,294.1c2,0.8,3.2,0.9,3.2,0.9c-6.3-7.5-7.2-15.5-7.2-15.5c2.5,0.5,4.1,0,4.1,0
							c-2.5-1.3-4.3-3.9-4.3-3.9c2,0.7,3,1,3,1c-4.9-5.7-7.8-20.4-7.8-20.4c1.5,0.6,3.8,1,3.8,1c-4.1-7.7-5-13.5-5-13.5
							c0.8,0.3,1.9,0.1,1.9,0.1c-1.6-1.8-2.6-3.6-2.6-3.6l1.7,0.8c-3-2.1-4.3-10.6-4.3-10.6c0.9,0.6,2.1,0.5,2.1,0.5
							c-2.9-3.2-4.9-11.1-4.9-11.1s-2,8-4.9,11.1c0,0,1.2,0.1,2.1-0.5c0,0-1.2,8.5-4.3,10.6l1.7-0.8c0,0-1,1.8-2.6,3.6
							c0,0,1.1,0.3,1.9-0.1c0,0-0.9,5.8-5,13.5c0,0,2.3-0.3,3.8-1c0,0-2.9,14.7-7.8,20.4c0,0,1.1-0.3,3-1c0,0-1.9,2.6-4.3,3.9
							c0,0,1.6,0.5,4.1,0c0,0-0.8,8-7.2,15.5c0,0,1.2-0.1,3.2-0.9c0,0-1.9,4.2-4.9,7.9h21.3h21.3
							C753.2,298.3,751.3,294.1,751.3,294.1z"/>
						<path class="st14" d="M660,304.9c2.8,1.2,4.5,1.3,4.5,1.3c-9-10.6-10.2-22-10.2-22c3.5,0.8,5.8,0,5.8,0
							c-3.5-1.9-6.2-5.5-6.2-5.5c2.8,0.9,4.3,1.4,4.3,1.4c-7-8.1-11.1-29-11.1-29c2.2,0.9,5.4,1.4,5.4,1.4
							c-5.8-10.9-7.1-19.1-7.1-19.1c1.1,0.4,2.7,0.1,2.7,0.1c-2.2-2.6-3.7-5.1-3.7-5.1l2.4,1.1c-4.3-3-6.1-15-6.1-15
							c1.2,0.9,2.9,0.7,2.9,0.7c-4.2-4.5-7-15.8-7-15.8s-2.8,11.3-7,15.8c0,0,1.7,0.2,2.9-0.7c0,0-1.8,12-6.1,15l2.4-1.1
							c0,0-1.5,2.6-3.7,5.1c0,0,1.6,0.4,2.7-0.1c0,0-1.3,8.2-7.1,19.1c0,0,3.2-0.5,5.4-1.4c0,0-4.1,20.9-11.1,29
							c0,0,1.5-0.4,4.3-1.4c0,0-2.7,3.6-6.2,5.5c0,0,2.3,0.8,5.8,0c0,0-1.2,11.4-10.2,22c0,0,1.7-0.2,4.5-1.3c0,0-2.7,5.9-7,11.3
							h30.3H667C662.7,310.8,660,304.9,660,304.9z"/>
						<path class="st14" d="M693,302.1c3.3,1.3,5.2,1.5,5.2,1.5c-10.4-12.3-11.8-25.5-11.8-25.5c4,0.9,6.7,0,6.7,0
							c-4-2.2-7.1-6.4-7.1-6.4c3.2,1.1,5,1.6,5,1.6c-8.1-9.3-12.9-33.6-12.9-33.6c2.5,1,6.3,1.6,6.3,1.6
							c-6.7-12.6-8.3-22.1-8.3-22.1c1.3,0.5,3.1,0.1,3.1,0.1c-2.5-3-4.3-5.9-4.3-5.9l2.7,1.3c-5-3.5-7-17.4-7-17.4
							c1.4,1.1,3.4,0.8,3.4,0.8c-4.8-5.2-8.1-18.3-8.1-18.3s-3.3,13.1-8.1,18.3c0,0,1.9,0.2,3.4-0.8c0,0-2,13.9-7,17.4l2.7-1.3
							c0,0-1.7,3-4.3,5.9c0,0,1.9,0.4,3.1-0.1c0,0-1.6,9.5-8.3,22.1c0,0,3.8-0.6,6.3-1.6c0,0-4.8,24.2-12.9,33.6c0,0,1.8-0.5,5-1.6
							c0,0-3.1,4.2-7.1,6.4c0,0,2.7,0.9,6.7,0c0,0-1.3,13.2-11.8,25.5c0,0,1.9-0.2,5.2-1.5c0,0-3.1,6.8-8.1,13.1h35.1h35.1
							C696.1,309,693,302.1,693,302.1z"/>
					</g>
				</g>
			</g>
		</g>
	</g>
	
		<linearGradient id="SVGID_00000060023516628590729150000016983716247118671288_" gradientUnits="userSpaceOnUse" x1="0" y1="249.4646" x2="750" y2="249.4646" gradientTransform="matrix(1 0 0 -1 0 499.4646)">
		<stop  offset="0" style="stop-color:#D4F3EB"/>
		<stop  offset="6.933849e-02" style="stop-color:#DAF5E5"/>
		<stop  offset="0.3725" style="stop-color:#EDFAD2"/>
		<stop  offset="0.6786" style="stop-color:#F9FDC6"/>
		<stop  offset="0.9902" style="stop-color:#FDFEC2"/>
	</linearGradient>
	
		<rect y="0" style="opacity:0.2;fill:url(#SVGID_00000060023516628590729150000016983716247118671288_);enable-background:new    ;" width="750" height="500"/>
</g>
<rect x="-1" y="-0.2" class="st23" width="751" height="499.2"/>
</svg>
