<?xml version="1.0" encoding="utf-8"?>
<!-- Generator: Adobe Illustrator 27.4.1, SVG Export Plug-In . SVG Version: 6.00 Build 0)  -->
<svg version="1.1" id="Calque_1" xmlns="http://www.w3.org/2000/svg" xmlns:xlink="http://www.w3.org/1999/xlink" x="0px" y="0px"
	 viewBox="0 0 48 48" style="enable-background:new 0 0 48 48;" xml:space="preserve">
<style type="text/css">
	.st0{fill:#020203;}
</style>
<path class="st0" d="M38.7,46.1c-0.9,1.3-2.7,1.6-3.9,0.6c-1.1-0.9-1.3-2.5-0.5-3.6c5.6-8.1,6.7-17.8,2.8-25.9
	c-3.3-6.8-9.6-9.7-12.4-10.7c-0.6-0.2-1.2-0.2-1.8,0c-2.8,1-9.1,3.9-12.4,10.7C6.5,25.2,7.6,34.9,13.2,43c0.8,1.2,0.6,2.7-0.5,3.6
	c-0.5,0.4-1.1,0.6-1.7,0.6c-0.9,0-1.7-0.4-2.2-1.2c-6.7-9.7-8-21.5-3.2-31.3c0.2-0.5,0.5-0.9,0.7-1.4c0.3-0.6,0.6-1.6,0.6-2.3V7.1
	c0-1.5,1.2-2.7,2.7-2.7c0.7,0,1.4,0.3,1.9,0.8c0.2,0.2,0.3,0.4,0.4,0.6c0.1,0.3,0.5,0.3,0.7,0.1c5-4,10.9-5.3,11-5.3
	c0.2,0,12.7,2.8,18.2,14.1C46.7,24.6,45.4,36.4,38.7,46.1z"/>
<path class="st0" d="M29.9,31.4c0.5,0.5,0.4,1.4-0.1,1.9l-2.9,2.9c-0.4,0.4-0.6,0.9-0.6,1.5V41c0,1.4-1.2,2.6-2.7,2.6
	c-1.5,0-2.7-1.1-2.7-2.6V29.6c0-0.6-0.2-1.1-0.6-1.5l-3-3c-0.5-0.5-0.6-1.3-0.1-1.9c0.5-0.6,1.4-0.6,2-0.1l0.5,0.5
	c0.7,0.7,1.2,0.4,1.2-0.5V11c0-1.4,1.2-2.6,2.7-2.6c1.5,0,2.7,1.1,2.7,2.6v3.8c0,0.9,0.5,1.2,1.2,0.5l0.4-0.4
	c0.5-0.5,1.3-0.6,1.9-0.1c0.6,0.5,0.6,1.4,0.1,2l-2.9,2.9c-0.4,0.4-0.6,0.9-0.6,1.5v10.1c0,0.9,0.5,1.2,1.2,0.5l0.4-0.4
	C28.5,30.8,29.4,30.9,29.9,31.4z"/>
</svg>
