<?xml version="1.0" encoding="utf-8"?>
<!-- Generator: Adobe Illustrator 27.4.1, SVG Export Plug-In . SVG Version: 6.00 Build 0)  -->
<svg version="1.1" id="Calque_1" xmlns="http://www.w3.org/2000/svg" xmlns:xlink="http://www.w3.org/1999/xlink" x="0px" y="0px"
	 viewBox="0 0 933.3 444.4" style="enable-background:new 0 0 933.3 444.4;" xml:space="preserve">
<style type="text/css">
	.st0{display:none;}
	.st1{display:inline;}
	.st2{fill:none;}
	.st3{display:inline;fill:#CBBBA0;}
	.st4{font-family:'Dosis-ExtraBold';}
	.st5{font-size:160.9074px;}
	.st6{fill:#467971;}
</style>
<g id="Calque_1_00000005966070286043037220000018177087356354381245_" class="st0">
	<path class="st1" d="M360.6,332L360.6,332c-5.3-4.3-6.3-12-2.5-17.6c27.2-39.2,32.6-86.2,13.6-125.2c-15.9-32.9-46.3-46.9-60-51.7
		c-2.8-1-5.8-1-8.6,0c-13.7,4.8-44.1,18.8-60,51.7c-18.9,39.1-13.6,86.1,13.6,125.2c3.9,5.6,2.8,13.3-2.5,17.6l0,0
		c-5.9,4.8-14.7,3.6-19.1-2.7c-32.6-46.9-38.8-103.8-15.6-151.5c26.6-54.9,82.8-67.5,85.1-68l0,0c1.8-0.4,3.7-0.4,5.5,0l0,0
		c2.4,0.5,58.5,13.1,85.1,68c23.1,47.7,17,104.6-15.6,151.5C375.3,335.6,366.5,336.8,360.6,332z"/>
	<path class="st1" d="M252.2,166.5H226v-25.8c0-7.2,5.9-13.1,13.1-13.1l0,0c7.2,0,13.1,5.9,13.1,13.1L252.2,166.5L252.2,166.5z"/>
	<g class="st1">
		<line class="st2" x1="307.4" y1="300.9" x2="333" y2="275.2"/>
		<path d="M307.4,307.4c-1.7,0-3.3-0.6-4.6-1.9c-2.6-2.6-2.6-6.7,0-9.2l25.6-25.6c2.6-2.6,6.7-2.6,9.2,0c2.6,2.6,2.6,6.7,0,9.2
			L312,305.5C310.7,306.8,309.1,307.4,307.4,307.4z"/>
	</g>
	<g class="st1">
		<line class="st2" x1="306.9" y1="261" x2="281.3" y2="235.4"/>
		<path d="M306.9,267.5c-1.7,0-3.3-0.6-4.6-1.9L276.6,240c-2.6-2.6-2.6-6.7,0-9.2c2.6-2.6,6.7-2.6,9.2,0l25.6,25.6
			c2.6,2.6,2.6,6.7,0,9.2C310.2,266.9,308.6,267.5,306.9,267.5z"/>
	</g>
	<g class="st1">
		<line class="st2" x1="307.4" y1="221.1" x2="333" y2="195.5"/>
		<path d="M307.4,227.7c-1.7,0-3.3-0.6-4.6-1.9c-2.6-2.6-2.6-6.7,0-9.2l25.6-25.6c2.6-2.6,6.7-2.6,9.2,0c2.6,2.6,2.6,6.7,0,9.2
			L312,225.7C310.7,227,309.1,227.7,307.4,227.7z"/>
	</g>
	<path class="st1" d="M307.4,329.8c-7.2,0-13.1-5.5-13.1-12.4V172.1c0-6.8,5.9-12.4,13.1-12.4s13.1,5.5,13.1,12.4v145.4
		C320.5,324.3,314.6,329.8,307.4,329.8z"/>
</g>
<g id="Calque_2_00000055680137713743645090000000481626756079803322_" class="st0">
	<path class="st1" d="M480.3,271.6c-3.3,0-6-0.7-8.1-2.2s-3.2-3.1-3.2-4.8v-55.9c0-2.1,1-3.7,3.2-5c2.1-1.3,4.8-1.9,8.1-1.9
		c2.7,0,5.1,0.6,7,1.9c2,1.3,2.9,2.9,2.9,5v3.4c1.4-2.8,3.8-5.4,7.2-7.7c3.4-2.3,7.6-3.4,12.5-3.4c4.5,0,8.6,1.4,12.4,4.2
		s6.8,6.5,9.1,11.1s3.4,9.8,3.4,15.5v32.9c0,2.3-1.2,4.1-3.6,5.3c-2.4,1.2-5,1.8-7.8,1.8c-2.6,0-5.2-0.6-7.6-1.8
		c-2.4-1.2-3.7-2.9-3.7-5.3v-32.9c0-1.9-0.5-3.6-1.4-5.3s-2.2-3-3.8-4.1c-1.6-1.1-3.4-1.6-5.4-1.6c-1.6,0-3.1,0.4-4.6,1.3
		c-1.5,0.9-2.8,2.1-3.7,3.7c-1,1.6-1.5,3.6-1.5,5.9v32.9c0,1.8-1.1,3.4-3.4,4.8C486.1,270.8,483.5,271.6,480.3,271.6z"/>
	<path class="st1" d="M581.8,273c-7.2,0-13.6-1.3-19.2-3.9c-5.6-2.6-10-6.2-13.1-10.9c-3.2-4.7-4.8-10.1-4.8-16.3v-10.7
		c0-5.5,1.5-10.5,4.5-15.1s7.1-8.3,12.2-11.1c5.1-2.8,10.8-4.2,17-4.2c5.7,0,10.9,1.2,15.6,3.5c4.7,2.3,8.6,5.6,11.5,9.8
		s4.4,9,4.4,14.6c0,4.4-0.7,7.6-2.1,9.5c-1.4,1.9-3.2,3.1-5.4,3.5s-4.4,0.7-6.7,0.7h-28.3v0.9c0,3.6,1.4,6.5,4.1,8.7
		c2.7,2.2,6.4,3.3,10.9,3.3c3,0,5.6-0.5,7.8-1.4c2.1-0.9,4.1-1.8,5.7-2.7c1.7-0.9,3.3-1.3,4.8-1.3c1.8,0,3.3,0.6,4.5,1.8
		c1.3,1.2,2.2,2.5,2.9,4.1c0.6,1.6,1,2.9,1,4.1c0,1.9-1.1,3.8-3.4,5.9c-2.3,2.1-5.4,3.8-9.5,5.2C592.2,272.3,587.4,273,581.8,273z
		 M567.5,229.6h18.2c1.1,0,1.9-0.2,2.3-0.7c0.5-0.5,0.7-1.4,0.7-2.8c0-2-0.5-3.6-1.5-4.9c-1-1.3-2.3-2.3-4-2.9c-1.6-0.6-3.4-1-5.2-1
		s-3.4,0.3-5.1,1c-1.6,0.6-2.9,1.6-4,2.9c-1,1.3-1.5,3-1.5,4.9L567.5,229.6L567.5,229.6z"/>
	<path class="st1" d="M644.5,273c-5.1,0-9.8-0.6-14-1.9c-4.3-1.3-7.6-2.9-10.1-5s-3.7-4.3-3.7-6.6c0-1.2,0.3-2.5,1-4.1
		c0.6-1.6,1.5-2.9,2.6-4.1c1.1-1.2,2.4-1.8,3.9-1.8c1.6,0,3.1,0.6,4.7,1.7c1.6,1.1,3.5,2.2,5.8,3.3s5.4,1.6,9.3,1.6
		c3.9,0,6.4-0.6,7.5-1.7c1.1-1.1,1.6-2.2,1.6-3.2c0-1.7-0.8-3-2.5-3.9s-3.8-1.7-6.4-2.3c-2.6-0.6-5.4-1.4-8.3-2.2
		c-2.9-0.8-5.7-2-8.3-3.4c-2.6-1.5-4.7-3.5-6.4-6s-2.5-5.9-2.5-10c0-3.6,0.9-7.2,2.6-10.6c1.7-3.5,4.6-6.3,8.6-8.6
		c4-2.2,9.5-3.4,16.4-3.4c4.3,0,8.3,0.4,12.1,1.3c3.8,0.9,6.8,2.1,9.2,3.7c2.4,1.6,3.6,3.4,3.6,5.5c0,1-0.3,2.3-1,4
		c-0.6,1.7-1.6,3.3-2.8,4.6c-1.2,1.4-2.7,2.1-4.5,2.1c-1.3,0-2.7-0.4-4.3-1.1c-1.6-0.7-3.3-1.5-5.3-2.2s-4.3-1.1-6.9-1.1
		c-2,0-3.5,0.2-4.8,0.7c-1.2,0.5-2.1,1.1-2.7,1.8c-0.6,0.7-0.9,1.4-0.9,2.2c0,1.4,0.8,2.4,2.5,3.2c1.7,0.7,3.8,1.4,6.5,2.1
		c2.6,0.6,5.4,1.4,8.4,2.2c2.9,0.8,5.7,2.1,8.4,3.7c2.6,1.6,4.8,3.8,6.5,6.5s2.5,6.2,2.5,10.5c0,6.8-2.4,12.3-7.3,16.4
		S653.6,273,644.5,273z"/>
	<path class="st1" d="M711.5,271.6c-9.3,0-16.4-2-21.3-5.9c-4.9-4-7.4-10.2-7.4-18.8v-68.5c0-2.1,1.2-3.7,3.7-5
		c2.4-1.3,5-1.9,7.6-1.9c2.8,0,5.5,0.6,7.8,1.9c2.4,1.3,3.6,2.9,3.6,5v23.5H722c1.9,0,3.2,0.9,4.2,2.6c0.9,1.7,1.4,3.5,1.4,5.5
		c0,2.1-0.5,3.9-1.4,5.6c-0.9,1.7-2.3,2.5-4.2,2.5h-16.6V247c0,2.2,0.4,3.6,1.3,4.5c0.9,0.8,2.4,1.2,4.7,1.2h6.3c3.3,0,5.8,1,7.3,3
		c1.6,2,2.3,4.2,2.3,6.5c0,2.4-0.8,4.6-2.3,6.6c-1.6,2-4,2.9-7.3,2.9h-6.2V271.6z"/>
</g>
<g id="Calque_3" class="st0">
	<text transform="matrix(1 0 0 1 439.0153 272.7701)" class="st3 st4 st5">nest</text>
</g>
<g id="Calque_4">
	<g>
		<path class="st6" d="M441.8,323.2c-5.6,0-10.1-1.3-13.7-3.9c-3.6-2.5-5.3-5.3-5.3-8.4V193.5c0-3.6,1.8-6.5,5.3-8.6
			c3.6-2.2,8.1-3.3,13.7-3.3c4.8,0,8.8,1.1,12.1,3.3c3.3,2.2,4.9,5.1,4.9,8.6v9c3-5.7,7.9-11,14.7-15.6c6.8-4.7,15.2-7,25.2-7
			c9.4,0,17.9,2.8,25.6,8.2c7.7,5.5,14,12.8,18.6,21.9s7,19.3,7,30.4v70.7c0,3.9-2,7-6,9.1c-3.9,2-8.5,3.2-13.4,3.2
			c-4.3,0-8.6-1-12.8-3.2c-4.2-2-6.2-5.1-6.2-9.1v-70.7c0-4.6-1.1-8.9-3.4-12.8c-2.3-3.9-5.5-7.4-9.4-10c-3.9-2.7-8.4-4.1-13.1-4.1
			c-3.9,0-7.9,1.1-11.7,3.3s-6.8,5.3-9.3,9.3c-2.4,3.9-3.6,8.8-3.6,14.3v70.7c0,2.9-1.9,5.7-5.7,8.4
			C451.7,322,447.1,323.2,441.8,323.2z"/>
		<path class="st6" d="M645.4,325.9c-14.1,0-26.6-2.5-37.4-7.6s-19.3-12.2-25.5-21.4c-6.2-9.3-9.3-19.9-9.3-32.1v-25.4
			c0-10.8,2.9-20.7,8.8-29.7c5.8-9,13.7-16.2,23.6-21.8c9.9-5.5,20.8-8.2,33-8.2c11.2,0,21.3,2.4,30.6,7.1
			c9.3,4.8,16.7,11.3,22.5,19.7c5.7,8.4,8.6,18.1,8.6,29.2c0,8.5-1.4,14.7-4.2,18.4c-2.8,3.7-6.3,6-10.5,6.8
			c-4.3,0.9-8.8,1.4-13.3,1.4h-60.4v4.4c0,8.5,3.2,15.5,9.6,20.7c6.5,5.3,14.8,7.9,25.2,7.9c6.6,0,12.1-1,16.4-3
			c4.3-2,8.1-3.9,11.3-5.7c3.2-1.8,6.2-2.7,9-2.7c3,0,5.6,1,7.7,3c2.2,2,3.9,4.3,5.1,7c1.1,2.7,1.8,5.1,1.8,7c0,3.4-2.2,7-6.5,10.9
			c-4.3,3.9-10.3,7.1-18.1,9.9C665.4,324.6,656.2,325.9,645.4,325.9z M611.8,239.8h43.5c3.4,0,5.7-0.5,7-1.6
			c1.3-1.1,1.9-3.2,1.9-6.5c0-4.6-1.1-8.6-3.6-12.2c-2.4-3.6-5.6-6.3-9.5-8.4c-3.9-2-8.4-3-13.1-3c-4.6,0-8.9,0.9-12.8,2.8
			c-3.9,1.9-7.2,4.6-9.6,8c-2.5,3.4-3.7,7.6-3.7,12.4v8.5H611.8z"/>
		<path class="st6" d="M769.5,325.9c-9.9,0-19-1.3-27.3-3.7c-8.2-2.5-14.7-5.7-19.4-9.6c-4.7-3.9-7-8-7-12.2c0-2,0.5-4.3,1.6-7
			s2.5-5.1,4.4-7c1.9-2,4.2-3,6.7-3c2.8,0,5.7,1.1,8.8,3.4c3,2.3,7,4.6,11.7,6.7c4.7,2.2,11.2,3.3,19.5,3.3c9,0,14.8-1.4,17.8-4.2
			c2.9-2.8,4.3-5.7,4.3-8.6c0-4.3-1.8-7.7-5.2-10.1c-3.4-2.4-7.9-4.3-13.3-6c-5.3-1.6-11-3.2-17.1-4.9c-6.1-1.6-11.8-3.9-17.1-6.8
			c-5.3-2.9-9.8-6.8-13.1-11.9c-3.4-5.1-5.1-11.7-5.1-19.8c0-7.1,1.6-14.1,5.1-20.9c3.4-6.7,9-12.4,16.7-16.9
			c7.7-4.4,18.3-6.7,31.6-6.7c8.1,0,15.9,0.9,23.1,2.5c7.2,1.6,13.2,4.1,17.8,7c4.6,3,6.8,6.2,6.8,9.9c0,1.8-0.6,4.2-1.8,7
			c-1.1,2.9-2.8,5.5-4.9,7.9c-2,2.4-4.6,3.6-7.6,3.6c-2.2,0-4.8-0.8-7.9-2.3c-3-1.5-6.6-2.9-10.5-4.3c-3.9-1.4-8.8-2-14.3-2
			c-4.9,0-9,0.8-11.9,2c-2.9,1.4-5.2,3-6.6,5.1s-2,4.1-2,6.2c0,3.6,1.6,6.3,5.1,8.4c3.4,2,7.7,3.7,13.3,5.1
			c5.5,1.4,11.3,2.9,17.3,4.6c6.1,1.6,11.8,4.2,17.3,7.5c5.5,3.3,9.9,7.6,13.3,12.9c3.4,5.3,5.1,12.6,5.1,21.4
			c0,13.1-4.7,23.7-14.2,31.6C800.8,322,787.2,325.9,769.5,325.9z"/>
		<path class="st6" d="M902.1,323.2c-17.9,0-31.6-3.9-41-11.7c-9.4-7.7-14.2-19.9-14.2-36.7V130.3c0-3.6,2-6.5,6.2-8.6
			c4.2-2.2,8.5-3.3,12.8-3.3c4.8,0,9.1,1.1,13.3,3.3c4.1,2.2,6.1,5.1,6.1,8.6v51.2h35.1c3.2,0,5.6,1.4,7.4,4.3
			c1.6,2.9,2.5,6.1,2.5,9.6c0,3.6-0.9,6.8-2.5,9.6c-1.6,2.9-4.2,4.3-7.4,4.3h-35.1v65.3c0,5.7,1.3,9.9,3.7,12.2
			c2.5,2.4,6.8,3.6,12.9,3.6h11.7c5.6,0,9.6,1.6,12.4,5.1c2.7,3.4,4.1,7.1,4.1,11c0,4.2-1.4,8-4.1,11.3c-2.7,3.4-6.8,5.1-12.4,5.1
			h-11.5V323.2z"/>
	</g>
	<path class="st6" d="M279.1,392.1c-6.8,9.9-20.8,11.9-30.2,4.3c-8.4-6.8-10-19-3.9-27.9c43.1-62.2,51.6-136.7,21.6-198.8
		c-25.2-52.1-73.4-74.3-95.3-82.1c-4.4-1.5-9.3-1.5-13.7,0c-21.8,7.7-70,29.9-95.3,82.1c-30.1,62-21.6,136.6,21.6,198.8
		c6.2,8.9,4.4,21.1-3.9,27.9c-3.9,3.2-8.5,4.7-13.1,4.7c-6.6,0-13.1-3-17.1-8.9C-2,317.8-11.8,227.5,24.9,151.7
		c1.8-3.7,3.7-7.2,5.6-10.7c2.5-4.6,4.7-12.6,4.7-17.8V93c0-11.4,9.3-20.8,20.8-20.8c5.7,0,10.9,2.3,14.7,6.1
		c1.4,1.4,2.5,2.9,3.4,4.6c1.1,2,3.6,2.5,5.3,1c38.7-30.8,83.5-40.6,84.9-40.6c1.5,0,97.3,21.3,139.5,108.5
		C340.6,227.3,330.8,317.7,279.1,392.1z"/>
	<path class="st6" d="M212,279.6c3.7,4.2,3.2,10.5-0.8,14.5L189,316.3c-3,3-4.7,7.1-4.7,11.4v25.7c0,10.9-9.3,19.7-20.8,19.7
		c-11.4,0-20.8-8.8-20.8-19.7v-88.3c0-4.3-1.6-8.4-4.7-11.4l-23.1-23.1c-3.9-3.9-4.4-10.3-0.8-14.5c4.1-4.6,10.9-4.7,15.1-0.5
		l4.2,4.2c5.1,5.1,9.1,3.3,9.1-3.8v-93.5c0-10.8,9.3-19.7,20.8-19.7c11.4,0,20.8,8.8,20.8,19.7V152c0,7.1,4.1,8.9,9.1,3.8l3.2-3.2
		c3.9-3.9,10.3-4.4,14.5-0.8c4.6,4.1,4.7,10.9,0.5,15.1l-22.6,22.6c-3,3-4.7,7.1-4.7,11.4v77.6c0,7.1,4.1,8.9,9.1,3.8l3.4-3.4
		C201.1,274.9,208,275.2,212,279.6z"/>
</g>
</svg>
